<?xml version="1.0" standalone="no"?>
<!DOCTYPE svg PUBLIC "-//W3C//DTD SVG 20010904//EN"
 "http://www.w3.org/TR/2001/REC-SVG-20010904/DTD/svg10.dtd">
<svg version="1.0" xmlns="http://www.w3.org/2000/svg"
 width="900.000000pt" height="900.000000pt" viewBox="0 0 900.000000 900.000000"
 preserveAspectRatio="xMidYMid meet">
<metadata>
Created by potrace 1.14, written by Peter Selinger 2001-2017
</metadata>
<g transform="translate(0.000000,900.000000) scale(0.100000,-0.100000)"
fill="#000000" stroke="none">
<path d="M0 4495 l0 -4125 4500 0 4500 0 0 4125 0 4125 -4500 0 -4500 0 0
-4125z m3982 3844 c31 -35 89 -102 128 -149 39 -47 82 -97 95 -112 14 -15 41
-50 62 -78 20 -27 41 -50 45 -50 4 0 8 -5 8 -11 0 -6 22 -37 48 -68 76 -89
152 -190 152 -201 0 -23 29 -8 40 23 7 17 26 61 42 97 51 113 56 123 88 200
17 41 42 98 55 125 13 28 31 68 40 90 10 22 30 67 45 100 16 33 34 74 40 90
l12 30 18 -55 c19 -62 46 -158 65 -240 7 -30 30 -118 50 -195 21 -77 42 -162
48 -190 5 -27 18 -76 28 -109 10 -32 16 -63 13 -68 -9 -14 33 -1 74 23 18 10
38 19 44 19 6 0 34 11 62 24 28 13 78 35 111 49 33 14 81 35 107 46 26 12 52
21 58 21 5 0 33 11 62 24 60 27 161 67 228 89 25 8 59 19 75 25 47 16 170 52
179 52 5 0 4 -6 -2 -12 -12 -15 -44 -72 -84 -148 -15 -30 -32 -62 -37 -70 -4
-8 -12 -24 -18 -35 -5 -11 -18 -36 -28 -55 -10 -19 -21 -42 -25 -50 -3 -8 -13
-28 -22 -45 -9 -16 -24 -48 -34 -70 -11 -22 -22 -41 -26 -43 -5 -2 -8 -11 -9
-20 0 -9 -9 -30 -20 -47 -10 -16 -21 -37 -24 -45 -3 -8 -15 -32 -25 -52 -11
-20 -20 -39 -20 -42 0 -8 71 5 139 25 35 11 111 24 170 29 58 5 149 14 201 20
52 5 183 12 290 15 l195 6 -25 -21 c-14 -11 -43 -35 -64 -53 -22 -18 -48 -40
-58 -49 -10 -10 -22 -18 -26 -18 -5 0 -18 -10 -29 -22 -12 -13 -34 -34 -51
-48 -166 -139 -280 -252 -288 -284 -7 -29 1 -46 22 -46 9 0 40 -11 70 -25 30
-14 59 -25 64 -25 5 0 34 -11 64 -25 30 -14 58 -25 63 -25 5 0 24 -8 43 -19
19 -10 46 -21 60 -25 14 -4 48 -18 75 -31 28 -13 81 -38 118 -56 37 -17 66
-33 64 -35 -3 -3 -80 -33 -211 -81 -21 -7 -57 -23 -79 -33 -23 -11 -47 -20
-54 -20 -8 0 -31 -9 -53 -20 -24 -12 -59 -20 -90 -20 -31 0 -68 8 -92 20 -23
11 -46 20 -52 20 -5 0 -29 10 -53 21 -24 12 -46 19 -49 17 -2 -3 19 -25 47
-49 28 -24 62 -54 74 -66 12 -13 26 -23 30 -23 4 0 16 -11 27 -25 11 -14 23
-25 28 -25 10 0 270 -266 270 -277 0 -3 12 -17 28 -32 26 -25 54 -57 155 -181
45 -53 55 -79 20 -48 -10 9 -36 25 -58 37 -22 12 -65 37 -95 56 -30 19 -62 38
-70 41 -8 4 -31 20 -51 36 -20 15 -40 28 -45 28 -11 0 -144 89 -174 117 -67
62 -180 129 -194 116 -3 -4 7 -20 23 -37 47 -51 100 -133 121 -189 43 -117
129 -512 144 -657 6 -54 6 -55 -10 -25 -8 17 -22 37 -30 46 -8 8 -14 19 -14
24 0 5 -11 25 -23 44 -13 20 -51 79 -85 131 -34 52 -67 102 -74 111 -7 9 -14
22 -16 30 -2 8 -11 23 -21 34 -31 37 -82 115 -75 115 4 0 -2 10 -14 23 -19 20
-48 61 -166 237 -24 36 -51 72 -60 79 -9 7 -16 17 -16 22 0 12 -71 112 -87
122 -7 4 -13 13 -13 20 -1 16 -48 73 -54 66 -7 -6 33 -83 45 -87 5 -2 9 -12 9
-23 0 -11 11 -37 25 -59 14 -22 25 -43 25 -47 0 -5 12 -33 26 -63 15 -30 30
-62 34 -70 3 -8 15 -31 25 -50 10 -19 22 -43 26 -52 11 -23 39 -211 39 -267 0
-25 10 -102 21 -171 11 -69 22 -181 25 -250 l5 -125 -26 40 c-13 22 -25 44
-25 48 0 4 -8 20 -19 35 -28 41 -75 127 -70 128 2 1 -3 10 -12 20 -9 11 -19
26 -23 34 -7 16 -10 22 -110 182 -36 59 -66 112 -66 117 0 5 -7 14 -15 21 -8
7 -27 34 -42 61 -14 27 -29 49 -33 49 -4 0 -10 8 -14 18 -3 9 -23 44 -45 77
-22 33 -47 74 -56 90 -35 68 -46 75 -135 90 -226 38 -702 55 -1035 36 -110 -7
-286 -15 -392 -18 l-192 -6 -26 -31 c-80 -99 -178 -231 -210 -284 -6 -9 -28
-44 -50 -77 -22 -33 -50 -78 -61 -100 -12 -22 -32 -58 -44 -80 -45 -80 -87
-162 -134 -268 -27 -59 -51 -105 -53 -104 -2 2 8 103 22 223 14 120 25 238 25
262 0 39 10 62 57 137 7 11 24 41 38 67 13 26 29 49 35 53 5 3 10 13 10 22 0
9 6 24 14 32 14 15 36 53 90 153 14 26 30 49 36 53 5 3 10 16 10 27 0 17 -5
14 -31 -18 -17 -22 -36 -38 -41 -36 -5 1 -7 -1 -4 -6 2 -4 -14 -29 -37 -54
-23 -26 -49 -55 -57 -64 -84 -101 -165 -196 -202 -238 -15 -17 -37 -44 -50
-59 -13 -15 -33 -37 -45 -49 -13 -12 -23 -28 -23 -35 0 -8 -6 -16 -14 -19 -7
-3 -36 -33 -64 -67 -28 -34 -63 -76 -79 -94 -15 -18 -47 -54 -70 -80 -149
-171 -147 -172 -72 72 17 55 37 123 44 150 8 28 34 109 59 180 25 72 46 137
46 146 0 20 63 71 124 99 25 12 49 26 52 31 11 18 -54 9 -114 -16 -34 -14 -71
-25 -83 -25 -31 0 -351 -162 -442 -224 -38 -26 -44 -14 -13 27 14 19 26 38 26
42 0 4 11 23 25 41 14 18 25 36 25 40 0 4 12 23 27 43 15 19 28 42 30 51 1 8
8 19 15 25 7 5 31 39 52 75 41 68 63 99 109 154 15 19 27 38 27 43 0 6 9 18
20 28 11 10 20 23 20 29 0 7 9 19 20 29 11 9 20 23 20 31 0 21 -62 56 -117 66
-26 4 -92 18 -146 29 -55 12 -113 21 -130 21 -18 0 -94 11 -170 23 -96 16
-135 26 -125 33 85 61 654 244 756 244 34 0 82 28 82 48 0 30 -156 166 -395
344 -5 4 -24 19 -41 33 -18 14 -36 25 -42 25 -6 0 -12 4 -14 8 -1 4 -36 32
-76 62 -93 69 -84 75 92 67 233 -10 544 -49 819 -101 l68 -13 -6 25 c-3 14
-15 37 -26 50 -10 14 -19 28 -19 33 0 14 -182 279 -191 279 -5 0 -9 5 -9 11 0
12 -221 279 -231 279 -4 0 -13 10 -22 23 l-15 23 82 -8 c44 -4 113 -14 151
-24 39 -9 95 -20 125 -24 30 -5 89 -18 130 -30 41 -12 93 -27 115 -33 22 -6
45 -14 50 -18 6 -4 29 -12 50 -18 92 -22 212 -69 372 -147 74 -36 101 -45 135
-42 42 3 43 4 46 42 2 21 -8 104 -22 185 -14 80 -28 175 -31 211 -4 36 -15
110 -25 165 -10 55 -20 124 -23 153 l-4 52 31 -33 c17 -18 57 -62 88 -98z
m468 -2459 c124 -5 379 -12 568 -16 336 -7 344 -8 352 -28 5 -12 29 -52 54
-90 25 -38 46 -71 46 -74 0 -3 11 -20 25 -38 14 -18 25 -36 25 -40 0 -4 11
-22 25 -40 29 -38 31 -77 14 -268 -12 -142 -23 -165 -95 -201 -118 -60 -262
-72 -964 -81 -414 -6 -528 -4 -695 10 -307 25 -361 33 -406 62 l-39 24 0 253
c0 181 4 258 13 273 21 37 118 177 133 191 8 8 14 19 14 24 0 5 9 18 20 29 18
18 36 20 197 23 199 4 380 1 713 -13z m1754 -676 c19 -7 22 -68 6 -109 -11
-28 -2 -53 31 -88 10 -11 21 -34 25 -51 3 -16 12 -39 18 -49 8 -15 8 -21 -1
-24 -16 -6 -6 -89 14 -121 10 -17 11 -27 4 -36 -6 -8 -12 -50 -14 -94 -1 -44
-6 -84 -10 -88 -4 -4 -7 -21 -7 -38 -1 -30 -31 -130 -44 -143 -3 -3 -6 -14 -6
-22 0 -9 -11 -33 -25 -53 -14 -20 -25 -46 -25 -58 0 -13 -9 -24 -25 -30 -14
-5 -25 -14 -25 -19 0 -5 -6 -16 -13 -23 -30 -32 -46 -65 -35 -76 8 -8 8 -15 0
-25 -17 -20 -70 -10 -78 15 -7 25 12 39 42 32 17 -4 24 0 29 18 5 12 19 37 32
55 24 31 24 31 4 38 -12 3 -21 15 -21 26 0 19 3 21 53 23 23 1 31 9 47 44 20
43 20 44 1 49 -24 6 -35 33 -21 47 6 6 23 11 38 11 24 0 28 6 44 63 18 66 17
67 -27 74 -12 2 -20 11 -20 23 0 16 8 21 38 23 l37 3 0 50 c0 42 -3 49 -19 49
-28 0 -39 40 -16 56 10 7 22 15 27 16 16 6 -5 93 -22 93 -8 0 -16 10 -18 23
-2 12 2 22 9 22 24 0 2 80 -31 115 -41 43 -49 40 -134 -42 -25 -25 -46 -84
-46 -132 0 -17 -11 -78 -24 -134 -37 -154 -61 -418 -37 -417 3 1 18 19 34 41
30 44 36 99 12 123 -8 8 -15 30 -15 48 1 30 5 51 26 143 4 17 18 47 31 67 12
21 23 44 23 52 0 17 77 163 90 171 13 8 37 -43 44 -95 l6 -45 -15 48 c-9 26
-19 47 -24 47 -12 0 -101 -334 -101 -378 0 -11 -9 -47 -20 -82 -11 -34 -25
-92 -31 -128 -8 -52 -17 -72 -37 -89 -25 -21 -26 -27 -23 -97 1 -40 -1 -76 -7
-79 -9 -7 -32 78 -32 121 0 15 -4 22 -9 17 -14 -16 -41 -111 -41 -144 0 -17
-4 -31 -8 -31 -9 0 -30 -38 -43 -75 -11 -30 0 93 22 246 10 75 21 192 24 260
7 169 27 519 30 519 16 0 184 66 197 77 10 9 20 38 23 72 11 87 37 115 89 95z
m-3429 -46 c-11 -44 -11 -78 -1 -106 7 -21 5 -23 -11 -18 -32 10 -83 -57 -83
-111 0 -17 8 -33 20 -41 18 -11 21 -9 30 13 5 14 11 25 14 25 2 0 11 3 20 6
11 4 16 1 16 -10 0 -9 3 -16 8 -16 11 0 42 -59 42 -80 0 -10 11 -42 25 -72 14
-29 25 -61 25 -71 0 -10 12 -59 26 -110 24 -85 25 -97 14 -157 -14 -78 -4
-116 35 -126 21 -5 25 -12 25 -45 0 -40 -17 -52 -38 -26 -13 15 -53 159 -86
307 -14 63 -37 165 -51 225 -14 61 -25 118 -25 127 0 46 -43 27 -55 -25 -5
-20 -9 -26 -12 -16 -2 10 -14 17 -28 17 -21 0 -25 -7 -34 -50 -14 -65 -14 -68
8 -68 10 0 24 -7 31 -15 17 -20 -3 -45 -36 -45 -20 0 -24 -5 -24 -32 0 -46 14
-63 48 -60 31 3 58 -19 49 -42 -3 -8 -19 -17 -36 -21 -17 -4 -31 -7 -31 -8 1
-1 7 -27 14 -57 11 -46 16 -55 33 -52 11 1 26 -5 34 -14 11 -14 11 -18 -5 -29
-14 -11 -16 -21 -10 -52 4 -21 14 -48 22 -60 11 -19 18 -21 34 -12 11 6 26 8
34 5 22 -8 17 -44 -8 -57 -13 -6 -24 -13 -26 -14 -2 -2 7 -18 20 -38 13 -19
28 -43 34 -53 10 -16 15 -17 33 -7 44 27 77 -17 33 -44 -15 -9 -29 -18 -30
-19 -2 -1 -1 -11 2 -22 10 -31 59 -79 88 -86 37 -8 65 -40 72 -82 11 -57 63
-79 119 -50 24 13 27 13 27 -2 0 -24 56 -179 74 -208 9 -13 16 -28 16 -34 0
-6 11 -28 25 -50 14 -22 25 -45 25 -51 0 -7 11 -27 25 -45 14 -18 25 -37 25
-43 0 -6 11 -27 25 -47 19 -29 25 -49 25 -93 0 -66 30 -333 39 -343 3 -4 18
-10 34 -13 l27 -7 -1 63 c0 35 -4 99 -7 141 -4 42 -4 74 0 72 5 -3 8 -10 8
-16 0 -9 17 -34 72 -101 50 -61 225 -233 248 -244 33 -16 110 -27 110 -16 0 5
-8 16 -17 25 -10 9 -38 39 -63 68 -25 29 -64 73 -87 98 -23 25 -40 49 -36 55
3 6 2 7 -4 4 -5 -4 -34 21 -64 55 -30 33 -59 66 -64 72 -31 35 -95 115 -95
119 0 3 -18 34 -40 68 -22 35 -51 87 -65 114 -14 28 -39 73 -55 100 -17 28
-33 57 -37 65 -3 8 -16 37 -29 64 -13 28 -24 61 -24 75 0 15 -9 51 -21 81 -29
75 -69 255 -69 310 0 25 -7 83 -15 130 -27 159 -72 484 -81 588 -4 40 -3 72 2
72 5 0 54 -9 109 -19 55 -11 190 -25 300 -31 186 -11 209 -14 325 -50 69 -21
136 -40 150 -43 14 -3 52 -12 85 -22 48 -13 300 -37 313 -29 5 3 -152 54 -168
54 -8 1 -40 12 -70 25 l-55 24 365 0 365 0 -80 -39 c-44 -21 -107 -50 -139
-64 -33 -15 -56 -29 -53 -32 5 -6 65 7 272 57 50 12 111 25 138 30 26 4 73 16
105 27 155 51 191 59 341 72 53 4 166 18 251 29 85 12 161 21 169 21 12 0 13
-33 8 -207 -4 -115 -13 -273 -22 -353 -8 -80 -19 -193 -24 -252 -11 -131 -36
-226 -112 -416 -5 -14 -14 -20 -21 -16 -6 4 -8 3 -5 -3 7 -11 -11 -66 -38
-113 -11 -19 -28 -48 -37 -65 -10 -16 -24 -44 -33 -62 -21 -46 -125 -196 -141
-206 -8 -4 -14 -13 -14 -18 0 -6 -12 -23 -27 -38 -67 -67 -123 -130 -123 -140
0 -6 -4 -11 -10 -11 -8 0 -47 -39 -100 -100 -12 -14 -49 -53 -82 -88 -34 -34
-58 -65 -55 -68 16 -16 80 12 127 57 28 27 53 49 55 49 2 0 42 39 89 88 47 48
95 96 106 107 11 12 20 26 20 33 0 7 4 12 10 12 10 0 84 96 91 119 8 23 -2
-176 -15 -289 -10 -98 -12 -105 -36 -111 -24 -7 -23 -7 6 -8 17 -1 45 4 61 9
29 11 30 13 36 88 4 42 15 145 27 227 11 83 20 176 20 208 0 31 3 57 8 57 4 0
16 17 26 38 29 61 42 86 54 107 22 40 112 234 112 242 0 4 4 14 9 22 7 11 18
8 56 -15 l48 -28 17 22 c10 11 20 39 24 61 4 30 17 50 47 78 23 21 51 56 62
78 l21 40 7 -45 c4 -25 8 -72 8 -105 1 -55 31 -322 46 -412 l7 -38 -26 37
c-14 20 -26 44 -26 53 0 8 -11 33 -25 55 -14 22 -25 43 -25 46 0 15 -34 84
-42 84 -4 0 -8 -42 -8 -93 0 -90 -22 -472 -36 -606 l-6 -65 -18 50 c-10 27
-24 65 -30 84 -7 19 -23 60 -35 90 -13 30 -29 73 -37 94 -7 22 -18 41 -23 43
-10 3 -66 -157 -65 -189 0 -9 -11 -59 -25 -110 -25 -92 -32 -158 -17 -158 4 0
41 10 82 21 41 11 95 24 120 29 25 4 70 16 100 25 30 9 73 20 95 24 22 4 74
18 115 31 191 58 237 73 270 87 19 9 62 24 95 35 33 11 66 25 74 31 7 6 18 12
25 13 32 6 298 143 354 183 17 11 32 21 35 21 3 0 33 19 67 43 35 23 72 49 85
57 12 8 29 22 38 30 8 8 34 28 56 44 48 35 51 56 14 91 -31 28 -135 85 -156
85 -7 0 -36 11 -63 25 -27 14 -55 25 -62 25 -7 0 -35 11 -62 25 -27 14 -56 25
-64 25 -8 0 -43 13 -79 29 -36 16 -68 27 -71 24 -3 -3 -11 -1 -18 5 -11 8
-213 82 -226 82 -3 0 -3 3 1 6 3 3 43 -6 89 -20 46 -14 121 -38 168 -53 47
-14 113 -37 148 -49 34 -13 69 -24 77 -24 9 0 23 -4 33 -9 40 -21 91 -41 106
-41 9 0 45 -13 79 -30 35 -16 69 -30 75 -30 6 0 17 -6 24 -13 7 -7 25 -20 40
-30 16 -10 28 -25 28 -35 0 -9 8 -30 17 -47 22 -40 22 -146 0 -340 -9 -82 -24
-222 -32 -310 -20 -198 -40 -335 -61 -400 -8 -27 -19 -72 -24 -100 -9 -57 -46
-188 -116 -413 -9 -29 -13 -56 -10 -60 9 -8 117 -42 136 -42 9 0 38 -22 65
-48 62 -59 119 -102 137 -102 8 0 24 -7 37 -16 29 -21 158 -84 171 -84 5 0 29
-13 53 -30 25 -16 49 -30 53 -30 10 0 142 -66 204 -102 8 -5 34 -18 57 -29 58
-27 273 -158 299 -180 11 -11 24 -19 28 -19 4 0 20 -12 35 -27 14 -16 42 -42
61 -60 53 -48 90 -89 90 -98 0 -5 7 -15 15 -24 17 -18 59 -79 85 -126 38 -67
105 -193 134 -250 16 -33 32 -62 35 -65 8 -7 71 -134 71 -143 0 -4 -11 -7 -24
-7 -17 0 -30 11 -45 36 -12 19 -21 40 -21 45 0 6 -11 25 -25 43 -14 18 -25 40
-25 48 0 8 -8 26 -18 39 -10 13 -34 56 -53 94 -115 231 -250 398 -398 490 -9
6 -43 28 -76 50 -33 22 -91 56 -130 75 -38 19 -72 37 -75 41 -9 11 -473 239
-487 239 -7 0 -13 4 -13 9 0 5 -19 16 -42 25 -47 19 -78 41 -153 109 -29 26
-61 50 -71 52 -11 3 -44 10 -74 16 -30 6 -60 13 -67 15 -21 5 -27 54 -13 108
7 28 25 92 41 141 28 89 54 185 102 380 15 59 36 200 51 345 14 135 33 308 41
385 17 154 19 255 7 255 -5 0 -19 -11 -32 -25 -12 -13 -27 -22 -31 -19 -5 3
-9 1 -9 -5 0 -8 -124 -101 -136 -101 -3 0 -10 -5 -17 -10 -35 -31 -229 -144
-307 -180 -8 -4 -40 -18 -70 -32 -139 -64 -171 -78 -180 -78 -5 0 -33 -11 -62
-24 -29 -13 -71 -28 -93 -34 -22 -5 -60 -17 -85 -25 -90 -30 -186 -58 -245
-72 -33 -7 -85 -20 -115 -28 -77 -21 -183 -46 -260 -61 -36 -7 -108 -22 -160
-34 -380 -82 -661 -106 -1240 -107 -418 0 -478 6 -629 60 -38 14 -75 25 -82
25 -8 0 -50 11 -94 24 -137 42 -228 68 -270 76 -22 4 -65 17 -95 28 -30 12
-71 24 -90 27 -19 3 -57 13 -84 21 -26 9 -74 22 -105 29 -85 19 -193 50 -411
116 -41 12 -91 26 -110 30 -101 21 -470 194 -602 283 -43 28 -48 35 -48 70 0
53 -19 35 -26 -25 -7 -61 23 -331 52 -466 13 -62 24 -128 24 -146 0 -19 11
-89 25 -157 14 -68 25 -137 25 -154 0 -33 54 -257 66 -277 10 -17 62 -163 83
-234 10 -33 21 -69 24 -80 6 -19 2 -20 -96 -20 l-104 0 -47 -47 c-26 -27 -51
-48 -54 -48 -4 0 -25 -17 -47 -38 -37 -35 -56 -49 -124 -94 -14 -10 -36 -18
-49 -18 -27 0 -181 -51 -250 -82 -120 -55 -212 -103 -212 -111 0 -4 -4 -6 -9
-3 -5 3 -26 -8 -46 -24 -21 -17 -41 -30 -44 -30 -4 0 -22 -14 -41 -30 -48 -41
-53 -46 -77 -59 -12 -6 -25 -20 -28 -31 -3 -11 -12 -20 -20 -20 -7 0 -26 -17
-41 -37 -16 -20 -41 -49 -55 -63 -15 -14 -57 -63 -95 -110 -37 -47 -72 -90
-78 -97 -14 -14 -97 -131 -111 -154 -5 -9 -28 -43 -50 -75 -46 -69 -57 -87
-110 -182 -31 -57 -44 -72 -62 -72 -30 0 -29 22 2 68 14 20 25 43 25 50 0 7
11 25 25 40 14 15 25 34 25 43 0 8 11 26 25 39 14 13 25 28 26 34 0 6 20 38
44 71 24 33 65 90 90 127 25 38 50 68 55 68 5 0 11 8 14 18 3 9 21 33 38 53
18 19 49 55 69 80 86 104 289 289 317 289 5 0 15 7 22 16 14 15 23 21 165 91
141 70 192 93 207 93 8 0 42 11 76 25 34 14 74 25 89 25 28 0 98 42 121 73 7
9 20 17 28 17 8 0 14 4 14 8 0 5 38 41 84 80 84 72 85 72 153 77 78 5 77 1 37
102 -13 34 -24 66 -24 73 0 6 -10 30 -21 53 -12 23 -25 58 -30 77 -29 121 -95
481 -103 565 -2 28 -13 91 -24 140 -24 108 -43 254 -49 386 -7 124 6 153 89
209 33 22 63 40 67 40 4 0 18 11 31 25 13 14 27 25 32 25 5 0 35 17 67 38 32
22 73 47 92 57 98 51 209 104 244 116 22 7 49 19 60 26 11 7 31 13 45 12 19 0
13 -6 -30 -25 -133 -61 -279 -139 -330 -175 -30 -22 -65 -44 -77 -49 -13 -5
-23 -14 -23 -19 0 -5 -8 -12 -18 -15 -10 -4 -27 -14 -38 -24 -11 -10 -32 -27
-47 -37 -22 -14 -27 -23 -23 -41 4 -13 1 -33 -6 -44 -11 -18 -9 -23 17 -45 17
-13 33 -24 38 -25 4 0 24 -11 45 -24 20 -12 48 -27 62 -31 14 -4 37 -16 52
-26 14 -11 30 -19 36 -19 5 0 46 -20 90 -44 75 -42 166 -75 357 -132 44 -13
117 -35 163 -49 46 -14 89 -25 96 -25 7 0 48 -11 92 -24 43 -12 107 -30 141
-38 l62 -16 -5 72 c-3 39 -12 136 -19 216 -8 80 -17 189 -21 243 -4 54 -10 94
-14 90 -11 -13 -73 -189 -94 -269 -8 -30 -10 56 -8 340 l4 381 -26 38 c-14 21
-26 42 -26 48 0 5 -11 27 -25 49 -14 22 -25 44 -25 50 0 6 -4 18 -9 28 -5 9
-16 34 -25 55 -8 20 -21 37 -27 37 -7 0 -9 9 -5 24 3 14 -4 51 -18 89 -21 58
-32 158 -28 242 7 107 16 175 28 202 8 18 21 52 30 75 8 24 24 50 36 59 19 14
20 20 9 49 -17 51 -14 79 12 90 42 17 50 13 42 -22z m196 -189 c43 -11 47 -21
55 -134 3 -44 16 -168 29 -275 36 -296 67 -560 72 -610 l4 -45 -25 50 c-14 28
-25 55 -26 62 0 6 -10 29 -22 50 l-23 38 -5 -105 -5 -105 -13 90 c-7 50 -17
173 -23 275 -7 119 -18 224 -34 295 -12 61 -30 155 -40 210 -9 55 -22 126 -29
157 -8 31 -11 60 -8 63 6 6 20 4 93 -16z m1004 -174 c24 -12 25 -14 5 -8 -14
3 -41 10 -60 14 -34 7 -34 7 -5 7 17 1 44 -5 60 -13z m964 1 c-7 -7 -79 -25
-79 -20 0 7 43 23 64 23 11 1 17 -1 15 -3z m1217 -298 c-2 -21 -11 -45 -20
-53 -14 -15 -15 -12 -10 32 3 26 7 53 9 60 2 7 0 15 -5 18 -6 4 -10 12 -10 18
0 7 10 1 21 -13 14 -18 19 -35 15 -62z m-3360 -49 c-8 -37 -7 -55 2 -69 16
-26 15 -35 -2 -21 -23 20 -29 66 -12 105 8 20 17 36 19 36 2 0 -1 -23 -7 -51z
m3294 -89 c-33 -52 -49 -67 -29 -27 19 37 53 86 58 82 2 -2 -11 -27 -29 -55z
m-40 -64 c0 -2 -8 -10 -17 -17 -16 -13 -17 -12 -4 4 13 16 21 21 21 13z m429
-342 c10 -9 -35 -3 -49 6 -11 8 -7 9 15 4 17 -4 32 -8 34 -10z m-4024 -29
c-38 -14 -77 -25 -85 -24 -20 1 110 47 135 48 11 0 -11 -11 -50 -24z m2793
-1660 c2 -275 -2 -431 -13 -563 -8 -101 -15 -275 -15 -385 0 -166 -5 -230 -25
-360 -14 -87 -25 -180 -25 -205 -1 -26 -6 -76 -13 -111 l-12 -65 -70 3 c-38 1
-72 4 -74 6 -2 3 3 33 10 67 11 50 15 221 17 828 1 421 3 817 5 880 1 63 -2
152 -6 197 -10 96 -17 91 128 89 l90 -1 3 -380z"/>
<path d="M4186 5577 c-3 -12 -6 -41 -6 -63 0 -23 -6 -46 -12 -51 -7 -6 -56
-13 -108 -16 -237 -14 -426 -31 -434 -39 -6 -4 33 -8 86 -8 90 0 291 -13 406
-26 l52 -5 0 -70 0 -69 40 0 40 0 0 64 c0 68 6 76 55 76 26 0 32 -11 41 -80 4
-27 12 -50 18 -50 20 0 34 15 40 40 17 85 14 80 55 80 l38 0 7 -62 c3 -34 8
-64 11 -66 3 -3 16 0 29 6 22 10 25 19 28 69 l3 58 48 3 47 3 0 -70 c0 -61 2
-71 18 -71 34 1 52 25 52 71 0 24 4 49 8 56 8 13 315 43 444 43 57 0 78 3 68
10 -8 5 -46 10 -85 10 -135 0 -400 22 -408 34 -4 6 -6 40 -5 75 2 38 -1 63 -7
63 -5 0 -27 -3 -47 -6 l-38 -6 0 -65 c0 -65 0 -65 -28 -65 -47 0 -65 21 -70
84 l-4 56 -34 0 -34 0 0 -71 0 -70 -37 3 -38 3 -5 70 c-4 63 -7 70 -25 67 -43
-6 -45 -10 -45 -77 l0 -65 -39 0 c-65 0 -69 4 -64 65 5 51 3 54 -25 69 -29 15
-30 14 -36 -7z"/>
<path d="M5385 4785 c-55 -7 -145 -18 -200 -25 -68 -9 -114 -20 -144 -36 -24
-13 -47 -24 -52 -24 -19 0 -120 -93 -138 -127 -10 -19 -9 -23 4 -23 16 0 75
57 75 73 0 5 8 6 17 3 10 -4 14 -4 11 0 -9 8 75 74 94 74 7 0 42 9 78 20 42
14 115 24 211 30 205 13 299 26 299 40 0 13 -131 10 -255 -5z"/>
<path d="M3282 4773 c3 -16 24 -19 208 -24 192 -7 254 -13 354 -40 46 -12 137
-76 179 -126 16 -18 37 -33 47 -33 16 0 17 3 7 25 -7 14 -18 25 -25 25 -7 0
-18 11 -24 25 -6 14 -17 25 -23 25 -7 0 -20 9 -30 20 -9 10 -45 33 -79 49 -67
32 -150 44 -428 61 -202 12 -190 13 -186 -7z"/>
<path d="M5670 4747 c-3 -3 -81 -10 -175 -16 -255 -17 -353 -31 -404 -58 -24
-12 -48 -23 -52 -23 -8 0 -20 -10 -113 -99 -42 -41 -56 -62 -56 -83 l0 -28
269 0 c148 0 282 3 299 6 17 3 52 28 83 59 52 50 99 103 99 110 0 2 14 24 31
49 17 25 29 55 27 67 -2 11 -5 19 -8 16z m-109 -59 c4 -46 -22 -106 -65 -153
l-27 -29 25 55 c15 31 26 72 26 97 0 35 3 42 20 42 11 0 21 -6 21 -12z m59 6
c0 -3 -9 -17 -20 -31 l-20 -26 0 25 c0 14 3 28 7 31 8 9 33 9 33 1z m-180 -21
c-1 -31 -24 -107 -40 -129 -37 -50 -74 -66 -153 -66 -58 -1 -83 4 -108 19 -19
11 -33 26 -31 32 1 7 -1 10 -6 7 -5 -3 -18 12 -30 32 -21 38 -21 38 -1 50 26
16 36 9 44 -31 4 -17 21 -44 38 -59 25 -23 40 -28 84 -28 40 0 58 5 73 20 12
12 26 18 33 14 7 -4 9 -4 5 1 -4 4 -1 17 7 29 9 11 15 43 15 73 l0 53 35 0
c27 0 35 -4 35 -17z m48 -32 c-6 -61 -41 -134 -73 -151 -14 -7 -28 -11 -31 -7
-4 3 5 12 19 18 15 7 24 16 21 20 -2 5 4 26 16 48 11 22 20 58 20 81 0 30 4
40 16 40 14 0 16 -8 12 -49z m-200 1 c3 -25 -2 -33 -25 -46 -24 -12 -33 -12
-61 0 -28 11 -33 18 -30 41 2 19 10 29 23 31 16 3 17 1 8 -8 -16 -18 10 -42
39 -38 18 2 23 9 23 31 -1 37 19 28 23 -11z m57 9 c12 -55 -49 -131 -104 -131
-53 0 -121 64 -121 115 0 27 28 16 35 -15 20 -93 164 -68 167 29 1 39 14 40
23 2z m-305 -86 c0 -8 8 -19 18 -24 9 -6 13 -11 7 -11 -5 0 6 -14 25 -30 34
-28 34 -29 10 -28 -30 2 -80 34 -80 52 0 8 -7 19 -15 26 -13 11 -13 14 2 25
20 15 33 11 33 -10z m-27 -87 c-8 -14 -34 -8 -55 12 -21 19 -21 20 -3 39 17
20 18 20 40 -12 12 -18 20 -35 18 -39z"/>
<path d="M3250 4705 c0 -7 24 -60 30 -65 3 -3 16 -21 28 -41 35 -58 113 -139
152 -157 30 -15 66 -17 265 -15 247 2 337 14 343 46 3 16 -100 127 -119 127
-4 0 -17 9 -27 20 -10 11 -52 32 -93 46 -67 24 -95 27 -289 35 -259 10 -290
10 -290 4z m90 -44 c0 -5 3 -18 6 -28 6 -16 5 -16 -9 2 -19 23 -21 35 -7 35 6
0 10 -4 10 -9z m75 -48 c4 -32 13 -66 21 -77 8 -11 14 -24 14 -29 0 -15 -18 3
-49 50 -37 55 -43 113 -12 113 15 0 20 -10 26 -57z m55 2 c6 -52 45 -125 77
-144 17 -10 16 -10 -3 -11 -40 0 -100 89 -111 165 -5 43 -4 47 13 43 15 -2 20
-14 24 -53z m72 5 c-7 -75 56 -141 137 -142 70 -1 141 56 141 113 0 30 6 34
34 23 32 -12 18 -54 -35 -105 l-50 -49 -83 0 c-75 0 -86 3 -121 29 -40 30 -73
94 -74 144 -1 23 3 27 27 27 26 0 27 -2 24 -40z m55 19 c-8 -29 21 -86 47 -93
72 -19 134 13 128 67 -2 15 1 27 7 27 34 0 21 -68 -21 -110 -24 -25 -38 -30
-76 -30 -38 0 -52 5 -79 32 -27 26 -33 40 -33 73 0 42 5 55 23 55 5 0 7 -9 4
-21z m66 -9 c3 -12 14 -20 25 -20 12 0 23 9 27 20 8 26 45 27 45 1 0 -23 -52
-81 -73 -81 -8 0 -26 9 -41 21 -32 25 -37 79 -7 79 10 0 21 -9 24 -20z m260
-88 c-9 -36 -62 -82 -93 -82 l-25 1 30 27 c17 15 39 44 50 64 14 28 22 35 32
26 8 -6 10 -20 6 -36z m51 -53 c-10 -11 -28 -19 -42 -19 -24 0 -24 1 -8 23 9
12 20 31 23 41 6 18 7 18 25 -4 17 -21 17 -24 2 -41z"/>
<path d="M4644 4583 c-40 -58 -44 -83 -44 -238 l0 -153 78 5 c42 3 77 6 78 7
1 0 4 22 7 48 8 61 -6 75 -83 84 -42 5 -60 11 -60 21 0 8 11 53 24 101 33 118
39 152 28 152 -5 0 -18 -12 -28 -27z"/>
<path d="M4215 4321 c-42 -5 -50 -9 -49 -26 1 -11 2 -40 2 -65 l2 -45 48 0
c26 0 62 -4 80 -8 l33 -9 -3 79 -3 78 -30 1 c-16 1 -52 -1 -80 -5z"/>
<path d="M4595 4058 c-3 -8 -5 -42 -3 -74 l3 -59 76 -3 76 -3 7 63 c3 34 2 66
-2 70 -5 5 -41 12 -80 15 -58 5 -73 3 -77 -9z"/>
<path d="M4160 3991 l0 -68 38 -7 c20 -3 56 -6 78 -6 40 0 42 2 49 36 3 20 3
54 0 75 l-7 39 -79 0 -79 0 0 -69z"/>
<path d="M4594 3801 c-6 -7 -5 -103 2 -128 6 -21 13 -23 65 -23 32 0 69 4 83
9 21 9 24 15 21 48 -2 21 -3 50 -4 65 -1 26 -2 27 -82 30 -44 2 -83 1 -85 -1z"/>
<path d="M4200 3793 c-34 -7 -36 -11 -32 -82 l4 -61 79 0 79 0 0 75 0 75 -52
-1 c-29 -1 -64 -4 -78 -6z"/>
<path d="M4304 3488 c-9 -14 24 -38 52 -38 26 0 40 15 24 25 -25 16 -70 23
-76 13z"/>
<path d="M4563 3488 c-38 -12 -42 -24 -12 -33 24 -8 89 2 89 13 0 12 -23 32
-34 31 -6 -1 -26 -6 -43 -11z"/>
<path d="M3135 3378 c-27 -83 -71 -408 -58 -430 2 -5 12 -8 21 -8 9 0 45 -10
79 -22 34 -12 64 -20 67 -17 3 3 -1 32 -9 64 -8 33 -14 76 -15 95 0 32 -30
202 -52 293 -9 37 -25 49 -33 25z"/>
<path d="M4152 3165 c-56 -12 -106 -25 -109 -28 -16 -16 36 -17 121 -3 66 11
158 16 315 16 198 0 228 -2 283 -21 58 -19 108 -19 108 0 0 5 -36 21 -81 35
-77 25 -89 26 -307 25 -198 -1 -240 -4 -330 -24z"/>
<path d="M4173 3034 c-7 -19 59 -174 79 -185 17 -9 18 -4 18 85 l0 95 163 -5
c224 -7 206 1 209 -91 2 -43 8 -78 14 -80 6 -2 21 29 35 69 13 40 30 79 38 86
10 8 11 16 5 22 -14 14 -555 18 -561 4z"/>
</g>
</svg>
