<?xml version="1.0" encoding="UTF-8"?>
<svg data-name="Layer 1" viewBox="0 0 784.95 502.03" xmlns="http://www.w3.org/2000/svg">
<path transform="translate(-208.03 -198.4)" d="m243.86 618.51c3.3177-26.678 19.851-52.964 45.294-61.646a123.86 123.86 0 0 0 0.00613 85.04c3.9096 10.575 9.3591 21.93 5.6816 32.589-2.2881 6.6319-7.8856 11.706-14.142 14.878-6.2573 3.1726-13.202 4.6848-20.059 6.1666l-1.3496 1.1162c-10.886-24.581-18.749-51.467-15.431-78.145z" fill="#f0f0f0"/>
<path transform="translate(-208.03 -198.4)" d="m289.4 557.37a105.87 105.87 0 0 0-26.319 59.583 45.591 45.591 0 0 0 0.5186 14.275 26.149 26.149 0 0 0 6.5035 12.128c2.9313 3.2206 6.3026 6.1754 8.3999 10.052a16.011 16.011 0 0 1 0.78221 13.071c-1.8517 5.3111-5.5014 9.6401-9.2176 13.749-4.1261 4.5627-8.4841 9.2365-10.238 15.285-0.21251 0.7329-1.3373 0.3603-1.1251-0.3715 3.0515-10.524 13.268-16.502 18.14-25.981 2.2734-4.423 3.2276-9.5579 1.0963-14.227-1.8637-4.0828-5.3376-7.1328-8.3337-10.368a27.902 27.902 0 0 1-6.8008-11.622 42.148 42.148 0 0 1-1.0655-14.203 102.71 102.71 0 0 1 7.5015-31.213 107.75 107.75 0 0 1 19.374-31.048c0.5066-0.56729 1.2873 0.32505 0.784 0.88864z" fill="#fff"/>
<path transform="translate(-208.03 -198.4)" d="m263.4 609.78a15.884 15.884 0 0 1-12.091-16.639c0.06037-0.76 1.2441-0.70184 1.1837 0.05912a14.708 14.708 0 0 0 11.279 15.455c0.74175 0.17635 0.366 1.3005-0.37149 1.1251z" fill="#fff"/>
<path transform="translate(-208.03 -198.4)" d="m268.41 641.92a30.615 30.615 0 0 0 13.671-17.632c0.2151-0.73213 1.34-0.35975 1.1251 0.37149a31.844 31.844 0 0 1-14.264 18.319c-0.657 0.38974-1.1863-0.67064-0.53289-1.0583z" fill="#fff"/>
<path transform="translate(-208.03 -198.4)" d="M274.98494,577.274a8.991,8.991,0,0,0,8.52044-.43252c.65176-.39787,1.18041.663.5329,1.05826a10.07518,10.07518,0,0,1-9.42484.49938.61234.61234,0,0,1-.37681-.7483.59543.59543,0,0,1,.74831-.37682Z" fill="#fff"/>
<path transform="translate(-208.03 -198.4)" d="m366.7 604.52c-0.39991 0.26-0.79981 0.52-1.2002 0.79a118.41 118.41 0 0 0-15.14 11.82c-0.37011 0.33-0.74023 0.67005-1.1001 1.01a124.83 124.83 0 0 0-27.11 37.11 121.22 121.22 0 0 0-6.6401 17.18c-2.4502 8.13-4.46 17.14-9.3101 23.79a20.796 20.796 0 0 1-1.6201 2h-43.83c-0.09961-0.05-0.19971-0.09-0.2998-0.14l-1.75 0.08c0.07031-0.31 0.1499-0.63 0.22021-0.94 0.04-0.18 0.08985-0.36 0.12988-0.54 0.02979-0.12 0.06006-0.24 0.08008-0.35 0.00977-0.04 0.02-0.08 0.02979-0.11 0.02-0.11 0.05029-0.21 0.07031-0.31q0.65991-2.685 1.3599-5.37c0-0.01 0-0.01 0.00977-0.02 3.5903-13.63 8.3501-27.08 15-39.38 0.20019-0.37 0.3999-0.75 0.62012-1.12a115.67 115.67 0 0 1 10.39-15.76 102.26 102.26 0 0 1 6.8101-7.79 85.037 85.037 0 0 1 21.28-15.94c15.72-8.3 33.92-11.48 50.72-6.41 0.42969 0.13004 0.8501 0.25998 1.2798 0.4z" fill="#f0f0f0"/>
<path transform="translate(-208.03 -198.4)" d="m366.61 605.07a105.87 105.87 0 0 0-56.888 31.728 45.591 45.591 0 0 0-8.1806 11.71 26.149 26.149 0 0 0-2.1094 13.599c0.40144 4.3363 1.3142 8.7253 0.65458 13.084a16.011 16.011 0 0 1-7.2449 10.907c-4.6762 3.1257-10.197 4.3848-15.638 5.4286-6.0415 1.1588-12.335 2.2668-17.377 6.0405-0.61094 0.45724-1.2847-0.51747-0.67468-0.974 8.7726-6.5656 20.529-5.1878 30.126-9.8229 4.4781-2.1628 8.3316-5.6882 9.4409-10.699 0.97007-4.3819 0.03268-8.9088-0.41173-13.296a27.902 27.902 0 0 1 1.5671-13.374 42.148 42.148 0 0 1 7.7002-11.981 102.71 102.71 0 0 1 24.782-20.406 107.75 107.75 0 0 1 34.163-13.126c0.746-0.14794 0.83213 1.0346 0.091 1.1816z" fill="#fff"/>
<path transform="translate(-208.03 -198.4)" d="m314.29 631.27a15.884 15.884 0 0 1 0.364-20.565c0.50575-0.57044 1.4159 0.18867 0.90951 0.75986a14.708 14.708 0 0 0-0.29949 19.13c0.48607 0.58739-0.49073 1.2587-0.974 0.67468z" fill="#fff"/>
<path transform="translate(-208.03 -198.4)" d="m298.94 659.94a30.615 30.615 0 0 0 21.531-5.847c0.61254-0.45506 1.2865 0.5195 0.67469 0.974a31.844 31.844 0 0 1-22.418 6.0388c-0.75924-0.08439-0.54345-1.2497 0.21167-1.1658z" fill="#fff"/>
<path transform="translate(-208.03 -198.4)" d="M343.11021,612.28348a8.991,8.991,0,0,0,7.06351,4.78455c.75993.07472.54332,1.24-.21167,1.1658a10.07516,10.07516,0,0,1-7.82586-5.27567.61233.61233,0,0,1,.14967-.82435.59542.59542,0,0,1,.82435.14967Z" fill="#fff"/>
<polygon points="395.02 487.71 406.64 483.8 397.09 437.12 379.94 442.89" fill="#ffb6b6"/>
<path transform="translate(-208.03 -198.4)" d="m598.81 683.32 3.2707-1.1004 11.022-9.4885 8.5906 2.8899 9.3e-4 -3.1e-4a15.387 15.387 0 0 1 19.489 9.6775l0.15942 0.47391-37.467 12.605z" fill="#2f2e41"/>
<polygon points="338.64 480.03 350.58 482.85 367.14 438.18 349.53 434.01" fill="#ffb6b6"/>
<path transform="translate(-208.03 -198.4)" d="m544.55 673.82 3.3582 0.79413 14.372-2.2309 5.7661 6.993 9.5e-4 2.3e-4a15.387 15.387 0 0 1 11.432 18.515l-0.11509 0.48658-38.47-9.0973z" fill="#2f2e41"/>
<rect transform="translate(703.17 1110.6) rotate(180)" x="445.08" y="637.04" width="21.047" height="34.878" fill="#cacaca"/>
<rect transform="translate(-551.85 502.04) rotate(-55.841)" x="486.57" y="644.1" width="4.811" height="61.045" fill="#cacaca"/>
<rect transform="translate(-513.99 155.06) rotate(-34.16)" x="391.7" y="672.22" width="61.045" height="4.811" fill="#cacaca"/>
<circle cx="306.2" cy="493.36" r="6.6148" fill="#cacaca"/>
<circle cx="247.27" cy="493.36" r="6.6148" fill="#cacaca"/>
<circle cx="188.94" cy="493.36" r="6.6148" fill="#cacaca"/>
<rect x="244.87" y="459.08" width="4.8108" height="34.277" fill="#cacaca"/>
<rect transform="translate(703.17 1060.6) rotate(180)" x="451.09" y="606.37" width="9.0202" height="46.304" fill="#cacaca"/>
<path transform="translate(-208.03 -198.4)" d="m409.74 613.59v-10.824a7.5253 7.5253 0 0 1 7.5168-7.5168h70.29a7.5253 7.5253 0 0 1 7.5168 7.5168v10.824a7.5253 7.5253 0 0 1-7.5168 7.5168h-70.29a7.5253 7.5253 0 0 1-7.5168-7.5168z" fill="#3f3d56"/>
<path transform="translate(-208.03 -198.4)" d="m367.33 593.63-45.38-78.027a11.107 11.107 0 0 1 4.0125-15.168l2.6524-1.5426a11.107 11.107 0 0 1 15.168 4.0125l45.38 78.027a11.107 11.107 0 0 1-4.0125 15.168l-2.6524 1.5426a11.107 11.107 0 0 1-15.168-4.0125z" fill="#3f3d56"/>
<path transform="translate(-208.03 -198.4)" d="m410.04 613.22a37.042 37.042 0 0 1-37-37h4a33.004 33.004 0 0 0 52.007 26.98l2.3066 3.2676a36.762 36.762 0 0 1-21.314 6.7524z" fill="#3f3d56"/>
<path transform="translate(-208.03 -198.4)" d="m452.04 557.22s112-34 129 8 33 90 33 90l-22 7-43-72s-103.65 26-125.32-4.5z" fill="#2f2e41"/>
<path transform="translate(-208.03 -198.4)" d="m371.04 472.22-26-2-5 32s32 83 87 91l52-47-57.591-21.457z" fill="#6c63ff"/>
<circle transform="translate(-359.72 3.702) rotate(-26.53)" cx="352.81" cy="422.78" r="33.995" fill="#ffb8b8"/>
<path transform="translate(-208.03 -198.4)" d="m362.25 457.99c-1.5696 1.3127-3.9343 2.0046-7.1687 2.1049a43.513 43.513 0 0 1-42.911-30.63c-1.4165-4.5786-2.6162-11.409-0.288-17.946 1.6743-4.6988 4.9615-8.6397 7.9113-11.965 2.5534-2.879 5.218-5.6995 7.9209-8.3815 3.2288-3.2058 7.0778-6.7661 11.906-8.4383 3.5376-1.2247 7.3291-1.3339 10.996-1.4394 1.2776-0.03728 2.5995-0.07476 3.8835-0.16068a22.696 22.696 0 0 0 9.1984-2.2939 4.6711 4.6711 0 0 1 3.8674-0.24911 4.7535 4.7535 0 0 1 2.7764 2.7995c0.46361 1.2545 0.88117 2.3859 2.2998 2.8035a3.2396 3.2396 0 0 0 2.9604-0.67832 1.677 1.677 0 0 1 1.563-0.34218 1.7095 1.7095 0 0 1 1.1623 1.1005l0.11646 0.34436a2.1809 2.1809 0 0 1 2.0144-0.24232 2.2348 2.2348 0 0 1 1.4603 2.3866 22.404 22.404 0 0 1-4.7091 11.387 21.821 21.821 0 0 1-6.532 5.4375l-0.40247 0.222-0.27826-0.4191c-11.297 4.1741-14.747 16.011-14.19 25.777l-0.9883 0.13273a2.4192 2.4192 0 0 0-1.1345-1.5235 2.9407 2.9407 0 0 0-2.2203-0.38627 3.8079 3.8079 0 0 0-2.6484 3.2932 5.6516 5.6516 0 0 0 1.5611 4.2819 15.339 15.339 0 0 0 4.043 2.8835c0.67787 0.38279 1.3793 0.77894 2.0437 1.2137a18.311 18.311 0 0 1 7.6205 10.62c0.51575 1.9939 0.81181 4.8386-0.70643 7.067a6.0716 6.0716 0 0 1-1.1278 1.2411z" fill="#2f2e41"/>
<path transform="translate(-208.03 -198.4)" d="m585.46 578.1c-5.2326 45.007-16.424 87.121-16.424 87.121l-21-3 4.783-84.872" fill="#2f2e41"/>
<path transform="translate(-208.03 -198.4)" d="m378.39 428.24a4.7093 4.7093 0 0 1-4.4939-3.313c-13.645-7.111-6.4311-12.126-5.4914-17.771a4.6992 4.6992 0 0 1 3.1026-5.8774l13.949-4.311a4.7045 4.7045 0 0 1 5.8784 3.103l5.4917 17.771a4.7051 4.7051 0 0 1-3.1028 5.8774l-13.949 4.311a4.6882 4.6882 0 0 1-1.3846 0.20994z" fill="#3f3d56"/>
<path transform="translate(-208.03 -198.4)" d="m387.5 396.35a4.7251 4.7251 0 0 1 4.5482 3.3313l5.7853 18.17a4.9173 4.9173 0 0 1-0.27433 3.6851 4.7015 4.7015 0 0 1-2.7304 2.4035l-3.1365 1.0522-8.7092-27.352 3.136-1.0522a4.5723 4.5723 0 0 1 1.3809-0.23805z" fill="#6c63ff"/>
<path transform="translate(-208.03 -198.4)" d="m315.4 438.36a3.0437 3.0437 0 0 1-2.9055-2.1421l-1.4531-4.7022a3.039 3.039 0 0 1 2.0066-3.8008l62.982-19.463a3.039 3.039 0 0 1 3.8015 2.0068l1.4529 4.7017a3.0424 3.0424 0 0 1-2.0063 3.8008l-62.983 19.463a3.0225 3.0225 0 0 1-0.89575 0.13574z" fill="#3f3d56"/>
<path transform="translate(-208.03 -198.4)" d="m486.73 585.57h-9.3846a4.716 4.716 0 0 1-4.7076-4.4527l-1.592-28.274a4.7128 4.7128 0 0 1 4.7076-4.9795h12.569a4.7128 4.7128 0 0 1 4.7076 4.9797l-1.5921 28.274a4.716 4.716 0 0 1-4.7076 4.4527z" fill="#e4e4e4"/>
<polygon points="284.65 356 284.53 358.1 263.49 358.1 263.37 356" fill="#cacaca"/>
<polygon points="284.38 360.71 284.27 362.81 263.75 362.81 263.64 360.71" fill="#cacaca"/>
<polygon points="284.12 365.43 284 367.52 264.02 367.52 263.9 365.43" fill="#cacaca"/>
<polygon points="283.86 370.14 283.74 372.24 264.29 372.24 264.16 370.14" fill="#cacaca"/>
<polygon points="283.59 374.85 283.47 376.95 264.55 376.95 264.43 374.85" fill="#cacaca"/>
<polygon points="283.33 379.57 283.21 381.66 264.82 381.66 264.69 379.57" fill="#cacaca"/>
<ellipse cx="274.27" cy="350.5" rx="3.404" ry=".78554" fill="#cacaca"/>
<path transform="translate(-208.03 -198.4)" d="M482.55733,549.69226a.78551.78551,0,0,1-.78554-.78555v-14.878h-4.971a.78555.78555,0,0,1,0-1.57109h5.75656a.7855.7855,0,0,1,.78555.78555v15.66355A.78551.78551,0,0,1,482.55733,549.69226Z" fill="#cacaca"/>
<path transform="translate(-208.03 -198.4)" d="m479.87 562.58a10.056 10.056 0 0 0-15.151 2.8643l-35.181-6.2671 7.3458 17.055 32.282 3.3366a10.11 10.11 0 0 0 10.704-16.989z" fill="#ffb6b6"/>
<path transform="translate(-208.03 -198.4)" d="m457 579.76-64.477-5.0688-0.12866-0.24365c-0.24634-0.46582-24.676-46.744-28.271-57.362a29.681 29.681 0 0 1 0.04883-19.741l0.06519-0.1543 0.14526-0.084a15.062 15.062 0 0 1 18.611 2.9185 106.69 106.69 0 0 1 23.588 42.881l2.5115 9.0635 46.13 10.333z" fill="#6c63ff"/>
<path transform="translate(-208.03 -198.4)" d="m704.8 241.48 287.18-41.917v274.98l-287.18-41.916z" fill="#f2f2f2" data-name="Rectangle 1"/>
<path transform="translate(-208.03 -198.4)" d="m992.97 475.7-289.18-42.207v-192.88l289.18-42.209zm-287.18-43.937 285.18 41.624v-272.67l-285.18 41.625z" fill="#3f3d56"/>
<path transform="translate(-208.03 -198.4)" d="m840.55 296.36c-0.427-0.972-0.874-1.959-1.352-2.909a24.993 24.993 0 0 0-1.543-2.688 11.933 11.933 0 0 0-1.808-2.161 6.2601 6.2601 0 0 0-2.146-1.332 5.1501 5.1501 0 0 0-2.707-0.18 8.4652 8.4652 0 0 0-2.664 1.059 18.046 18.046 0 0 0-2.56 1.867c-0.829 0.708-1.631 1.481-2.4 2.247q-3.426 3.424-6.749 6.939-3.3 3.494-6.506 7.076-3.181 3.561-6.266 7.208-3.067 3.627-6.036 7.338l9e-3 0.146 4.639-0.576 9.456-1.173 4.816-0.6c1.169-0.145 2.352-0.295 3.535-0.49a33.227 33.227 0 0 0 3.545-0.761 21.179 21.179 0 0 0 3.474-1.29 17.5 17.5 0 0 0 3.316-2.067c0.406-0.322 0.81-0.669 1.216-1.013s0.816-0.684 1.232-0.989a7.8667 7.8667 0 0 1 1.277-0.782 4.0733 4.0733 0 0 1 1.351-0.391 3.6001 3.6001 0 0 1 1.682 0.256 5.9121 5.9121 0 0 1 1.564 0.958 11.361 11.361 0 0 1 1.432 1.444 21.026 21.026 0 0 1 1.286 1.712 67.406 67.406 0 0 1 6.152 11.76c1.8 4.262 3.4 8.755 5.053 13.211 1.657 4.475 3.358 8.913 5.344 13.053a51.845 51.845 0 0 0 7.1 11.332q-2.674-9.087-5.58-17.943-2.891-8.811-6-17.374-3.099-8.516-6.399-16.765-3.284-8.2-6.765-16.122z" fill="#fff" data-name="Path 1"/>
<path transform="translate(-208.03 -198.4)" d="M777.95918,297.98448l-.071.082-.071.082-.071.081-.071.081q-.261.215-.52.436t-.516.445q-.257.225-.512.452l-.509.456q-.477.429-.95.865t-.941.88q-.468.444-.932.9t-.924.911q-.914.913-1.811,1.855t-1.774,1.907q-.877.968-1.737,1.966t-1.7,2.022q-.436.531-.866,1.07t-.855,1.084q-.425.545-.844,1.1t-.835,1.107l-.06-.1-.059-.1-.058-.1-.053-.114-.014-.026-.014-.026-.013-.026-.013-.027a17.94246,17.94246,0,0,1-1.386-3.6,22.065,22.065,0,0,1-.683-4,23.909,23.909,0,0,1,.034-4.162,22.7648,22.7648,0,0,1,.771-4.1,19.07361,19.07361,0,0,1,1.456-3.662,14.30056,14.30056,0,0,1,2-2.9,10.01733,10.01733,0,0,1,2.421-1.99,7.26511,7.26511,0,0,1,2.72-.934,6.51117,6.51117,0,0,1,2.77.251,7.82807,7.82807,0,0,1,2.561,1.4,11.07413,11.07413,0,0,1,2.207,2.439,15.74209,15.74209,0,0,1,1.706,3.375l.008.021.008.022.008.022.007.021.048.133.047.134.046.135Z" fill="#6c63ff" data-name="Path 2"/>
<path transform="translate(-208.03 -198.4)" d="M778.95719,388.37448q1.589.178,3.184.438t3.2.6q1.609.344,3.222.771t3.238.94a80.149,80.149,0,0,1,9.777,3.838,92.04963,92.04963,0,0,1,9.754,5.325,106.65134,106.65134,0,0,1,9.653,6.825,123.65562,123.65562,0,0,1,9.46,8.329q1.554,1.511,3.083,3.1t3.039,3.262q1.51,1.673,2.991,3.422t2.939,3.58l.357.45.356.453.355.455.354.457a.29.29,0,0,0,.239.133.286.286,0,0,0,.208-.119.458.458,0,0,0,.094-.266.479.479,0,0,0-.1-.31q-1.45-1.878-2.933-3.682t-2.992-3.522q-1.5-1.72-3.037-3.365t-3.084-3.2q-1.549-1.556-3.121-3.034t-3.155-2.87q-1.583-1.392-3.186-2.7t-3.213-2.537q-1.613-1.228-3.239-2.375t-3.256-2.211q-1.629-1.06-3.269-2.039t-3.278-1.875q-1.636-.891-3.279-1.7t-3.279-1.53q-1.634-.723-3.277-1.362t-3.272-1.194q-1.628-.553-3.254-1.023t-3.24-.854q-1.614-.384-3.224-.686t-3.205-.521l-.4-.054-.4-.051-.408-.048-.402-.045a.179.179,0,0,0-.1.028.26789.26789,0,0,0-.08.081.42285.42285,0,0,0-.052.121.56833.56833,0,0,0-.02.152.59906.59906,0,0,0,.02.15.49275.49275,0,0,0,.053.129.32781.32781,0,0,0,.08.092.19988.19988,0,0,0,.1.042Z" fill="#fff" data-name="Path 3"/>
<path transform="translate(-208.03 -198.4)" d="M777.95818,363.19548q2.839.405,5.708.825t5.8.89q2.928.471,5.883,1,2.971.54,5.967,1.168,3.02.6,6.059,1.363,3.055.763,6.127,1.684,3.088.926,6.19,2.012,3.116,1.101,6.244,2.358,2.781,1.121,5.55,2.445t5.544,2.855q2.775,1.54,5.526,3.283t5.5,3.705q2.57,1.841,5.083,3.9t4.979,4.35q2.466,2.291,4.858,4.793t4.718,5.228q2.3,2.691,4.46,5.613t4.2,6.08q2.031,3.158,3.906,6.52t3.589,6.931q.213.45.423.9t.417.909q.207.456.411.915t.4.921a.4.4,0,0,0,.222.235.27805.27805,0,0,0,.247-.035.4.4,0,0,0,.161-.233.548.548,0,0,0-.037-.359q-1.621-3.684-3.427-7.188t-3.778-6.778q-1.964-3.283-4.089-6.355t-4.379-5.891q-2.271-2.838-4.636-5.47t-4.794-5.031q-2.429-2.4-4.933-4.583t-5.049-4.127q-2.654-2.026-5.346-3.853t-5.388-3.436q-2.7-1.611-5.417-3.021t-5.434-2.607q-3.144-1.372-6.282-2.568-3.12-1.19-6.231-2.2-3.102-1.015-6.178-1.853-3.064-.834-6.113-1.5-3.054-.7-6.083-1.287-3.012-.588-6-1.091-2.969-.5-5.91-.948-2.918-.443-5.818-.854l-.715-.1-.713-.1-.712-.105-.71-.1a.181.181,0,0,0-.188.1.522.522,0,0,0-.062.261.63008.63008,0,0,0,.063.282A.257.257,0,0,0,777.95818,363.19548Z" fill="#fff" data-name="Path 4"/>
<path transform="translate(-208.03 -198.4)" d="M904.30418,425.05648q-.46-.8-.917-1.607t-.912-1.607q-.455-.8-.907-1.606t-.9-1.606q-3.653-6.527-7.156-13.074-3.484-6.511-6.823-13.047-3.322-6.5-6.5-13.031-3.166-6.5-6.2-13.026-2.051-4.416-4.037-8.843t-3.9-8.838q-1.912-4.412-3.762-8.837t-3.63-8.838q-.848-2.1-1.682-4.2t-1.652-4.2q-.818-2.1-1.622-4.2t-1.593-4.2q-.612-1.628-1.216-3.258t-1.2-3.259q-.595-1.629-1.181-3.259t-1.164-3.26q-.165-.466-.328-.932t-.324-.933q-.161-.467-.321-.934l-.319-.935q-.375-1.1-.748-2.2t-.748-2.194q-.375-1.094-.757-2.181t-.774-2.162c-.3-.816-.612-1.641-.95-2.452s-.7-1.606-1.089-2.365a19.10552,19.10552,0,0,0-1.271-2.14,11.69105,11.69105,0,0,0-1.5-1.78,6.12277,6.12277,0,0,0-.772-.657,5.33434,5.33434,0,0,0-.83-.488,4.812,4.812,0,0,0-.874-.313,4.55519,4.55519,0,0,0-.905-.133,4.3149,4.3149,0,0,0-1.283.18,6.35863,6.35863,0,0,0-1.232.516,11.05758,11.05758,0,0,0-1.185.75c-.388.277-.768.577-1.142.881q-4.095,3.365-8,7.012-3.873,3.621-7.55,7.512-3.653,3.864-7.107,7.985-3.433,4.094-6.666,8.434-3.219,4.3-6.23,8.806-2.994,4.484-5.781,9.17-2.772,4.661-5.337,9.515-2.545,4.823-4.885,9.835a.268.268,0,0,1-.178.169.22.22,0,0,1-.191-.062.40009.40009,0,0,1-.119-.217.47709.47709,0,0,1,.038-.3q.284-.609.571-1.216t.579-1.207q.291-.6.584-1.206t.591-1.2q3.707-7.474,7.883-14.513,4.2-7.087,8.875-13.707,4.706-6.67,9.876-12.839,5.215-6.219,10.892-11.9.96-.959,1.933-1.9t1.961-1.869q.988-.927,1.989-1.837t2.016-1.805q.512-.451,1.027-.9t1.034-.892q.519-.444,1.042-.88t1.052-.862a10.64031,10.64031,0,0,1,1.045-.842,9.43178,9.43178,0,0,1,1.1-.666,8.48832,8.48832,0,0,1,1.141-.488,7.79054,7.79054,0,0,1,1.173-.3,5.018,5.018,0,0,1,3.629,1.118,11.8158,11.8158,0,0,1,2.829,3.428,33.022,33.022,0,0,1,2.177,4.632c.635,1.622,1.186,3.255,1.682,4.714q.234.689.469,1.377t.473,1.377q.237.688.476,1.376t.48,1.375q.91,2.612,1.841,5.22t1.885,5.218q.954,2.611,1.929,5.218t1.974,5.217q.617,1.612,1.241,3.221t1.258,3.222q.634,1.612,1.276,3.222t1.289,3.219q2.03,5.027,4.139,10.036,2.116,5.027,4.312,10.038,2.2,5.03,4.489,10.046,2.294,5.035,4.672,10.058,3.164,6.684,6.473,13.338,3.327,6.69,6.8,13.354,3.5,6.7,7.149,13.382,3.674,6.719,7.509,13.421a.62594.62594,0,0,1,.08.375.56994.56994,0,0,1-.121.3.28.28,0,0,1-.227.116A.312.312,0,0,1,904.30418,425.05648Z" fill="#fff" data-name="Path 5"/>
<path transform="translate(-208.03 -198.4)" d="M800.19218,307.61848l-.216-.349-.216-.349-.216-.349-.217-.349c-.572-.915-1.153-1.825-1.751-2.706s-1.214-1.737-1.855-2.531a22.90084,22.90084,0,0,0-2-2.212,14.36256,14.36256,0,0,0-2.2-1.751,8.91748,8.91748,0,0,0-1.122-.632,8.0595,8.0595,0,0,0-1.158-.44,7.53184,7.53184,0,0,0-1.184-.247,7.32487,7.32487,0,0,0-1.2-.051,9.04114,9.04114,0,0,0-1.234.208,9.584,9.584,0,0,0-1.213.379,10.41731,10.41731,0,0,0-1.185.546,11.52622,11.52622,0,0,0-1.149.709q-.268.177-.533.365t-.527.383q-.262.2-.521.4t-.516.413q-.293.24-.584.487t-.579.5q-.288.251-.575.505l-.571.509q-.535.479-1.065.966t-1.055.983q-.525.5-1.045,1t-1.035,1.016q-1.024,1.018-2.028,2.069t-1.985,2.13q-.981,1.079-1.943,2.191t-1.9,2.252q-.487.592-.968,1.191t-.956,1.206q-.475.607-.943,1.222t-.931,1.237q-.43.578-.855,1.162t-.844,1.175q-.419.59-.833,1.187t-.823,1.2a.2.2,0,0,1-.185.108.244.244,0,0,1-.163-.121.5.5,0,0,1-.074-.251.457.457,0,0,1,.077-.277l.216-.323.217-.318.218-.317.218-.315q.308-.444.619-.884t.625-.878q.314-.437.632-.871t.638-.864q.584-.787,1.178-1.56t1.2-1.536q.6-.757,1.212-1.507t1.236-1.487q.969-1.149,1.959-2.265t2-2.2q1.014-1.087,2.048-2.14t2.094-2.077q.529-.511,1.063-1.013t1.074-1q.54-.494,1.084-.979t1.095-.962l.333-.286q.167-.142.336-.282t.338-.278q.17-.138.34-.272.387-.318.782-.613t.8-.566q.4-.272.813-.519t.827-.471a9.15087,9.15087,0,0,1,1.2-.549,8.33138,8.33138,0,0,1,1.228-.353,7.8449,7.8449,0,0,1,1.244-.155,7.69913,7.69913,0,0,1,1.25.048,8.8079,8.8079,0,0,1,1.2.281,9.37675,9.37675,0,0,1,1.17.451,10.22762,10.22762,0,0,1,1.136.618,11.38173,11.38173,0,0,1,1.094.783,17.87074,17.87074,0,0,1,2.162,2.029,29.4112,29.4112,0,0,1,1.975,2.434c.634.864,1.245,1.771,1.844,2.7s1.186,1.875,1.77,2.818a.51991.51991,0,0,1,.072.309.58691.58691,0,0,1-.09.277.269.269,0,0,1-.178.133A.206.206,0,0,1,800.19218,307.61848Z" fill="#fff" data-name="Path 6"/>
<path transform="translate(-208.03 -198.4)" d="M869.38518,347.45748l8.934-4.322,4.509-2.181q.55-.293,1.105-.567t1.119-.531q.563-.257,1.133-.494t1.144-.457a5.63511,5.63511,0,0,1,1.02-.28,5.43594,5.43594,0,0,1,2.074.039,5.78,5.78,0,0,1,1.021.32,8.53423,8.53423,0,0,1,.88.5,9.24217,9.24217,0,0,1,.837.613,10.09782,10.09782,0,0,1,.788.722,10.99488,10.99488,0,0,1,.733.825q.359.438.706.893t.682.927q.335.472.656.961t.63.994q.383.608.765,1.22t.762,1.227l.761,1.231.763,1.233q1.578,2.549,3.158,5.116t3.172,5.165q1.591,2.6,3.185,5.214t3.2,5.263q1.6,2.647,3.212,5.313t3.225,5.363q1.618,2.7,3.238,5.414t3.251,5.465q1.635,2.755,3.272,5.53t3.285,5.581q1.648,2.807,3.3,5.633t3.312,5.686l.407.7.407.7.407.7.407.7a.44694.44694,0,0,0,.274.225.372.372,0,0,0,.289-.049.4.4,0,0,0,.175-.245.487.487,0,0,0-.066-.362q-1.678-2.893-3.353-5.766t-3.34-5.713q-1.664-2.839-3.326-5.659t-3.313-5.6q-1.655-2.793-3.307-5.568t-3.293-5.514q-1.641-2.741-3.28-5.463t-3.27-5.411q-1.628-2.689-3.253-5.36t-3.239-5.309q-1.614-2.638-3.226-5.258t-3.212-5.207l-.8-1.289-.8-1.286-.8-1.283-.8-1.28q-.335-.539-.67-1.079t-.675-1.071q-.341-.531-.69-1.05t-.715-1.018a20.41149,20.41149,0,0,0-1.423-1.749,12.43593,12.43593,0,0,0-1.584-1.469,7.60859,7.60859,0,0,0-1.732-1.021,5.32893,5.32893,0,0,0-1.9-.406,9.65866,9.65866,0,0,0-1.15.122,9.865,9.865,0,0,0-1.132.258,10.23244,10.23244,0,0,0-1.106.392,10.7975,10.7975,0,0,0-1.074.524l-1.149.554-1.145.555-1.141.555-1.134.553-9.046,4.385-2.23,1.082a.389.389,0,0,0-.2.243.68511.68511,0,0,0-.015.333.46808.46808,0,0,0,.134.261A.216.216,0,0,0,869.38518,347.45748Z" fill="#fff" data-name="Path 7"/>
<path transform="translate(-208.03 -198.4)" d="m779.84 293.28-0.417 0.5a15.649 15.649 0 0 0-2.992-4.15 10.234 10.234 0 0 0-3.619-2.327 8.0411 8.0411 0 0 0-3.921-0.41 9.2511 9.2511 0 0 0-3.911 1.588 13.864 13.864 0 0 0-3.39 3.417 20.64 20.64 0 0 0-2.472 4.734 26.725 26.725 0 0 0-1.414 5.631 29.235 29.235 0 0 0-0.209 6.128 27.669 27.669 0 0 0 0.378 3.04 25.262 25.262 0 0 0 0.694 2.871 22.051 22.051 0 0 0 0.994 2.645 18.468 18.468 0 0 0 1.277 2.363l-0.353 0.552a19.243 19.243 0 0 1-1.329-2.461 22.966 22.966 0 0 1-1.035-2.753 26.308 26.308 0 0 1-0.721-2.988 28.816 28.816 0 0 1-0.393-3.164 30.441 30.441 0 0 1 0.218-6.377 27.836 27.836 0 0 1 1.47-5.861 21.5 21.5 0 0 1 2.571-4.929 14.449 14.449 0 0 1 3.528-3.56 9.64 9.64 0 0 1 4.072-1.659 8.373 8.373 0 0 1 4.084 0.422 10.648 10.648 0 0 1 3.771 2.42 16.286 16.286 0 0 1 3.119 4.328z" fill="#fff" data-name="Path 8"/>
<path transform="translate(-208.03 -198.4)" d="M822.03018,344.69248a1.55035,1.55035,0,0,1-.233-.259,1.9516,1.9516,0,0,1-.187-.321,2.342,2.342,0,0,1-.135-.371,2.64667,2.64667,0,0,1-.077-.409,2.77165,2.77165,0,0,1-.014-.422,2.70636,2.70636,0,0,1,.05-.411,2.467,2.467,0,0,1,.11-.386,2.08836,2.08836,0,0,1,.168-.346l-1.736-25.1,2.9.2.808,24.8a2.13293,2.13293,0,0,1,.281.589,2.68008,2.68008,0,0,1,.114.673,2.7516,2.7516,0,0,1-.057.686,2.30791,2.30791,0,0,1-.23.63,1.63676,1.63676,0,0,1-.372.467,1.12095,1.12095,0,0,1-.444.246.947.947,0,0,1-.48,0A1.14882,1.14882,0,0,1,822.03018,344.69248Z" fill="#9e616a" data-name="Path 9"/>
<path transform="translate(-208.03 -198.4)" d="M824.06018,315.62448l-.765,8.376.106,5.12-3.194.453-.637-4.232-.353-11.21a4.768,4.768,0,0,1,.129-1.259,4.053,4.053,0,0,1,.423-1.079,2.89121,2.89121,0,0,1,.661-.8,1.93493,1.93493,0,0,1,.84-.411h0a1.63,1.63,0,0,1,.913.076,2.1,2.1,0,0,1,.79.553,3.16293,3.16293,0,0,1,.585.942,4.32309,4.32309,0,0,1,.3,1.243Z" fill="#2f2e41" data-name="Path 10"/>
<path transform="translate(-208.03 -198.4)" d="m811.95 388.4-1.884-0.128-0.893-10.653 2.777 0.149z" fill="#9e616a" data-name="Path 11"/>
<path transform="translate(-208.03 -198.4)" d="m812.43 391.1-6.048-0.429v-0.112a4.7158 4.7158 0 0 1 0.184-1.324 3.5377 3.5377 0 0 1 0.5-1.058 2.2999 2.2999 0 0 1 0.745-0.687 1.6419 1.6419 0 0 1 0.914-0.21l3.706 0.245z" fill="#2f2e41" data-name="Path 12"/>
<path transform="translate(-208.03 -198.4)" d="m827.87 389.47-1.963-0.134-0.931-10.876 2.894 0.156z" fill="#9e616a" data-name="Path 13"/>
<path transform="translate(-208.03 -198.4)" d="m828.37 392.23-6.3-0.447v-0.114a4.7146 4.7146 0 0 1 0.191-1.351 3.5735 3.5735 0 0 1 0.522-1.079 2.3729 2.3729 0 0 1 0.776-0.7 1.737 1.737 0 0 1 0.952-0.213l3.859 0.256z" fill="#2f2e41" data-name="Path 14"/>
<path transform="translate(-208.03 -198.4)" d="m820.29 294.58a2.9921 2.9921 0 0 1 1.632 0.386 4.1761 4.1761 0 0 1 1.338 1.227 6.3002 6.3002 0 0 1 0.9 1.882 8.2188 8.2188 0 0 1 0.332 2.348 8.5464 8.5464 0 0 1-0.332 2.379 7.0196 7.0196 0 0 1-0.9 1.968 4.8 4.8 0 0 1-1.338 1.353 3.2169 3.2169 0 0 1-1.632 0.54 3.0059 3.0059 0 0 1-1.625-0.41 4.2168 4.2168 0 0 1-1.322-1.237 6.3342 6.3342 0 0 1-0.89-1.873 8.2271 8.2271 0 0 1-0.325-2.325 8.5524 8.5524 0 0 1 0.325-2.355 7.0544 7.0544 0 0 1 0.889-1.958 4.8501 4.8501 0 0 1 1.323-1.357 3.2422 3.2422 0 0 1 1.625-0.568z" fill="#9e616a" data-name="Ellipse 1"/>
<path transform="translate(-208.03 -198.4)" d="m819.75 309.14 2.914 0.375a12.905 12.905 0 0 1 0.879 2.313 15.028 15.028 0 0 1 0.464 2.525 16.048 16.048 0 0 1 0.042 2.628 15.687 15.687 0 0 1-0.393 2.614l-2.2 9.215s0.191 0.549 0.477 1.5 0.669 2.31 1.051 3.925 0.767 3.491 1.054 5.476a43.231 43.231 0 0 1 0.48 6.136 78.813 78.813 0 0 0 0.916 9.357c0.551 3.926 1.286 8.4 2.023 12.62s1.478 8.21 2.034 11.135 0.928 4.8 0.928 4.8l-8.281 0.735-3.561-31.228-4.85 30.587-5.463-1.626 3-39.934 1.994-13.224 0.085-6.457s-0.053-0.3-0.1-0.8a16.124 16.124 0 0 1-0.06-2 12.777 12.777 0 0 1 0.34-2.594 8.0301 8.0301 0 0 1 1.1-2.583l2.617-5.382z" fill="#cacaca" data-name="Path 15"/>
<path transform="translate(-208.03 -198.4)" d="m815.44 298.71 6.12-0.307v-3.875a10.09 10.09 0 0 0-1.001-0.473 3.3241 3.3241 0 0 0-0.941-0.247 1.445 1.445 0 0 0-0.836 0.161 1.783 1.783 0 0 0-0.686 0.75 2.063 2.063 0 0 0-1.036 0.362 3.1 3.1 0 0 0-0.844 0.871 4.5218 4.5218 0 0 0-0.568 1.251 5.4815 5.4815 0 0 0-0.208 1.507z" fill="#2f2e41" data-name="Path 16"/>
<path transform="translate(-208.03 -198.4)" d="M821.90718,293.82048a2.863,2.863,0,0,1,2.3.975,7.27591,7.27591,0,0,1,1.461,2.636,18.03539,18.03539,0,0,1,.767,3.389,24.5353,24.5353,0,0,1,.222,3.225,6.5924,6.5924,0,0,1-.12,1.347,2.98191,2.98191,0,0,1-.343.927,1.90006,1.90006,0,0,1-.539.587,2.30026,2.30026,0,0,1-.707.325l-.368-2.8-.861,2.971-.222.008-.227.006h-.467l-.291-.85-.647.871c-.647.026-1.262.085-1.821.1a4.179,4.179,0,0,1-1.479-.163,1.7,1.7,0,0,1-.993-.88,4.592,4.592,0,0,1-.365-2.047,26.602,26.602,0,0,1,.2-3.205,18.93718,18.93718,0,0,1,.721-3.425,8.008,8.008,0,0,1,1.433-2.768A3.279,3.279,0,0,1,821.90718,293.82048Z" fill="#2f2e41" data-name="Path 17"/>
<path transform="translate(-208.03 -198.4)" d="m816.48 330.69-0.154-9.691-0.408-4.294-1.006 4.285z" opacity=".2" style="isolation:isolate" data-name="Path 18"/>
<path transform="translate(-208.03 -198.4)" d="m824.22 329.32-4.64 0.046v-19.591l4.64-0.164a2.453 2.453 0 0 1 1.313 0.336 3.4531 3.4531 0 0 1 1.075 1 5.1451 5.1451 0 0 1 0.727 1.519 6.6052 6.6052 0 0 1 0.268 1.885v10.076a6.7329 6.7329 0 0 1-0.268 1.894 5.423 5.423 0 0 1-0.727 1.552 3.6928 3.6928 0 0 1-1.075 1.052 2.5379 2.5379 0 0 1-1.313 0.4z" fill="#6c63ff" data-name="Path 19"/>
<path transform="translate(-208.03 -198.4)" d="M823.56818,318.77448a.429.429,0,0,1-.228-.061.609.609,0,0,1-.186-.176.8999.8999,0,0,1-.126-.265,1.1579,1.1579,0,0,1-.047-.328v-7.309l1.174-.04v7.32a1.18214,1.18214,0,0,1-.046.33.95722.95722,0,0,1-.128.271.6531.6531,0,0,1-.187.185.446.446,0,0,1-.228.072Z" fill="#3f3d56" data-name="Path 20"/>
<path transform="translate(-208.03 -198.4)" d="M824.98118,327.75948l-3.407.041a.54292.54292,0,0,1-.287-.08.778.778,0,0,1-.234-.225,1.15609,1.15609,0,0,1-.158-.335,1.465,1.465,0,0,1-.058-.413v-2.923a1.48515,1.48515,0,0,1,.058-.414,1.19992,1.19992,0,0,1,.158-.338.81412.81412,0,0,1,.234-.234.55705.55705,0,0,1,.287-.089l3.407-.063a.548.548,0,0,1,.29.079.777.777,0,0,1,.236.224,1.152,1.152,0,0,1,.16.337,1.46486,1.46486,0,0,1,.059.415v2.941a1.48281,1.48281,0,0,1-.059.416,1.2,1.2,0,0,1-.16.341.814.814,0,0,1-.236.233A.561.561,0,0,1,824.98118,327.75948Z" fill="#3f3d56" data-name="Path 21"/>
<path transform="translate(-208.03 -198.4)" d="m815.36 321.95a10.095 10.095 0 0 1-0.6-1.317 11.542 11.542 0 0 1-0.431-1.438 12.657 12.657 0 0 1-0.255-1.528 13.301 13.301 0 0 1-0.072-1.583 14.726 14.726 0 0 1 0.31-3.035 10.658 10.658 0 0 1 0.841-2.5 5.5401 5.5401 0 0 1 1.249-1.721 2.473 2.473 0 0 1 1.534-0.672 2.5878 2.5878 0 0 1 0.927 0.209 3.1429 3.1429 0 0 1 0.839 0.539 4.1609 4.1609 0 0 1 0.717 0.834 5.4655 5.4655 0 0 1 0.554 1.094l-0.33 0.31a4.9266 4.9266 0 0 0-0.489-0.983 3.7624 3.7624 0 0 0-0.638-0.752 2.8419 2.8419 0 0 0-0.751-0.495 2.3309 2.3309 0 0 0-0.829-0.2 2.1999 2.1999 0 0 0-1.385 0.622 5.129 5.129 0 0 0-1.128 1.596 10.084 10.084 0 0 0-0.76 2.325 14.05 14.05 0 0 0-0.278 2.819 12.476 12.476 0 0 0 0.065 1.486 11.902 11.902 0 0 0 0.237 1.434 10.849 10.849 0 0 0 0.4 1.351 9.4911 9.4911 0 0 0 0.562 1.238z" fill="#6c63ff" data-name="Path 22"/>
<path transform="translate(-208.03 -198.4)" d="M817.22418,345.65548a1.79392,1.79392,0,0,1-.242-.3,2.24655,2.24655,0,0,1-.189-.371,2.66939,2.66939,0,0,1-.131-.415,2.95121,2.95121,0,0,1-.067-.451,3.03415,3.03415,0,0,1,0-.46,2.91036,2.91036,0,0,1,.07-.443,2.6,2.6,0,0,1,.135-.41,2.15957,2.15957,0,0,1,.2-.362l-.855-27.459,3.133.458-.141,27.073a2.4401,2.4401,0,0,1,.28.665,2.95268,2.95268,0,0,1,.011,1.482,2.41709,2.41709,0,0,1-.283.666,1.67284,1.67284,0,0,1-.422.475,1.153,1.153,0,0,1-.5.219,1.02589,1.02589,0,0,1-.518-.046,1.312,1.312,0,0,1-.489-.32Z" fill="#9e616a" data-name="Path 23"/>
<path transform="translate(-208.03 -198.4)" d="m820.61 314.18-1.172 9.062-0.095 5.584-3.474 0.223-0.516-4.657 0.077-12.241a5.1702 5.1702 0 0 1 0.188-1.362 4.2667 4.2667 0 0 1 0.5-1.141 2.9758 2.9758 0 0 1 0.75-0.815 1.9999 1.9999 0 0 1 0.926-0.379 1.7799 1.7799 0 0 1 0.986 0.158 2.3998 2.3998 0 0 1 0.833 0.668 3.6346 3.6346 0 0 1 0.595 1.076 4.863 4.863 0 0 1 0.271 1.38z" fill="#cacaca" data-name="Path 24"/>
<path transform="translate(-208.03 -198.4)" d="m820.95 395.96a0.773 0.773 0 0 1 0.47-0.528 1.9159 1.9159 0 0 1 0.934-0.1 5.0993 5.0993 0 0 1 1.267 0.322 8.9766 8.9766 0 0 1 1.469 0.726 10.488 10.488 0 0 1 1.4 1.015 8.2553 8.2553 0 0 1 1.075 1.1 4.2998 4.2998 0 0 1 0.643 1.062 1.4509 1.4509 0 0 1 0.105 0.886 0.776 0.776 0 0 1-0.479 0.53 1.9521 1.9521 0 0 1-0.947 0.092 5.1914 5.1914 0 0 1-1.277-0.33 9.054 9.054 0 0 1-1.471-0.735 10.48 10.48 0 0 1-1.392-1.013 8.191 8.191 0 0 1-1.062-1.1 4.2612 4.2612 0 0 1-0.632-1.05 1.4481 1.4481 0 0 1-0.103-0.877z" fill="#fff" data-name="Ellipse 2"/>
<path transform="translate(-208.03 -198.4)" d="m834.28 396.1a0.672 0.672 0 0 1 0.548-0.408 2.0761 2.0761 0 0 1 0.973 0.134 6.1437 6.1437 0 0 1 1.265 0.633 11.13 11.13 0 0 1 1.428 1.087 13.024 13.024 0 0 1 1.317 1.356 10.059 10.059 0 0 1 0.969 1.364 4.9673 4.9673 0 0 1 0.532 1.214 1.438 1.438 0 0 1 0 0.905 0.675 0.675 0 0 1-0.557 0.407 2.1211 2.1211 0 0 1-0.985-0.144 6.2536 6.2536 0 0 1-1.274-0.645 11.223 11.223 0 0 1-1.424-1.1 13.007 13.007 0 0 1-1.307-1.35 9.9825 9.9825 0 0 1-0.959-1.354 4.9258 4.9258 0 0 1-0.526-1.202 1.4379 1.4379 0 0 1 0-0.897z" fill="#fff" data-name="Ellipse 3"/>
<path transform="translate(-208.03 -198.4)" d="m840.48 409.45a0.694 0.694 0 0 1 0.542-0.438 2.0998 2.0998 0 0 1 0.989 0.089 6.1246 6.1246 0 0 1 1.3 0.578 11.037 11.037 0 0 1 1.477 1.03 12.887 12.887 0 0 1 1.379 1.307 9.9542 9.9542 0 0 1 1.028 1.331 4.933 4.933 0 0 1 0.578 1.2 1.45 1.45 0 0 1 0.029 0.915 0.7 0.7 0 0 1-0.551 0.437 2.1441 2.1441 0 0 1-1-0.1 6.2356 6.2356 0 0 1-1.311-0.591 11.132 11.132 0 0 1-1.479-1.035 12.874 12.874 0 0 1-1.369-1.306 9.8776 9.8776 0 0 1-1.015-1.323 4.8894 4.8894 0 0 1-0.568-1.188 1.449 1.449 0 0 1-0.029-0.906z" fill="#fff" data-name="Ellipse 4"/>
<path transform="translate(-208.03 -198.4)" d="m853.78 415.05a0.709 0.709 0 0 1 0.56-0.442 2.2079 2.2079 0 0 1 1.023 0.1 6.4365 6.4365 0 0 1 1.346 0.6 11.532 11.532 0 0 1 1.528 1.054 13.376 13.376 0 0 1 1.424 1.336 10.251 10.251 0 0 1 1.064 1.364 5.0216 5.0216 0 0 1 0.6 1.225 1.452 1.452 0 0 1 0.03 0.93 0.712 0.712 0 0 1-0.57 0.441 2.257 2.257 0 0 1-1.037-0.108 6.5545 6.5545 0 0 1-1.356-0.61 11.629 11.629 0 0 1-1.53-1.066 13.359 13.359 0 0 1-1.415-1.338 10.168 10.168 0 0 1-1.047-1.352 4.9761 4.9761 0 0 1-0.59-1.213 1.4511 1.4511 0 0 1-0.03-0.921z" fill="#fff" data-name="Ellipse 5"/>
<path transform="translate(-208.03 -198.4)" d="m790.57 301.74a8.76 8.76 0 0 0-2.928-1.34 7.6441 7.6441 0 0 0-3.007-0.121 8.5402 8.5402 0 0 0-2.928 1.056 11.383 11.383 0 0 0-2.693 2.197q2.342 0.509 4.691 1.127t4.722 1.352q2.374 0.735 4.751 1.581t4.776 1.813a19.04 19.04 0 0 1-1.894-1.858c-0.606-0.67-1.2-1.378-1.785-2.077s-1.18-1.388-1.792-2.025a14.401 14.401 0 0 0-1.913-1.705z" fill="#fff" data-name="Path 25"/>
<path transform="translate(-208.03 -198.4)" d="M778.98118,303.52749l-.684.881q.087-.115.175-.227t.178-.221q.09-.109.182-.214t.184-.209Z" fill="#f2f2f2" data-name="Path 26"/>
<path transform="translate(-208.03 -198.4)" d="m894.33 347.82a10.556 10.556 0 0 0-0.67-1.138 9.4614 9.4614 0 0 0-0.782-1 8.4131 8.4131 0 0 0-0.881-0.845 7.4635 7.4635 0 0 0-0.959-0.678l-1.278 0.056q3.654 8.581 7.987 16.718 4.359 8.185 9.39 15.884 5.067 7.751 10.8 14.969 5.782 7.272 12.231 13.956l-9.24-14.936-9.05-14.626-8.865-14.326z" fill="#fff" data-name="Path 27"/>
<path transform="translate(-208.03 -198.4)" d="m719.51 700.44h-510.29a1.1907 1.1907 0 0 1 0-2.3814h510.29a1.1907 1.1907 0 0 1 0 2.3814z" fill="#cacaca"/>
<path transform="translate(-208.03 -198.4)" d="m385.14 408.9a2.5041 2.5041 0 0 1-2.3726-1.7056l-1.2725-3.7915a2.5 2.5 0 1 1 4.7402-1.5903l1.2725 3.7915a2.5039 2.5039 0 0 1-1.5747 3.166h-4.9e-4a2.492 2.492 0 0 1-0.79248 0.12989z" fill="#3f3d56"/>
<path transform="translate(-208.03 -198.4)" d="m388.04 418.92a2.5032 2.5032 0 0 1-2.4009-1.8174l-1.0938-3.8476a2.5001 2.5001 0 0 1 4.8096-1.3672l1.0938 3.8476a2.5 2.5 0 0 1-1.7217 3.0884 2.5115 2.5115 0 0 1-0.68701 0.09619z" fill="#3f3d56"/>
</svg>
