<svg width="507" height="382" viewBox="0 0 507 382" fill="none" xmlns="http://www.w3.org/2000/svg">
<path d="M311.526 271.448H99.8536L65.9861 311.475L353.937 316.607L311.526 271.448Z" fill="#F2F2F2"/>
<path d="M353.937 317.24L65.9987 312.172C65.8786 312.171 65.7612 312.136 65.6602 312.071C65.5592 312.006 65.4788 311.914 65.4284 311.805C65.3795 311.695 65.362 311.575 65.3777 311.456C65.3933 311.338 65.4416 311.226 65.5171 311.133L99.3847 271.093C99.4448 271.025 99.5189 270.97 99.602 270.933C99.6851 270.896 99.7753 270.877 99.8663 270.878H311.539C311.624 270.876 311.709 270.892 311.787 270.924C311.866 270.957 311.937 271.006 311.995 271.068L354.406 316.239C354.493 316.328 354.551 316.44 354.574 316.562C354.597 316.684 354.582 316.81 354.532 316.924C354.472 317.026 354.384 317.11 354.279 317.166C354.174 317.222 354.056 317.248 353.937 317.24ZM67.3423 310.905L352.441 315.973L311.247 272.094H100.133L67.3423 310.905Z" fill="#D1D3D4"/>
<path d="M259.153 209.246C259.153 209.246 279.889 251.542 280.701 281.356C280.701 281.356 301.424 288.3 301.424 291.29C301.424 294.281 270.472 294.015 270.472 294.015L246.389 234.563L259.153 209.246Z" fill="#FFB9B9"/>
<path d="M272.766 294.661H270.51C270.385 294.66 270.263 294.622 270.159 294.553C270.055 294.483 269.974 294.384 269.927 294.268L245.844 234.803C245.807 234.722 245.787 234.633 245.787 234.544C245.787 234.454 245.807 234.365 245.844 234.284L258.519 208.942C258.572 208.835 258.653 208.746 258.754 208.683C258.854 208.62 258.971 208.587 259.09 208.587C259.208 208.588 259.324 208.622 259.425 208.685C259.525 208.747 259.607 208.836 259.66 208.942C259.863 209.36 280.257 251.288 281.296 280.862C286.683 282.687 302.033 288.161 302.033 291.265C302.03 291.423 301.995 291.579 301.929 291.723C301.864 291.866 301.77 291.995 301.652 292.101C299.384 294.445 279.813 294.661 272.766 294.661ZM270.941 293.394C284.972 293.482 299.878 292.697 300.854 291.202C300.854 289.934 291.538 285.639 280.574 281.952C280.45 281.912 280.342 281.834 280.264 281.73C280.187 281.625 280.145 281.499 280.143 281.369C279.382 254.76 262.474 217.698 259.178 210.691L247.163 234.588L270.941 293.394Z" fill="#231F20"/>
<path d="M197.451 203.861C197.451 203.861 242.878 203.861 261.536 209.246L250.826 239.15L180.948 221.474L197.451 203.861Z" fill="#575A89"/>
<path d="M250.826 239.834H250.673L180.796 222.094C180.69 222.07 180.592 222.017 180.514 221.941C180.436 221.865 180.38 221.769 180.353 221.664C180.321 221.559 180.318 221.448 180.342 221.341C180.367 221.235 180.418 221.136 180.492 221.055L196.97 203.392C197.03 203.329 197.103 203.278 197.184 203.244C197.264 203.209 197.351 203.19 197.439 203.189C197.895 203.189 243.17 203.189 261.701 208.6C261.785 208.622 261.863 208.662 261.931 208.717C261.999 208.771 262.054 208.839 262.094 208.917C262.128 208.997 262.145 209.083 262.145 209.17C262.145 209.257 262.128 209.343 262.094 209.424L251.383 239.378C251.348 239.501 251.275 239.611 251.176 239.693C251.076 239.774 250.954 239.823 250.826 239.834ZM182.14 221.182L250.433 238.44L260.725 209.677C242.739 204.761 201.482 204.495 197.717 204.495L182.14 221.182Z" fill="#231F20"/>
<path d="M208.212 143.687C207.743 144.371 218.225 161.882 220.735 163.149C223.245 164.416 251.371 158.081 257.86 156.56C264.35 155.04 268.152 155.978 268.697 158.651C269.242 161.325 262.296 169.548 259.825 170.841C257.353 172.133 228.619 188.58 219.48 185.83C210.342 183.081 186.918 157.523 186.918 157.523" fill="#FFB9B9"/>
<path d="M221.965 186.768C221.083 186.785 220.203 186.674 219.354 186.438C210.152 183.663 187.463 159.006 186.5 157.954C186.441 157.895 186.393 157.825 186.361 157.748C186.329 157.671 186.312 157.588 186.312 157.504C186.312 157.421 186.329 157.338 186.361 157.261C186.393 157.183 186.441 157.113 186.5 157.054C186.621 156.938 186.782 156.872 186.95 156.872C187.118 156.872 187.279 156.938 187.4 157.054C187.628 157.308 210.811 182.51 219.683 185.184C224.994 186.793 238.835 181.649 258.646 170.726L259.546 170.232C261.916 168.965 268.495 160.944 268.038 158.74C267.978 158.422 267.849 158.122 267.66 157.86C267.472 157.597 267.229 157.379 266.948 157.219C265.313 156.18 262.119 156.142 257.962 157.143C257.632 157.232 223.562 165.253 220.406 163.669C217.744 162.338 208.098 146.107 207.578 144.029C207.534 143.907 207.518 143.776 207.531 143.646C207.544 143.517 207.586 143.392 207.655 143.281C207.703 143.213 207.764 143.154 207.834 143.11C207.905 143.065 207.984 143.034 208.066 143.02C208.149 143.006 208.233 143.009 208.315 143.027C208.397 143.046 208.474 143.081 208.542 143.129C208.637 143.197 208.712 143.289 208.759 143.396C208.806 143.504 208.823 143.621 208.808 143.737C209.214 145.499 218.745 161.477 220.976 162.541C222.903 163.504 245.895 158.74 257.67 155.914C262.233 154.824 265.681 154.9 267.633 156.142C268.054 156.399 268.417 156.739 268.701 157.143C268.984 157.546 269.182 158.003 269.28 158.486C269.914 161.603 262.525 170.08 260.142 171.36L259.254 171.841C246.554 178.899 230.393 186.768 221.965 186.768Z" fill="#231F20"/>
<path d="M263.437 171.803C263.437 171.803 266.086 164.518 265.681 163.314C265.275 162.11 259.28 159.183 259.28 159.183C259.28 159.183 253.88 159.703 254.375 158.588C254.869 157.473 262.461 154.178 265.592 154.634C268.723 155.091 277.443 158.537 278.837 160.134C280.232 161.73 276.797 168.37 274.845 169.485C272.893 170.6 261.105 176.631 263.437 171.803Z" fill="#231F20"/>
<path d="M264.248 174.249C263.792 174.277 263.341 174.137 262.981 173.856C262.449 173.362 262.423 172.589 262.918 171.563C264.185 168.218 265.326 164.201 265.148 163.517C264.971 162.833 261.916 161.147 259.216 159.83C256.2 160.108 254.425 159.906 253.944 159.247C253.848 159.117 253.79 158.962 253.777 158.801C253.763 158.64 253.795 158.479 253.868 158.335C254.577 156.725 262.639 153.57 265.744 154.014C268.849 154.457 277.811 157.929 279.37 159.716C279.611 160.062 279.772 160.458 279.842 160.874C279.912 161.29 279.889 161.717 279.775 162.123C279.319 164.86 276.898 169.067 275.225 170.03C275.048 170.08 267.658 174.249 264.248 174.249ZM259.28 158.55C259.372 158.532 259.467 158.532 259.559 158.55C261.435 159.475 265.896 161.743 266.276 163.061C266.657 164.379 264.857 169.7 264.033 171.93C263.716 172.577 263.805 172.779 263.805 172.779C264.515 173.54 271.004 170.828 274.566 168.788C275.833 168.078 278.077 164.252 278.495 161.768C278.66 160.793 278.495 160.501 278.381 160.4C277.202 159.031 268.786 155.572 265.529 155.103C262.892 154.723 256.757 157.321 255.274 158.423C256.593 158.563 257.923 158.563 259.242 158.423L259.28 158.55Z" fill="#231F20"/>
<path d="M249.482 218.876C249.482 218.876 270.218 261.171 271.03 290.973C271.03 290.973 291.766 297.93 291.766 300.907C291.766 303.885 260.813 303.644 260.813 303.644L236.731 244.18L249.482 218.876Z" fill="#FFB9B9"/>
<path d="M263.095 304.316H260.839C260.714 304.314 260.593 304.275 260.489 304.206C260.386 304.136 260.305 304.038 260.256 303.923L236.173 244.459C236.139 244.376 236.121 244.288 236.121 244.199C236.121 244.11 236.139 244.021 236.173 243.939L248.848 218.597C248.902 218.493 248.984 218.406 249.085 218.345C249.186 218.285 249.301 218.254 249.419 218.255V218.255C249.537 218.255 249.654 218.288 249.755 218.351C249.856 218.414 249.937 218.503 249.989 218.61C250.192 219.028 270.586 260.956 271.625 290.53C277.025 292.355 292.374 297.816 292.374 300.92C292.36 301.241 292.224 301.545 291.994 301.769C289.712 304.101 270.142 304.316 263.095 304.316ZM261.27 303.049C275.288 303.138 290.219 302.365 291.183 300.87C291.183 299.602 281.867 295.307 270.903 291.62C270.781 291.577 270.675 291.498 270.598 291.394C270.521 291.291 270.477 291.166 270.472 291.037C269.711 264.428 252.803 227.353 249.507 220.359L237.479 244.218L261.27 303.049Z" fill="#231F20"/>
<path d="M203.484 207.688L251.903 216.203L237.96 258.726C237.96 258.726 173.952 270.713 151.378 260.487C128.803 250.262 135.204 203.861 135.204 203.861L203.484 207.688Z" fill="#575A89"/>
<path d="M179.808 265.264C166.904 265.264 157.297 263.858 151.124 261.058C141.668 256.788 135.825 245.485 134.203 228.405C133.492 220.203 133.615 211.95 134.57 203.772C134.59 203.614 134.669 203.47 134.791 203.368C134.914 203.267 135.071 203.217 135.23 203.228L203.522 207.029H203.599L252.017 215.544C252.106 215.562 252.19 215.598 252.264 215.651C252.338 215.703 252.401 215.77 252.448 215.848C252.485 215.929 252.505 216.018 252.505 216.108C252.505 216.197 252.485 216.286 252.448 216.367L238.505 258.878C238.469 258.985 238.405 259.081 238.321 259.157C238.237 259.232 238.134 259.285 238.024 259.309C237.859 259.309 221.774 262.325 203.142 264.023C194.464 264.85 186.686 265.264 179.808 265.264ZM135.749 204.52C135.128 209.867 131.098 250.617 151.644 259.917C172.9 269.534 232.231 259.119 237.479 258.169L251.079 216.697L203.421 208.321L135.749 204.52Z" fill="#231F20"/>
<path d="M208.96 124.934L192.635 122.4C192.635 122.4 184.725 120.841 174.154 126.682C165.903 131.244 155.383 141.887 150.072 151.011C131.338 183.182 133.392 233.486 133.392 233.486C133.392 233.486 188.414 219.129 199.986 211.349C209.074 205.255 207.794 202.619 207.794 202.619C207.794 202.619 202.192 192.977 203.041 185.323C203.89 177.67 217.427 135.248 208.96 124.934Z" fill="#CBCDDA"/>
<path d="M226.122 288.363C231.192 283.612 236.376 273.931 236.756 266.823C237.238 258.118 229.151 248.818 222.903 243.8C214.955 237.464 205.31 233.663 195.765 230.242C186.221 226.821 176.487 223.45 168.032 217.812C161.513 213.433 155.933 207.797 151.619 201.235C147.305 194.673 144.345 187.317 142.911 179.596C141.035 168.535 146.586 150.884 130.667 148.248C122.986 146.981 115.216 151.023 109.956 156.763C103.162 164.188 99.8156 174.135 97.6229 183.955C92.6416 206.459 93.0092 230.546 101.425 251.985C109.842 273.424 127.042 291.873 148.855 299.336C169.718 306.47 195.563 304.405 215.374 295.256C219.305 293.553 222.934 291.225 226.122 288.363V288.363Z" fill="#00EAFF"/>
<path d="M176.081 304.278C166.783 304.355 157.535 302.913 148.703 300.008C127.751 292.824 109.867 274.983 100.88 252.277C92.8951 232.079 91.5515 208.423 96.9891 183.854C98.8777 175.352 102.059 164.531 109.474 156.358C115.482 149.807 123.645 146.462 130.781 147.64C143.151 149.693 143.126 160.577 143.101 170.169C142.991 173.293 143.144 176.421 143.557 179.52C144.959 187.154 147.879 194.43 152.144 200.916C156.409 207.402 161.933 212.966 168.387 217.28C176.17 222.462 185.207 225.731 193.928 228.886L195.994 229.634C205.842 233.22 215.336 236.945 223.308 243.306C230.115 248.716 237.884 258.143 237.415 266.874C236.997 274.539 231.458 284.233 226.566 288.82C223.351 291.747 219.682 294.135 215.703 295.89C203.243 301.471 189.735 304.331 176.081 304.278V304.278ZM127.802 148.717C120.831 148.717 114.405 152.937 110.437 157.257C104.772 163.454 101.007 171.753 98.2693 184.158C92.8824 208.448 94.2133 231.838 102.072 251.795C110.944 274.159 128.499 291.709 149.109 298.766C169.085 305.609 195.005 304.012 215.133 294.712C218.986 293.019 222.539 290.712 225.653 287.882C230.368 283.447 235.692 273.944 236.085 266.81C236.528 258.574 229.025 249.552 222.472 244.332C214.651 238.111 205.259 234.411 195.525 230.875L193.459 230.128C184.662 226.947 175.549 223.653 167.64 218.382C161.045 213.966 155.404 208.273 151.05 201.639C146.696 195.006 143.717 187.566 142.29 179.761C141.867 176.587 141.71 173.382 141.821 170.182C141.821 160.653 141.821 150.821 130.591 148.945C129.669 148.793 128.736 148.717 127.802 148.717V148.717Z" fill="#231F20"/>
<path d="M177.627 170.22C177.627 170.22 204.372 202.835 214.144 200.63C223.917 198.425 262.664 179.203 262.664 179.203C262.664 179.203 272.905 176.821 275.681 173.362C278.457 169.903 280.396 162.376 278.825 161.768C277.253 161.16 263.615 168.002 263.615 168.002C263.615 168.002 266.834 163.872 265.326 162.161C263.817 160.45 256.212 168.649 256.212 168.649L216.337 179.051L196.057 149.541" fill="#FFB9B9"/>
<path d="M213.168 201.327C202.458 201.327 178.211 171.918 177.146 170.625C177.092 170.561 177.051 170.486 177.026 170.406C177.002 170.325 176.993 170.241 177.001 170.157C177.01 170.073 177.035 169.992 177.075 169.918C177.115 169.844 177.169 169.778 177.235 169.726C177.364 169.621 177.53 169.571 177.696 169.588C177.863 169.604 178.015 169.686 178.122 169.814C178.388 170.144 204.739 202.1 214.005 199.971C223.587 197.779 262.005 178.785 262.385 178.595H262.525C262.626 178.595 272.576 176.238 275.2 172.982C278.026 169.459 279.268 162.985 278.596 162.364C277.557 162.174 270.294 165.379 263.868 168.585C263.739 168.647 263.593 168.665 263.453 168.635C263.314 168.605 263.187 168.53 263.095 168.42C263.007 168.309 262.958 168.17 262.958 168.028C262.958 167.885 263.007 167.747 263.095 167.635C264.033 166.368 265.693 163.593 264.819 162.567C263.323 162.567 259.178 166.368 256.681 169.067C256.596 169.157 256.486 169.219 256.365 169.244L216.464 179.596C216.337 179.628 216.204 179.621 216.082 179.575C215.96 179.53 215.854 179.449 215.779 179.343L195.499 149.82C195.409 149.679 195.375 149.508 195.406 149.343C195.437 149.179 195.529 149.032 195.664 148.933C195.804 148.839 195.975 148.804 196.141 148.835C196.307 148.865 196.454 148.96 196.551 149.097L216.578 178.24L255.87 167.99C257.138 166.571 262.372 161.198 264.743 161.198C264.937 161.19 265.131 161.227 265.309 161.306C265.487 161.385 265.645 161.504 265.769 161.654C266.847 162.921 266.175 164.847 265.364 166.33C270.117 164.024 277.646 160.552 279.065 161.097C279.282 161.189 279.473 161.334 279.621 161.517C279.769 161.7 279.87 161.917 279.915 162.148C280.548 164.505 278.533 170.752 276.188 173.679C273.4 177.151 263.906 179.47 262.892 179.71C260.56 180.876 223.917 198.957 214.296 201.162C213.927 201.258 213.549 201.313 213.168 201.327Z" fill="#231F20"/>
<path d="M196.032 150.136C195.923 150.135 195.816 150.106 195.721 150.053C195.626 150 195.545 149.924 195.487 149.832L188.338 138.34C188.292 138.27 188.261 138.191 188.246 138.108C188.231 138.026 188.233 137.941 188.252 137.859C188.271 137.778 188.307 137.701 188.356 137.633C188.406 137.565 188.468 137.508 188.541 137.465C188.684 137.379 188.856 137.352 189.019 137.39C189.182 137.428 189.324 137.528 189.415 137.668L196.564 149.161C196.621 149.257 196.652 149.367 196.654 149.479C196.656 149.591 196.629 149.702 196.576 149.8C196.522 149.898 196.443 149.981 196.348 150.04C196.253 150.099 196.144 150.132 196.032 150.136V150.136Z" fill="#231F20"/>
<path d="M177.627 170.853C177.545 170.853 177.463 170.836 177.386 170.803C177.31 170.77 177.241 170.723 177.184 170.663L165.396 158.651C165.33 158.594 165.277 158.524 165.239 158.445C165.202 158.366 165.181 158.28 165.178 158.193C165.176 158.106 165.191 158.019 165.223 157.938C165.256 157.857 165.305 157.783 165.367 157.722C165.429 157.661 165.503 157.613 165.585 157.582C165.666 157.55 165.753 157.536 165.841 157.54C165.928 157.544 166.013 157.566 166.092 157.605C166.17 157.643 166.24 157.698 166.296 157.764L178.084 169.776C178.143 169.835 178.19 169.905 178.222 169.982C178.255 170.06 178.271 170.142 178.271 170.226C178.271 170.31 178.255 170.393 178.222 170.47C178.19 170.547 178.143 170.617 178.084 170.676C177.959 170.789 177.796 170.852 177.627 170.853V170.853Z" fill="#231F20"/>
<path d="M248.671 159.462C248.671 159.462 253.424 152.48 255.008 152.151C256.593 151.821 265.719 154.102 264.185 155.065C262.651 156.028 257.721 155.825 257.721 155.825C257.721 155.825 255.794 158.727 253.918 160.894" fill="#FFB9B9"/>
<path d="M253.956 161.578C253.809 161.582 253.664 161.533 253.551 161.439C253.443 161.326 253.379 161.179 253.37 161.023C253.361 160.868 253.407 160.714 253.5 160.59C255.287 158.423 257.201 155.521 257.214 155.521C257.275 155.431 257.358 155.358 257.456 155.309C257.554 155.26 257.662 155.237 257.771 155.243C259.664 155.355 261.562 155.201 263.412 154.786C261.815 153.95 256.352 152.594 255.16 152.822C254.349 152.987 251.447 156.624 249.229 159.88C249.133 160.02 248.985 160.115 248.819 160.146C248.653 160.177 248.481 160.141 248.341 160.045C248.202 159.949 248.106 159.802 248.075 159.636C248.044 159.469 248.081 159.297 248.177 159.158C249.33 157.473 253.247 151.923 254.907 151.555C256.174 151.302 264.299 152.886 264.946 154.52C265.025 154.724 265.027 154.949 264.953 155.154C264.878 155.359 264.731 155.53 264.54 155.635C263.082 156.548 259.318 156.522 258.076 156.497C257.531 157.295 255.997 159.551 254.476 161.375C254.412 161.448 254.331 161.504 254.241 161.54C254.15 161.575 254.053 161.588 253.956 161.578V161.578Z" fill="#231F20"/>
<path d="M273.907 161.135C273.539 160.235 271.752 160.957 272.12 161.857C272.487 162.757 274.274 162.047 273.907 161.135Z" fill="#00EAFF"/>
<path d="M269.547 160.59C268.837 161.261 270.079 162.554 270.814 161.857C271.549 161.16 270.244 159.88 269.547 160.59Z" fill="#00EAFF"/>
<path d="M271.118 162.87C270.434 163.567 271.777 164.873 272.386 164.138C272.994 163.403 271.79 162.174 271.118 162.87Z" fill="#00EAFF"/>
<path d="M268.951 162.529C267.683 163.061 268.14 164.29 269.458 163.796C270.776 163.302 270.269 161.996 268.951 162.529Z" fill="#00EAFF"/>
<path d="M260.459 158.271C260.395 158.27 260.334 158.251 260.282 158.214C260.23 158.178 260.19 158.127 260.167 158.068C260.137 157.989 260.139 157.902 260.172 157.824C260.205 157.746 260.267 157.684 260.344 157.65L265.047 155.902C265.126 155.873 265.213 155.877 265.289 155.913C265.365 155.948 265.424 156.013 265.453 156.092C265.479 156.169 265.475 156.254 265.442 156.329C265.409 156.404 265.35 156.464 265.275 156.497L260.573 158.246L260.459 158.271Z" fill="#00EAFF"/>
<path d="M264.806 158.524C264.752 158.541 264.695 158.541 264.641 158.524L261.105 156.282C261.034 156.235 260.984 156.163 260.965 156.08C260.947 155.998 260.96 155.911 261.004 155.838C261.024 155.802 261.052 155.771 261.086 155.746C261.119 155.722 261.157 155.704 261.197 155.695C261.238 155.685 261.279 155.684 261.32 155.691C261.361 155.699 261.4 155.714 261.435 155.737L265.034 157.942C265.091 157.978 265.135 158.032 265.159 158.096C265.183 158.159 265.186 158.229 265.167 158.294C265.149 158.359 265.11 158.417 265.056 158.458C265.003 158.5 264.937 158.523 264.869 158.524H264.806Z" fill="#00EAFF"/>
<path d="M191.9 119.067C185.917 119.257 179.427 116.153 177.691 110.451C179.336 111.15 181.113 111.487 182.9 111.439C179.225 105.446 176.411 98.667 176.563 91.6473C176.715 84.6276 180.086 77.3545 186.323 74.1741C189.769 72.6119 193.53 71.8702 197.312 72.0074C199.847 72.0074 202.635 72.1974 204.727 73.7179L199.289 69.3591C202.891 68.723 206.591 68.9186 210.106 69.931C213.621 70.9434 216.858 72.7458 219.569 75.2004L217.807 69.4225C223.231 71.6732 227.61 75.8792 230.077 81.2064C231.876 85.0077 233.512 94.815 225.945 93.6113C226.312 93.6113 220.875 101.86 220.266 102.557C217.762 105.044 215.071 107.335 212.218 109.412C206.324 114.113 200.519 118.421 192.559 119.004L191.9 119.067Z" fill="#2F2E41"/>
<path d="M191.393 119.713C185.575 119.713 178.92 116.66 177.095 110.628C177.062 110.514 177.063 110.393 177.096 110.279C177.129 110.164 177.193 110.062 177.282 109.983C177.37 109.903 177.479 109.85 177.597 109.83C177.714 109.81 177.834 109.823 177.944 109.868C179.151 110.384 180.437 110.692 181.747 110.78C177.704 103.925 175.777 97.6533 175.866 91.6346C175.98 83.7787 179.972 76.6956 186.006 73.6039C189.538 71.9829 193.403 71.2188 197.286 71.3738C198.529 71.3424 199.772 71.4229 201 71.6146L198.833 69.8913C198.734 69.819 198.66 69.7187 198.619 69.6034C198.578 69.4881 198.573 69.3633 198.605 69.2451C198.635 69.1287 198.698 69.0231 198.785 68.9403C198.872 68.8575 198.981 68.8007 199.099 68.7763C202.437 68.1907 205.86 68.2979 209.155 69.0914C212.449 69.8848 215.546 71.3475 218.251 73.3885L217.123 69.5872C217.083 69.4722 217.079 69.348 217.11 69.2306C217.142 69.1131 217.208 69.0078 217.3 68.9283C217.388 68.8484 217.496 68.7952 217.613 68.775C217.73 68.7548 217.85 68.7685 217.959 68.8143C223.555 71.1132 228.08 75.4331 230.634 80.915C232.041 83.9307 233.169 89.7847 230.977 92.5723C230.428 93.2574 229.702 93.7783 228.877 94.0778C228.051 94.3773 227.16 94.4439 226.299 94.2702C224.612 97.277 222.746 100.18 220.71 102.962C218.755 104.962 216.635 106.793 214.372 108.436C213.751 108.918 213.105 109.387 212.534 109.881C206.286 114.86 200.468 119.029 192.533 119.599C192.314 119.612 192.094 119.612 191.874 119.599H191.393V119.713ZM178.781 111.465C180.999 116.216 186.842 118.522 191.887 118.383H192.495C200.1 117.838 205.715 113.771 211.799 108.93L213.637 107.473C215.827 105.873 217.879 104.093 219.772 102.151C221.762 99.4101 223.602 96.5634 225.285 93.624C225.285 93.624 225.285 93.6239 225.285 93.5226C225.298 93.4402 225.326 93.361 225.369 93.2896C225.412 93.2183 225.469 93.1561 225.536 93.1066C225.603 93.0572 225.68 93.0215 225.761 93.0015C225.841 92.9816 225.926 92.9778 226.008 92.9904C226.707 93.1998 227.452 93.2035 228.153 93.0013C228.854 92.7991 229.482 92.3994 229.963 91.85C231.712 89.5186 230.799 84.3362 229.468 81.4852C227.253 76.7552 223.487 72.9239 218.796 70.6262L220.152 75.0864C220.192 75.2198 220.188 75.3628 220.138 75.4932C220.089 75.6236 219.999 75.7341 219.88 75.8077C219.762 75.8813 219.622 75.9138 219.484 75.9003C219.345 75.8867 219.215 75.8278 219.113 75.7326C216.656 73.5106 213.755 71.8353 210.602 70.8174C207.449 69.7995 204.116 69.4623 200.823 69.828L205.158 73.2491C205.287 73.3537 205.372 73.5044 205.393 73.6697C205.414 73.835 205.371 74.0021 205.272 74.1361C205.169 74.2642 205.022 74.3486 204.859 74.3722C204.697 74.3957 204.532 74.3566 204.397 74.2628C202.42 72.8183 199.745 72.6282 197.35 72.6663C193.664 72.5164 189.995 73.237 186.639 74.7696C180.974 77.6459 177.247 84.2855 177.146 91.6853C177.057 97.742 179.123 104.103 183.483 111.122C183.539 111.219 183.568 111.328 183.568 111.439C183.568 111.55 183.539 111.66 183.483 111.756C183.429 111.855 183.351 111.938 183.255 111.998C183.16 112.058 183.051 112.092 182.938 112.098C181.53 112.129 180.126 111.932 178.781 111.515V111.465Z" fill="#231F20"/>
<path d="M225.691 104.838C225.691 104.838 229.202 114.658 227.605 116.128C226.008 117.598 222.535 115.494 222.535 115.494" fill="#FFB9B9"/>
<path d="M226.071 117.306C224.681 117.192 223.337 116.758 222.142 116.039C222.07 115.996 222.007 115.939 221.958 115.872C221.908 115.805 221.872 115.728 221.852 115.647C221.832 115.565 221.828 115.481 221.841 115.398C221.854 115.315 221.883 115.236 221.927 115.165C221.967 115.092 222.022 115.028 222.088 114.978C222.154 114.927 222.23 114.89 222.311 114.87C222.392 114.85 222.476 114.847 222.558 114.86C222.64 114.874 222.719 114.904 222.788 114.949C223.612 115.431 226.173 116.596 227.187 115.659C227.947 114.949 226.718 109.602 225.095 105.053C225.038 104.895 225.046 104.721 225.118 104.569C225.189 104.417 225.318 104.3 225.476 104.242C225.554 104.212 225.637 104.198 225.721 104.201C225.804 104.204 225.886 104.224 225.962 104.26C226.038 104.295 226.106 104.346 226.162 104.408C226.217 104.47 226.26 104.543 226.287 104.622C227.149 107.017 229.798 114.962 228.036 116.596C227.498 117.079 226.793 117.333 226.071 117.306V117.306Z" fill="#231F20"/>
<path d="M227.25 93.434C230.089 97.2352 227.542 103.089 226.528 107.081C225.108 112.681 223.557 118.248 221.876 123.781C220.811 127.291 212.356 125.2 211 123.781L208.187 138.048C208.187 138.048 203.472 138.162 196.881 132.904C190.29 127.645 190.657 125.859 190.657 125.859L195.271 109.779C195.271 109.779 201.342 111.325 206.679 104.965C212.015 98.6037 214.651 87.4153 214.651 87.4153C214.651 87.4153 224.474 89.7087 227.25 93.434Z" fill="#FFB9B9"/>
<path d="M208.162 138.644C207.578 138.644 202.889 138.466 196.488 133.36C190.087 128.254 189.935 126.201 190.036 125.694L194.663 109.564C194.707 109.407 194.812 109.273 194.954 109.192C195.097 109.112 195.265 109.09 195.423 109.133C195.651 109.133 201.203 110.476 206.248 104.508C211.292 98.5404 214.068 87.352 214.093 87.2379C214.111 87.1565 214.145 87.0795 214.194 87.0115C214.242 86.9435 214.303 86.8859 214.374 86.8422C214.445 86.7984 214.524 86.7694 214.607 86.7568C214.689 86.7443 214.773 86.7484 214.854 86.7691C215.26 86.8578 224.88 89.1892 227.757 93.0158C230.292 96.4117 228.885 101.201 227.757 105.053C227.529 105.813 227.313 106.536 227.149 107.195C225.729 112.77 224.157 118.408 222.484 123.92C222.281 124.489 221.923 124.989 221.45 125.365C220.978 125.741 220.41 125.978 219.81 126.049C216.705 126.497 213.84 126.332 211 125L208.821 138.099C208.797 138.246 208.724 138.38 208.613 138.48C208.503 138.579 208.361 138.637 208.212 138.644H208.162ZM191.278 125.973C191.278 125.973 191.557 127.772 197.286 132.308C202.356 136.338 206.273 137.123 207.642 137.275L209.581 123.451C209.596 123.332 209.645 123.22 209.721 123.127C209.798 123.035 209.899 122.966 210.014 122.929C210.128 122.891 210.25 122.887 210.367 122.917C210.483 122.947 210.589 123.009 210.671 123.097C211.444 123.933 216.438 125.466 219.544 124.756C220.507 124.528 221.09 124.11 221.28 123.489C222.953 117.99 224.512 112.377 225.932 106.814C226.109 106.143 226.325 105.408 226.553 104.635C227.605 101.062 228.923 96.6017 226.756 93.7128C224.525 90.7604 217.326 88.6444 215.183 88.0869C214.537 90.621 211.977 99.6554 207.224 105.269C202.47 110.882 197.477 110.628 195.727 110.337L191.266 125.986L191.278 125.973Z" fill="#231F20"/>
<path d="M222.763 119.523C222.763 119.523 220.913 118.89 216.299 113.479Z" fill="white"/>
<path d="M222.763 120.157H222.56C222.358 120.157 220.418 119.321 215.817 113.935C215.71 113.805 215.658 113.638 215.672 113.47C215.686 113.302 215.766 113.146 215.893 113.036C215.956 112.982 216.029 112.94 216.108 112.915C216.187 112.889 216.27 112.879 216.353 112.887C216.436 112.894 216.516 112.917 216.59 112.956C216.663 112.995 216.728 113.048 216.781 113.112C221.128 118.18 222.966 118.966 222.991 118.966C223.145 119.028 223.269 119.147 223.337 119.298C223.405 119.449 223.413 119.62 223.359 119.777C223.309 119.892 223.225 119.99 223.119 120.058C223.013 120.125 222.889 120.16 222.763 120.157Z" fill="#231F20"/>
<path d="M214.043 105.813C214.23 104.367 214.01 102.897 213.409 101.569C213.099 100.489 212.625 99.4627 212.002 98.5275C211.69 98.06 211.278 97.6675 210.796 97.3782C210.313 97.089 209.773 96.9103 209.214 96.855C208.709 96.8626 208.211 96.9799 207.756 97.1987C207.301 97.4175 206.899 97.7325 206.577 98.1221C205.927 98.8777 205.455 99.7697 205.196 100.732C204.579 102.821 204.525 105.035 205.04 107.151C205.554 109.267 206.618 111.209 208.124 112.782L207.895 112.364" fill="#FFB9B9"/>
<path d="M208.124 113.353C207.952 113.352 207.788 113.284 207.667 113.163C206.094 111.502 204.982 109.459 204.442 107.237C203.902 105.014 203.952 102.689 204.587 100.492C204.873 99.439 205.393 98.4644 206.108 97.6408C206.495 97.1941 206.974 96.837 207.512 96.5941C208.051 96.3512 208.636 96.2284 209.226 96.2343C209.885 96.289 210.522 96.4904 211.093 96.8237C211.663 97.157 212.151 97.6137 212.522 98.1603C213.173 99.1551 213.677 100.239 214.017 101.379C214.65 102.819 214.87 104.407 214.651 105.966C214.635 106.048 214.602 106.126 214.554 106.195C214.506 106.264 214.445 106.322 214.373 106.366C214.302 106.41 214.222 106.439 214.139 106.451C214.056 106.463 213.971 106.457 213.891 106.434C213.728 106.395 213.587 106.293 213.499 106.151C213.411 106.009 213.384 105.837 213.422 105.674C213.571 104.346 213.361 103.003 212.813 101.784C212.539 100.767 212.111 99.7971 211.546 98.9079C211.281 98.5017 210.926 98.1622 210.508 97.916C210.09 97.6698 209.621 97.5236 209.138 97.4888C208.73 97.4952 208.329 97.5877 207.959 97.7602C207.59 97.9327 207.262 98.1814 206.995 98.4898C206.393 99.1693 205.959 99.981 205.728 100.859C205.194 102.712 205.12 104.668 205.513 106.556C205.906 108.444 206.754 110.207 207.984 111.693C208.069 111.713 208.149 111.75 208.219 111.803C208.288 111.855 208.347 111.921 208.39 111.997L208.605 112.402C208.683 112.536 208.709 112.694 208.679 112.845C208.649 112.997 208.564 113.133 208.44 113.226C208.346 113.293 208.238 113.336 208.124 113.353Z" fill="#231F20"/>
<path d="M210.215 123.591C210.215 123.591 205.804 120.943 204.384 117.116C204.384 117.116 202.597 125.745 209.302 130.015L210.215 123.591Z" fill="#231F20"/>
<path d="M209.302 130.649C209.185 130.646 209.071 130.611 208.973 130.547C201.963 126.087 203.738 117.078 203.763 116.989C203.79 116.854 203.861 116.732 203.964 116.64C204.067 116.549 204.196 116.494 204.334 116.482C204.471 116.472 204.607 116.508 204.722 116.583C204.837 116.659 204.923 116.771 204.967 116.901C206.235 120.461 210.494 123.033 210.532 123.059C210.64 123.119 210.726 123.211 210.781 123.322C210.835 123.433 210.854 123.557 210.836 123.68L209.936 130.104C209.922 130.209 209.881 130.309 209.816 130.393C209.752 130.478 209.666 130.544 209.568 130.585C209.486 130.627 209.395 130.649 209.302 130.649ZM204.815 119.333C204.815 121.868 205.272 126.112 208.821 128.9L209.53 123.908C207.682 122.696 206.082 121.144 204.815 119.333Z" fill="#231F20"/>
<path d="M224.204 100.525C224.657 99.4786 224.692 98.4858 224.281 98.3077C223.87 98.1296 223.169 98.8337 222.715 99.8803C222.261 100.927 222.227 101.92 222.638 102.098C223.049 102.276 223.75 101.572 224.204 100.525Z" fill="#231F20"/>
<path d="M225.526 99.6553C225.384 99.6535 225.245 99.6045 225.133 99.5159L221.66 96.741C221.545 96.632 221.475 96.4837 221.463 96.3254C221.452 96.1671 221.501 96.0103 221.599 95.8861C221.698 95.7618 221.84 95.6792 221.997 95.6545C222.154 95.6297 222.314 95.6648 222.446 95.7527L225.919 98.5022C225.985 98.553 226.041 98.6165 226.082 98.689C226.123 98.7615 226.149 98.8415 226.158 98.9242C226.168 99.007 226.16 99.0908 226.137 99.1707C226.113 99.2506 226.074 99.3249 226.021 99.3892C225.964 99.4679 225.889 99.5326 225.804 99.5787C225.718 99.6248 225.623 99.651 225.526 99.6553V99.6553Z" fill="#231F20"/>
<path d="M251.903 216.76L209.606 212.718C209.532 212.713 209.46 212.694 209.394 212.66C209.328 212.626 209.269 212.58 209.222 212.523C209.175 212.466 209.139 212.4 209.118 212.329C209.097 212.258 209.091 212.183 209.099 212.11C209.106 212.036 209.127 211.965 209.161 211.9C209.195 211.835 209.241 211.777 209.298 211.73C209.355 211.682 209.42 211.647 209.49 211.625C209.561 211.604 209.635 211.596 209.708 211.603L252.004 215.645C252.152 215.645 252.294 215.704 252.399 215.808C252.503 215.913 252.562 216.055 252.562 216.202C252.562 216.35 252.503 216.492 252.399 216.597C252.294 216.701 252.152 216.76 252.004 216.76H251.903Z" fill="#231F20"/>
<path d="M421.089 140.177C421.089 140.177 442.218 148.337 440.532 157.283C438.847 166.228 430.392 199.452 430.392 199.452H423.434C423.434 199.452 434.588 162.047 433.929 157.283C433.27 152.518 421.038 148.172 421.038 148.172L421.089 140.177Z" fill="#65617D"/>
<path d="M430.443 200.085H423.484C423.386 200.086 423.288 200.064 423.2 200.02C423.112 199.976 423.036 199.911 422.977 199.832C422.921 199.752 422.883 199.66 422.865 199.564C422.847 199.468 422.851 199.369 422.876 199.274C426.679 186.388 433.853 161.033 433.358 157.371C432.864 153.71 424.182 149.946 420.873 148.768C420.751 148.724 420.645 148.643 420.57 148.536C420.495 148.43 420.455 148.303 420.455 148.172V140.177C420.455 140.074 420.48 139.973 420.529 139.882C420.578 139.791 420.648 139.714 420.734 139.658C420.817 139.597 420.914 139.558 421.016 139.544C421.118 139.531 421.221 139.544 421.317 139.581C422.204 139.924 442.928 148.046 441.153 157.397C439.468 166.266 431.14 199.274 431.013 199.616C430.983 199.746 430.911 199.862 430.807 199.947C430.704 200.032 430.576 200.08 430.443 200.085ZM424.334 198.818H429.949C430.975 194.713 438.34 165.405 439.911 157.169C441.293 149.82 425.614 142.749 421.723 141.115V147.729C424.156 148.629 433.967 152.544 434.613 157.194C435.26 161.844 426.007 193.179 424.334 198.818V198.818Z" fill="#231F20"/>
<path d="M418.693 65.3932V180.863H387.006V87.7827L418.693 65.3932V65.3932ZM418.693 64.1261C418.42 64.1225 418.154 64.2069 417.933 64.3669L386.245 86.7564C386.076 86.8784 385.938 87.038 385.841 87.2228C385.744 87.4075 385.691 87.6122 385.688 87.8208V180.863C385.688 181.199 385.821 181.522 386.059 181.759C386.297 181.997 386.619 182.13 386.955 182.13H418.643C418.979 182.13 419.301 181.997 419.539 181.759C419.777 181.522 419.91 181.199 419.91 180.863V65.3932C419.913 65.1536 419.848 64.9181 419.722 64.714C419.596 64.5099 419.416 64.3456 419.2 64.2402C419.017 64.1414 418.813 64.0892 418.605 64.0881L418.693 64.1261Z" fill="#65617D"/>
<path d="M423.484 65.3933H418.693V180.876H423.484V65.3933Z" fill="#65617D"/>
<path d="M423.484 65.3933V180.863H418.693V65.3933H423.484ZM423.484 64.1262H418.693C418.357 64.1262 418.035 64.2597 417.797 64.4973C417.559 64.735 417.426 65.0573 417.426 65.3933V180.863C417.426 181.199 417.559 181.522 417.797 181.759C418.035 181.997 418.357 182.13 418.693 182.13H423.484C423.821 182.13 424.143 181.997 424.381 181.759C424.618 181.522 424.752 181.199 424.752 180.863V65.3933C424.752 65.0573 424.618 64.735 424.381 64.4973C424.143 64.2597 423.821 64.1262 423.484 64.1262Z" fill="#231F20"/>
<path d="M436.261 197.183H405.321C404.565 197.183 403.952 197.796 403.952 198.552V198.932C403.952 199.688 404.565 200.3 405.321 200.3H436.261C437.017 200.3 437.63 199.688 437.63 198.932V198.552C437.63 197.796 437.017 197.183 436.261 197.183Z" fill="#65617D"/>
<path d="M436.261 200.934H405.321C404.79 200.934 404.281 200.723 403.905 200.348C403.529 199.972 403.318 199.463 403.318 198.932V198.603C403.318 198.34 403.37 198.081 403.471 197.838C403.572 197.596 403.72 197.376 403.906 197.191C404.092 197.007 404.313 196.86 404.556 196.761C404.799 196.662 405.059 196.612 405.321 196.613H436.261C436.523 196.612 436.783 196.662 437.026 196.761C437.269 196.86 437.49 197.007 437.676 197.191C437.862 197.376 438.01 197.596 438.111 197.838C438.212 198.081 438.263 198.34 438.263 198.603V198.995C438.247 199.515 438.029 200.008 437.655 200.37C437.281 200.732 436.781 200.934 436.261 200.934V200.934ZM405.321 197.817C405.128 197.817 404.943 197.893 404.806 198.028C404.668 198.163 404.589 198.347 404.586 198.539V198.932C404.586 199.127 404.663 199.314 404.801 199.452C404.939 199.59 405.126 199.667 405.321 199.667H436.261C436.456 199.667 436.643 199.59 436.781 199.452C436.919 199.314 436.996 199.127 436.996 198.932V198.603C436.993 198.41 436.914 198.226 436.776 198.091C436.639 197.956 436.454 197.88 436.261 197.88L405.321 197.817Z" fill="#231F20"/>
<path d="M449.253 200.301H374.103V214.682H449.253V200.301Z" fill="#E5E5E5"/>
<path d="M449.253 215.328H374.103C374.017 215.328 373.932 215.311 373.852 215.278C373.773 215.245 373.701 215.196 373.641 215.134C373.581 215.073 373.533 215 373.502 214.92C373.47 214.841 373.455 214.755 373.456 214.669V200.3C373.455 200.215 373.47 200.129 373.502 200.049C373.533 199.969 373.581 199.897 373.641 199.835C373.701 199.774 373.773 199.725 373.852 199.692C373.932 199.659 374.017 199.642 374.103 199.642H449.253C449.427 199.642 449.595 199.711 449.719 199.835C449.842 199.958 449.912 200.126 449.912 200.3V214.669C449.912 214.844 449.842 215.012 449.719 215.135C449.595 215.259 449.427 215.328 449.253 215.328V215.328ZM374.762 214.061H448.606V200.947H374.762V214.061Z" fill="#231F20"/>
<path d="M374.103 200.301L358.766 207.485V217.254L374.103 214.669V200.301Z" fill="#E5E5E5"/>
<path d="M358.766 217.913C358.611 217.91 358.463 217.851 358.348 217.748C358.272 217.69 358.211 217.615 358.17 217.529C358.128 217.444 358.106 217.349 358.107 217.254V207.472C358.109 207.347 358.145 207.226 358.212 207.12C358.279 207.015 358.375 206.931 358.487 206.877L373.824 199.692C373.924 199.645 374.035 199.625 374.145 199.632C374.256 199.639 374.363 199.674 374.456 199.733C374.55 199.792 374.626 199.874 374.68 199.971C374.733 200.068 374.762 200.177 374.762 200.288V214.657C374.764 214.812 374.71 214.962 374.61 215.081C374.51 215.2 374.37 215.278 374.217 215.303L358.88 217.837L358.766 217.913ZM359.425 207.903V216.481L373.456 214.124V201.327L359.425 207.903Z" fill="#231F20"/>
<path d="M374.103 214.669V298.132C374.103 298.132 447.694 298.842 447.694 298.132V214.669H374.103Z" fill="#E5E5E5"/>
<path d="M425.88 299.108C414.941 299.108 398.578 299.02 374.103 298.779C373.931 298.779 373.767 298.711 373.645 298.59C373.524 298.468 373.456 298.304 373.456 298.133V214.669C373.456 214.498 373.524 214.334 373.645 214.212C373.767 214.091 373.931 214.023 374.103 214.023H447.694C447.78 214.021 447.865 214.037 447.945 214.069C448.025 214.1 448.098 214.148 448.159 214.208C448.22 214.268 448.269 214.34 448.302 214.419C448.336 214.498 448.353 214.583 448.353 214.669V298.133C448.348 298.309 448.276 298.477 448.15 298.601C447.985 298.766 447.643 299.108 425.88 299.108ZM374.762 297.436C402.064 297.689 442.193 297.93 447.009 297.537V215.328H374.762V297.436Z" fill="#231F20"/>
<path d="M358.766 217.254V285.664L374.103 298.133V214.669L358.766 217.254Z" fill="#E5E5E5"/>
<path d="M374.103 298.779C373.956 298.777 373.814 298.728 373.697 298.639L358.348 286.171C358.272 286.11 358.211 286.033 358.169 285.945C358.128 285.857 358.106 285.761 358.107 285.664V217.241C358.107 217.087 358.162 216.937 358.262 216.819C358.362 216.701 358.5 216.622 358.652 216.595L374.001 214.061C374.096 214.048 374.192 214.055 374.283 214.081C374.375 214.107 374.46 214.152 374.534 214.213C374.604 214.275 374.661 214.351 374.7 214.436C374.739 214.521 374.76 214.613 374.762 214.707V298.17C374.762 298.292 374.727 298.412 374.662 298.515C374.597 298.618 374.504 298.701 374.394 298.753C374.301 298.785 374.2 298.794 374.103 298.779ZM359.425 285.36L373.456 296.764V215.442L359.425 217.812V285.36Z" fill="#231F20"/>
<path d="M388.185 164.226C388.037 164.224 387.895 164.17 387.783 164.076C387.67 163.981 387.592 163.851 387.563 163.707C387.534 163.542 387.571 163.373 387.665 163.235C387.76 163.097 387.906 163.003 388.07 162.972L416.627 157.511C416.71 157.495 416.796 157.496 416.879 157.513C416.962 157.53 417.041 157.564 417.111 157.611C417.181 157.659 417.241 157.72 417.287 157.791C417.333 157.862 417.366 157.941 417.381 158.024C417.397 158.107 417.396 158.193 417.379 158.276C417.362 158.359 417.329 158.437 417.281 158.507C417.233 158.577 417.172 158.637 417.101 158.684C417.031 158.73 416.951 158.762 416.868 158.778L388.311 164.239L388.185 164.226Z" fill="#00EAFF" fill-opacity="0.8"/>
<path d="M401.797 160.995C401.643 160.994 401.493 160.937 401.377 160.834C401.261 160.732 401.185 160.591 401.164 160.438C400.213 152.658 396.322 138.175 387.817 133.271C387.69 133.179 387.602 133.043 387.57 132.89C387.537 132.736 387.563 132.576 387.642 132.441C387.721 132.305 387.847 132.203 387.996 132.156C388.146 132.108 388.308 132.117 388.451 132.182C397.387 137.326 401.443 152.265 402.393 160.286C402.411 160.453 402.363 160.621 402.259 160.754C402.155 160.887 402.003 160.973 401.836 160.995H401.797Z" fill="#00EAFF" fill-opacity="0.8"/>
<path d="M408.629 137.402H408.503C408.421 137.385 408.343 137.353 408.274 137.306C408.205 137.26 408.146 137.2 408.1 137.131C408.055 137.061 408.023 136.983 408.007 136.902C407.991 136.82 407.992 136.736 408.008 136.654C410.645 124.313 416.285 122.108 416.526 122.019C416.682 121.962 416.855 121.968 417.007 122.037C417.159 122.105 417.277 122.231 417.337 122.387C417.368 122.465 417.382 122.548 417.38 122.632C417.378 122.716 417.36 122.799 417.325 122.876C417.291 122.952 417.242 123.021 417.181 123.079C417.12 123.136 417.048 123.181 416.969 123.21C416.969 123.21 411.722 125.352 409.25 136.92C409.216 137.059 409.136 137.182 409.024 137.269C408.911 137.356 408.772 137.403 408.629 137.402V137.402Z" fill="#00EAFF" fill-opacity="0.8"/>
<path d="M406.056 160.666C405.888 160.666 405.727 160.599 405.608 160.48C405.489 160.362 405.423 160.2 405.423 160.032C405.413 155.47 405.696 150.912 406.272 146.386C406.291 146.22 406.375 146.068 406.505 145.964C406.636 145.859 406.803 145.811 406.969 145.828C407.136 145.85 407.288 145.937 407.392 146.07C407.496 146.202 407.545 146.37 407.527 146.538C406.962 151.014 406.682 155.521 406.69 160.032C406.69 160.2 406.623 160.362 406.504 160.48C406.386 160.599 406.224 160.666 406.056 160.666Z" fill="#00EAFF" fill-opacity="0.8"/>
<path d="M390.466 96.3229C390.37 96.3475 390.27 96.3475 390.175 96.3229C390.072 96.2667 389.986 96.1843 389.926 96.0841C389.866 95.9839 389.834 95.8695 389.832 95.7527V91.736C389.833 91.6364 389.857 91.5383 389.903 91.4501C389.95 91.3619 390.017 91.2861 390.098 91.2292L403.407 81.7006C403.507 81.6415 403.621 81.6104 403.737 81.6104C403.853 81.6104 403.967 81.6415 404.066 81.7006C404.169 81.7568 404.255 81.8392 404.315 81.9394C404.375 82.0396 404.407 82.154 404.409 82.2708V86.3382C404.408 86.4396 404.384 86.5394 404.337 86.6297C404.291 86.7199 404.224 86.798 404.142 86.8577L390.834 96.2595C390.72 96.3156 390.592 96.3376 390.466 96.3229V96.3229ZM391.1 92.0654V94.4729L403.141 85.9581V83.4239L391.1 92.0654Z" fill="#00EAFF" fill-opacity="0.8"/>
<path d="M397.589 91.2925C397.422 91.2892 397.263 91.2215 397.145 91.1033C397.027 90.9852 396.959 90.826 396.956 90.6589V86.731C396.959 86.5639 397.027 86.4047 397.145 86.2866C397.263 86.1684 397.422 86.1007 397.589 86.0974C397.757 86.0974 397.919 86.1642 398.038 86.283C398.156 86.4018 398.223 86.5629 398.223 86.731V90.6589C398.223 90.827 398.156 90.9881 398.038 91.1069C397.919 91.2257 397.757 91.2925 397.589 91.2925Z" fill="#00EAFF" fill-opacity="0.8"/>
<path d="M412.685 81.2572C411.494 81.2572 410.556 79.9014 410.556 78.1655C410.556 76.4295 411.494 75.0864 412.685 75.0864C413.877 75.0864 414.827 76.4422 414.827 78.1655C414.827 79.8887 413.889 81.2572 412.685 81.2572ZM412.685 76.3535C412.33 76.3535 411.823 77.0631 411.823 78.1655C411.823 79.2678 412.33 79.9901 412.685 79.9901C413.04 79.9901 413.56 79.2805 413.56 78.1655C413.56 77.0504 413.04 76.3535 412.685 76.3535Z" fill="#00EAFF" fill-opacity="0.8"/>
<path d="M399.123 129.888C399.002 129.886 398.884 129.851 398.781 129.787C398.692 129.73 398.618 129.651 398.567 129.558C398.516 129.465 398.49 129.361 398.489 129.255V120.385C398.488 120.268 398.519 120.152 398.58 120.051C398.64 119.951 398.727 119.869 398.832 119.815C400.784 118.801 407.222 115.456 407.958 115.266C408.052 115.245 408.15 115.245 408.245 115.267C408.339 115.289 408.427 115.332 408.503 115.393C408.578 115.451 408.639 115.526 408.681 115.612C408.722 115.697 408.744 115.791 408.743 115.887V124.87C408.744 124.989 408.711 125.106 408.648 125.206C408.585 125.307 408.495 125.388 408.389 125.441L399.402 129.761C399.319 129.822 399.224 129.866 399.123 129.888V129.888ZM399.757 120.828V128.241L407.476 124.541V116.939C405.866 117.673 402.267 119.511 399.757 120.828V120.828Z" fill="#00EAFF" fill-opacity="0.8"/>
<path d="M394.623 112.846C394.507 112.848 394.393 112.818 394.294 112.757C394.202 112.699 394.126 112.618 394.073 112.523C394.02 112.428 393.991 112.321 393.99 112.212V103.406C393.992 103.291 394.025 103.179 394.085 103.081C394.145 102.983 394.23 102.903 394.332 102.848C396.284 101.822 402.723 98.4897 403.458 98.2996C403.552 98.2768 403.649 98.2752 403.743 98.295C403.838 98.3147 403.926 98.3552 404.003 98.4137C404.079 98.4746 404.14 98.5518 404.181 98.6396C404.223 98.7273 404.244 98.8233 404.244 98.9205V107.904C404.244 108.023 404.211 108.139 404.148 108.24C404.085 108.341 403.996 108.422 403.889 108.474L394.902 112.782C394.817 112.829 394.72 112.851 394.623 112.846ZM395.257 103.786V111.173L402.976 107.461V99.8581C401.367 100.644 397.78 102.481 395.257 103.786V103.786Z" fill="#00EAFF" fill-opacity="0.8"/>
<path d="M391.214 163.529C391.157 163.536 391.099 163.53 391.045 163.513C390.99 163.495 390.94 163.466 390.897 163.428C390.757 163.329 390.662 163.179 390.631 163.01C390.486 161.837 390.414 160.656 390.415 159.475C390.371 158.701 390.551 157.931 390.935 157.257C391.199 156.897 391.553 156.613 391.962 156.434C391.787 156.159 391.683 155.846 391.657 155.521C391.578 154.835 391.769 154.144 392.19 153.595C392.388 153.342 392.639 153.134 392.925 152.987C393.303 152.806 393.721 152.726 394.138 152.755C394.556 152.784 394.959 152.921 395.308 153.152C395.627 153.359 395.885 153.649 396.054 153.99C396.224 154.331 396.299 154.711 396.271 155.091C396.26 155.395 396.182 155.694 396.043 155.965C396.2 156.027 396.349 156.108 396.487 156.206C396.861 156.485 397.15 156.862 397.323 157.295C397.536 157.921 397.688 158.566 397.779 159.221C397.843 159.538 397.894 159.804 397.932 159.931C397.97 160.058 398.033 160.691 398.122 161.717C398.137 161.874 398.094 162.031 398 162.157C397.907 162.284 397.769 162.371 397.615 162.402C392.925 163.263 391.657 163.529 391.214 163.529ZM393.977 153.975C393.802 153.975 393.628 154.014 393.47 154.09V154.09C393.339 154.165 393.226 154.269 393.14 154.394C392.92 154.669 392.816 155.019 392.849 155.369C392.867 155.498 392.921 155.62 393.003 155.72C393.086 155.821 393.195 155.897 393.318 155.939C393.44 155.963 393.553 156.022 393.641 156.11C393.729 156.199 393.789 156.311 393.812 156.434C393.833 156.557 393.818 156.683 393.769 156.798C393.719 156.913 393.637 157.011 393.533 157.08C393.293 157.232 393.038 157.359 392.773 157.46C392.473 157.547 392.204 157.718 392 157.954C391.759 158.428 391.65 158.957 391.683 159.487C391.683 160.235 391.683 161.299 391.81 162.186C392.862 161.996 395.105 161.565 396.804 161.223C396.804 160.742 396.727 160.298 396.702 160.197C396.677 160.096 396.613 159.766 396.537 159.424C396.45 158.868 396.327 158.318 396.17 157.777C396.081 157.547 395.932 157.346 395.739 157.194C395.448 157.034 395.12 156.951 394.788 156.953C394.653 156.941 394.526 156.887 394.423 156.798C394.321 156.709 394.249 156.591 394.218 156.459C394.186 156.326 394.199 156.186 394.254 156.06C394.309 155.934 394.403 155.83 394.522 155.762C394.66 155.682 394.777 155.57 394.863 155.436C394.949 155.301 395.002 155.148 395.016 154.989C395.025 154.829 394.992 154.669 394.921 154.524C394.85 154.38 394.743 154.257 394.611 154.166C394.423 154.042 394.202 153.976 393.977 153.975V153.975Z" fill="#00EAFF" fill-opacity="0.8"/>
<path d="M416.741 152.506C416.617 152.503 416.495 152.465 416.392 152.395C416.288 152.326 416.207 152.228 416.158 152.113C416.158 152.037 413.56 145.651 409.821 146.17C408.33 146.396 406.921 146.998 405.727 147.919C404.687 148.628 403.711 149.3 402.507 148.438C402.301 148.296 402.132 148.107 402.013 147.887C401.894 147.667 401.829 147.421 401.823 147.171C401.82 146.816 401.885 146.464 402.013 146.132C401.884 146.164 401.749 146.164 401.62 146.132C401.42 146.048 401.245 145.916 401.108 145.748C400.971 145.58 400.877 145.382 400.834 145.169C400.517 143.775 401.683 141.368 403.965 138.834C407.184 135.235 416.26 133.765 416.64 133.765C416.806 133.743 416.974 133.786 417.109 133.886C417.243 133.985 417.334 134.133 417.362 134.298C417.384 134.463 417.341 134.631 417.242 134.766C417.143 134.901 416.995 134.992 416.83 135.02C416.741 135.02 407.818 136.464 404.89 139.733C401.962 143.003 401.886 144.726 402.089 144.966C402.6 144.714 403.063 144.376 403.458 143.965C403.853 143.517 404.277 143.094 404.725 142.698C404.846 142.594 405.001 142.538 405.161 142.543C405.321 142.548 405.472 142.613 405.586 142.725C405.7 142.837 405.767 142.988 405.774 143.148C405.782 143.307 405.728 143.463 405.625 143.585C405.229 144.033 404.806 144.456 404.358 144.852C403.721 145.483 403.281 146.284 403.09 147.159C403.093 147.212 403.108 147.263 403.135 147.31C403.161 147.356 403.198 147.395 403.242 147.425C403.673 147.729 403.952 147.615 405.017 146.88C406.381 145.842 407.985 145.166 409.681 144.916C414.371 144.257 417.223 151.34 417.286 151.644C417.317 151.721 417.332 151.804 417.331 151.887C417.33 151.971 417.313 152.053 417.28 152.129C417.247 152.206 417.199 152.275 417.139 152.333C417.079 152.391 417.009 152.437 416.931 152.468C416.87 152.489 416.806 152.501 416.741 152.506V152.506Z" fill="#00EAFF" fill-opacity="0.8"/>
<path d="M406.056 141.583C405.927 141.582 405.802 141.541 405.696 141.467C405.591 141.392 405.511 141.288 405.467 141.166C405.423 141.045 405.417 140.913 405.45 140.789C405.483 140.664 405.553 140.552 405.651 140.468L406.487 139.746C406.615 139.637 406.781 139.583 406.948 139.596C407.116 139.609 407.272 139.688 407.381 139.816C407.49 139.943 407.544 140.109 407.531 140.277C407.518 140.444 407.439 140.6 407.311 140.709L406.475 141.431C406.357 141.529 406.209 141.583 406.056 141.583V141.583Z" fill="#00EAFF" fill-opacity="0.8"/>
<path d="M397.488 157.967C397.323 157.952 397.168 157.879 397.052 157.761C396.936 157.642 396.866 157.486 396.854 157.321C397.133 155.788 397.518 154.276 398.008 152.797C398.03 152.714 398.069 152.636 398.121 152.568C398.174 152.499 398.24 152.442 398.314 152.399C398.389 152.356 398.472 152.329 398.557 152.317C398.642 152.306 398.729 152.312 398.813 152.335C398.896 152.357 398.974 152.396 399.042 152.448C399.11 152.501 399.168 152.567 399.211 152.641C399.254 152.716 399.281 152.798 399.292 152.884C399.303 152.969 399.298 153.056 399.275 153.139C398.768 154.977 398.21 157.08 398.172 157.346C398.174 157.426 398.16 157.505 398.131 157.58C398.102 157.654 398.059 157.722 398.003 157.78C397.948 157.838 397.882 157.884 397.809 157.916C397.735 157.948 397.657 157.965 397.577 157.967H397.488Z" fill="#00EAFF" fill-opacity="0.8"/>
<path d="M370.934 219.649L361.668 221.093V283.472L370.934 289.808V219.649Z" fill="#231F20"/>
<path d="M370.934 290.441C370.807 290.441 370.683 290.401 370.579 290.327L361.314 283.992C361.227 283.936 361.156 283.859 361.107 283.768C361.058 283.677 361.033 283.575 361.035 283.472V221.093C361.033 220.943 361.086 220.797 361.184 220.683C361.282 220.569 361.418 220.494 361.567 220.473L370.845 219.028C370.935 219.015 371.026 219.021 371.113 219.045C371.2 219.069 371.282 219.111 371.352 219.167C371.419 219.229 371.473 219.303 371.51 219.386C371.547 219.469 371.567 219.558 371.568 219.649V289.833C371.567 289.947 371.536 290.058 371.478 290.156C371.42 290.254 371.337 290.335 371.238 290.391C371.142 290.431 371.038 290.448 370.934 290.441V290.441ZM362.302 283.143L370.3 288.604V220.397L362.302 221.664V283.143Z" fill="#231F20"/>
<path d="M370.934 253.772H370.718L361.846 250.541C361.757 250.522 361.674 250.484 361.601 250.43C361.528 250.376 361.467 250.307 361.424 250.228C361.38 250.148 361.353 250.06 361.346 249.97C361.339 249.88 361.352 249.789 361.383 249.704C361.414 249.618 361.463 249.541 361.527 249.476C361.591 249.412 361.667 249.362 361.752 249.329C361.837 249.297 361.928 249.283 362.018 249.289C362.109 249.295 362.197 249.32 362.277 249.362L371.149 252.593C371.227 252.62 371.299 252.663 371.36 252.717C371.421 252.772 371.471 252.839 371.507 252.913C371.542 252.987 371.562 253.068 371.566 253.15C371.57 253.232 371.558 253.314 371.53 253.392C371.482 253.509 371.399 253.609 371.293 253.677C371.186 253.745 371.06 253.778 370.934 253.772V253.772Z" fill="#E5E5E5"/>
<path d="M370.934 287.299C370.813 287.295 370.695 287.26 370.592 287.198L363.608 282.725C363.52 282.663 363.448 282.582 363.397 282.487C363.346 282.392 363.319 282.287 363.316 282.18L363.595 268.913C363.597 268.81 363.625 268.708 363.676 268.617C363.727 268.527 363.799 268.45 363.887 268.394C363.98 268.344 364.085 268.318 364.191 268.318C364.297 268.318 364.401 268.344 364.495 268.394L371.2 271.511C371.285 271.539 371.363 271.585 371.429 271.645C371.495 271.706 371.547 271.779 371.583 271.861C371.618 271.944 371.636 272.032 371.635 272.122C371.633 272.211 371.613 272.299 371.575 272.38C371.537 272.461 371.483 272.533 371.415 272.592C371.347 272.65 371.268 272.694 371.182 272.719C371.097 272.745 371.006 272.752 370.918 272.74C370.829 272.729 370.744 272.698 370.668 272.651L364.837 269.952L364.584 281.888L371.276 286.171C371.417 286.262 371.516 286.405 371.552 286.569C371.588 286.733 371.557 286.904 371.466 287.045C371.406 287.129 371.326 287.197 371.233 287.241C371.14 287.285 371.037 287.305 370.934 287.299V287.299Z" fill="#E5E5E5"/>
<path d="M364.229 269.56C364.146 269.57 364.061 269.565 363.98 269.543C363.899 269.521 363.823 269.484 363.757 269.432C363.69 269.381 363.634 269.317 363.592 269.245C363.551 269.172 363.523 269.092 363.513 269.008C363.502 268.925 363.508 268.841 363.529 268.76C363.551 268.679 363.589 268.603 363.64 268.536C363.691 268.47 363.755 268.414 363.828 268.372C363.901 268.33 363.981 268.303 364.064 268.293L370.782 266.531C370.861 266.51 370.943 266.505 371.024 266.516C371.105 266.527 371.184 266.554 371.254 266.595C371.325 266.636 371.387 266.691 371.436 266.756C371.486 266.821 371.522 266.896 371.542 266.975C371.585 267.136 371.562 267.308 371.479 267.452C371.396 267.597 371.259 267.703 371.099 267.748L364.381 269.522L364.229 269.56Z" fill="#E5E5E5"/>
<path d="M361.668 283.498C361.5 283.523 361.329 283.48 361.192 283.379C361.056 283.278 360.965 283.127 360.94 282.959C360.914 282.791 360.957 282.62 361.058 282.483C361.159 282.347 361.31 282.256 361.478 282.231L363.76 281.521C363.921 281.473 364.095 281.49 364.244 281.568C364.393 281.646 364.506 281.779 364.558 281.939C364.606 282.099 364.589 282.271 364.51 282.418C364.432 282.565 364.299 282.675 364.14 282.725L361.859 283.434C361.8 283.468 361.735 283.49 361.668 283.498V283.498Z" fill="#E5E5E5"/>
<path d="M336.623 311.374C331.071 311.374 327.395 307.851 326.635 304.316C326.524 303.851 326.469 303.375 326.47 302.897C324.486 302.117 322.588 301.137 320.804 299.97C314.188 295.649 308.788 288.655 304.327 278.569C293.363 253.962 293.376 226.871 293.388 200.681V199.933C293.388 182.194 291.259 158.562 272.589 157.637C272.505 157.634 272.424 157.615 272.348 157.58C272.272 157.545 272.204 157.495 272.148 157.434C272.091 157.373 272.047 157.301 272.019 157.223C271.99 157.145 271.977 157.062 271.98 156.979C271.985 156.895 272.006 156.814 272.043 156.739C272.079 156.664 272.13 156.597 272.192 156.541C272.255 156.486 272.327 156.444 272.406 156.416C272.485 156.389 272.569 156.378 272.652 156.383C292.4 157.359 294.668 181.725 294.656 199.933V200.681C294.656 226.745 294.656 253.696 305.48 278.049C309.878 287.907 315.126 294.737 321.527 298.918C323.128 299.969 324.825 300.864 326.597 301.592C327.078 299.058 329.068 296.916 332.262 295.522C335.241 294.255 338.866 294.027 343.34 294.965C344.654 295.124 345.884 295.697 346.851 296.599C347.203 296.986 347.471 297.441 347.639 297.936C347.807 298.431 347.871 298.955 347.827 299.476C347.726 300.884 347.08 302.197 346.028 303.138C344.19 304.479 341.964 305.182 339.69 305.14C335.638 305.318 331.59 304.72 327.763 303.378C327.788 303.608 327.827 303.837 327.877 304.063C328.536 307.066 331.882 310.17 336.863 310.119C353.696 309.802 366.713 292.988 369.134 277.593C369.159 277.425 369.25 277.274 369.387 277.173C369.524 277.072 369.695 277.029 369.863 277.055C370.031 277.08 370.182 277.171 370.283 277.307C370.384 277.444 370.427 277.615 370.402 277.783C367.867 293.685 354.393 311.057 336.914 311.374H336.623ZM327.75 302.048C331.54 303.418 335.562 304.034 339.589 303.86C341.575 303.914 343.524 303.318 345.14 302.162C345.942 301.452 346.434 300.455 346.509 299.387C346.545 299.036 346.508 298.68 346.399 298.344C346.29 298.008 346.111 297.699 345.875 297.436C345.079 296.736 344.089 296.295 343.036 296.169C338.828 295.294 335.431 295.459 332.719 296.65C330.006 297.841 328.13 299.869 327.788 302.073L327.75 302.048Z" fill="#00EAFF"/>
</svg>
