<svg viewBox="0 0 1099 633" xmlns="http://www.w3.org/2000/svg">
<g clip-path="url(#clip0)">
<path d="M549.375 632.37C852.786 632.37 1098.75 618.224 1098.75 600.774C1098.75 583.323 852.786 569.177 549.375 569.177C245.964 569.177 0 583.323 0 600.774C0 618.224 245.964 632.37 549.375 632.37Z" fill="#F2F2F2"/>
<path d="M1000.29 0H174.967V26.257H1000.29V0Z" fill="#F2F2F2"/>
<path d="M197.053 19.537C200.806 19.537 203.848 16.4945 203.848 12.7415C203.848 8.98848 200.806 5.94604 197.053 5.94604C193.3 5.94604 190.257 8.98848 190.257 12.7415C190.257 16.4945 193.3 19.537 197.053 19.537Z" fill="#00EAFF"/>
<path d="M219.138 19.537C222.891 19.537 225.933 16.4945 225.933 12.7415C225.933 8.98848 222.891 5.94604 219.138 5.94604C215.385 5.94604 212.342 8.98848 212.342 12.7415C212.342 16.4945 215.385 19.537 219.138 19.537Z" fill="#00EAFF"/>
<path d="M241.223 19.537C244.976 19.537 248.019 16.4945 248.019 12.7415C248.019 8.98848 244.976 5.94604 241.223 5.94604C237.47 5.94604 234.428 8.98848 234.428 12.7415C234.428 16.4945 237.47 19.537 241.223 19.537Z" fill="#00EAFF"/>
<path d="M175.552 415.277L174.967 415.779V592.903H1000.28V281.779L990.449 282.525L175.552 415.277Z" fill="#3F3D56"/>
<path d="M464.999 175.641H234.529V184.934H464.999V175.641Z" fill="#3F3D56"/>
<path d="M464.999 196.086H234.529V205.379H464.999V196.086Z" fill="#3F3D56"/>
<path d="M312.591 216.531H234.529V225.824H312.591V216.531Z" fill="#3F3D56"/>
<path d="M934.999 433.641H704.529V442.934H934.999V433.641Z" fill="white"/>
<path d="M934.999 454.086H704.529V463.379H934.999V454.086Z" fill="white"/>
<path d="M782.591 474.531H704.529V483.824H782.591V474.531Z" fill="white"/>
<path d="M561.336 584.335C566.342 584.335 570.401 580.276 570.401 575.269C570.401 570.262 566.342 566.203 561.336 566.203C556.329 566.203 552.27 570.262 552.27 575.269C552.27 580.276 556.329 584.335 561.336 584.335Z" fill="#F2F2F2"/>
<path d="M587.626 585.241C592.633 585.241 596.692 581.183 596.692 576.176C596.692 571.169 592.633 567.11 587.626 567.11C582.619 567.11 578.56 571.169 578.56 576.176C578.56 581.183 582.619 585.241 587.626 585.241Z" fill="#F2F2F2"/>
<path d="M613.917 586.148C618.924 586.148 622.983 582.089 622.983 577.082C622.983 572.075 618.924 568.017 613.917 568.017C608.91 568.017 604.851 572.075 604.851 577.082C604.851 582.089 608.91 586.148 613.917 586.148Z" fill="#F2F2F2"/>
<path d="M587.709 583.428C591.715 583.428 594.962 580.181 594.962 576.176C594.962 572.17 591.715 568.923 587.709 568.923C583.704 568.923 580.457 572.17 580.457 576.176C580.457 580.181 583.704 583.428 587.709 583.428Z" fill="#3F3D56"/>
<path d="M388.591 282.014H310.529V299.824H388.591V282.014Z" fill="#3F3D56"/>
<path d="M852.591 523.014H774.529V540.824H852.591V523.014Z" fill="white"/>
<path opacity="0.3" d="M350 345.014C379.823 345.014 404 320.837 404 291.014C404 261.19 379.823 237.014 350 237.014C320.177 237.014 296 261.19 296 291.014C296 320.837 320.177 345.014 350 345.014Z" fill="#00EAFF"/>
<path opacity="0.3" d="M350 327.014C369.882 327.014 386 310.896 386 291.014C386 271.131 369.882 255.014 350 255.014C330.118 255.014 314 271.131 314 291.014C314 310.896 330.118 327.014 350 327.014Z" fill="#00EAFF"/>
<path d="M350 316.014C363.807 316.014 375 304.821 375 291.014C375 277.207 363.807 266.014 350 266.014C336.193 266.014 325 277.207 325 291.014C325 304.821 336.193 316.014 350 316.014Z" fill="#00EAFF"/>
<path opacity="0.3" d="M804.375 211.185C834.198 211.185 858.375 187.009 858.375 157.185C858.375 127.362 834.198 103.185 804.375 103.185C774.552 103.185 750.375 127.362 750.375 157.185C750.375 187.009 774.552 211.185 804.375 211.185Z" fill="#00EAFF"/>
<path opacity="0.3" d="M804.375 193.185C824.257 193.185 840.375 177.068 840.375 157.185C840.375 137.303 824.257 121.185 804.375 121.185C784.493 121.185 768.375 137.303 768.375 157.185C768.375 177.068 784.493 193.185 804.375 193.185Z" fill="#00EAFF"/>
<path d="M804.375 182.185C818.182 182.185 829.375 170.992 829.375 157.185C829.375 143.378 818.182 132.185 804.375 132.185C790.568 132.185 779.375 143.378 779.375 157.185C779.375 170.992 790.568 182.185 804.375 182.185Z" fill="#00EAFF"/>
<path opacity="0.3" d="M814 586.014C843.823 586.014 868 561.837 868 532.014C868 502.19 843.823 478.014 814 478.014C784.177 478.014 760 502.19 760 532.014C760 561.837 784.177 586.014 814 586.014Z" fill="#00EAFF"/>
<path opacity="0.3" d="M814 568.014C833.882 568.014 850 551.896 850 532.014C850 512.131 833.882 496.014 814 496.014C794.118 496.014 778 512.131 778 532.014C778 551.896 794.118 568.014 814 568.014Z" fill="#00EAFF"/>
<path d="M814 557.014C827.807 557.014 839 545.821 839 532.014C839 518.207 827.807 507.014 814 507.014C800.193 507.014 789 518.207 789 532.014C789 545.821 800.193 557.014 814 557.014Z" fill="#00EAFF"/>
<path d="M89.9221 109.361L112.148 110.223L113.256 81.6474L91.0303 80.7855L89.9221 109.361Z" fill="#00EAFF"/>
<path d="M191.29 180.864C191.29 180.864 222.069 166.158 221.576 178.859C221.084 191.559 190.551 199.915 190.551 199.915L191.29 180.864Z" fill="#FFB9B9"/>
<path d="M174.403 288.325C174.403 288.325 188.924 323.866 194.29 349.513C199.655 375.16 207.826 410.456 197.315 435.487C186.805 460.518 156.924 534.086 156.616 542.024C156.308 549.962 159.175 558.023 152.825 557.776C146.475 557.53 111.918 546.65 110.515 541.826C109.113 537.002 122.305 524.794 122.305 524.794L154.883 422.712L120.893 356.207L96.3767 455.422L91.5749 579.25C91.5749 579.25 68.008 571.977 64.5866 578.204C64.5866 578.204 54.0279 563.485 52.6866 557.073C51.3453 550.661 57.6731 428.482 57.6731 428.482C57.6731 428.482 36.0408 289.319 53.5038 289.996C70.9667 290.673 139.367 248.808 174.403 288.325Z" fill="#2F2E41"/>
<path d="M153.071 551.426C153.071 551.426 169.18 587.029 170.706 588.678C172.232 590.327 182.729 606.634 174.791 606.326C166.854 606.018 148.111 597.342 134.315 584.087C120.52 570.833 102.331 547.869 103.98 546.343C105.63 544.817 116.927 540.485 116.927 540.485L153.071 551.426Z" fill="#2F2E41"/>
<path d="M88.7076 571.189C88.7076 571.189 89.6795 587.126 92.6084 593.599C95.5372 600.073 95.1678 609.598 87.2301 609.29C79.2924 608.982 58.7775 605.007 58.7775 605.007C58.7775 605.007 57.5593 595.42 59.2084 593.894C60.8575 592.368 67.8849 575.151 64.8945 570.266C61.9041 565.38 88.7076 571.189 88.7076 571.189Z" fill="#2F2E41"/>
<path d="M76.9644 54.0061C76.9644 54.0061 60.0424 80.3787 53.446 86.4827C46.8495 92.5866 65.4076 106.026 65.4076 106.026L98.6229 110.494C98.6229 110.494 98.205 80.2686 99.9157 77.1551C101.626 74.0416 76.9644 54.0061 76.9644 54.0061Z" fill="#FFB9B9"/>
<path d="M105.835 88.5142C105.835 88.5142 98.9923 100.968 92.6421 100.722C86.2919 100.476 53.446 86.4827 52.0431 81.6585C50.6402 76.8343 41.1635 116.215 41.1635 116.215L121.535 257.656L141.14 244.107L131.64 161.062L123.839 116.241L105.835 88.5142Z" fill="#00EAFF"/>
<path d="M49.0786 215.098C52.2846 221.804 54.287 228.798 54.0093 235.958C53.997 236.276 53.9847 236.593 53.9565 236.91C53.196 251.603 47.7831 268.596 45.8412 280.954C44.4321 289.819 44.8331 296.29 50.0209 297.811C62.5981 301.478 48.1871 304.099 96.8469 320.296C145.507 336.492 153.998 322.512 154.122 319.337C154.245 316.162 147.23 292.041 148.88 290.515C150.529 288.989 171.954 310.489 178.427 307.56C184.901 304.631 179.166 288.509 179.166 288.509C179.166 288.509 164.583 254.555 164.891 246.618C165.199 238.68 142.802 201.243 142.802 201.243L127.568 102.076C127.568 102.076 121.71 89.1298 113.834 87.2344C105.958 85.3391 99.4232 89.8554 99.4232 89.8554L112.603 118.985L126.508 170.402L124.182 189.391C124.182 189.391 108.012 155.376 97.3917 142.244C86.7714 129.113 64.1279 98.0264 64.1279 98.0264C64.1279 98.0264 58.8414 80.189 62.8322 74.8584C66.8236 69.5121 46.1855 68.7118 37.3859 90.6296C32.7221 102.246 25.1501 119.569 20.4067 135.698C16.1799 149.986 14.1833 163.344 18.3708 170.979C24.771 182.643 40.8708 197.974 49.0786 215.098Z" fill="#575A89"/>
<path opacity="0.1" d="M18.3708 170.979C24.771 182.643 40.8708 197.974 49.0786 215.098C51.2224 207.374 53.8377 199.383 53.8377 199.383C53.8377 199.383 63.8685 145.714 34.1977 131.844C29.2814 131.369 24.3645 132.743 20.4066 135.698C16.1798 149.986 14.1832 163.344 18.3708 170.979Z" fill="black"/>
<path d="M136.157 167.597L161.311 174.932L196.237 176.286L199.83 206.634L142.432 210.768C142.432 210.768 128.096 170.464 136.157 167.597Z" fill="#575A89"/>
<path d="M95.139 269.636C95.139 269.636 128.791 275.219 121.11 285.346C113.429 295.473 83.618 284.826 83.618 284.826L95.139 269.636Z" fill="#FFB9B9"/>
<path opacity="0.1" d="M53.9565 236.91C53.1959 251.603 47.7831 268.596 45.8412 280.954C56.5613 291.1 66.7555 300.05 70.5974 300.199C78.5351 300.506 91.297 299.411 95.9981 301.184C100.699 302.956 103.456 272.854 103.456 272.854C103.456 272.854 100.651 263.206 88.135 257.951C79.6872 254.395 63.494 244.752 53.9565 236.91Z" fill="black"/>
<path d="M34.567 122.319C34.567 122.319 7.7019 118.097 9.15325 162.672C10.6046 207.246 6.3214 235.699 17.1264 244.067C27.9314 252.436 63.029 290.365 70.9667 290.673C78.9044 290.981 91.6664 289.886 96.3674 291.658C101.068 293.431 103.826 263.329 103.826 263.329C103.826 263.329 101.02 253.68 88.5043 248.425C75.9887 243.17 46.5025 224.537 46.7487 218.187C46.995 211.837 54.207 189.858 54.207 189.858C54.207 189.858 64.2379 136.189 34.567 122.319Z" fill="#575A89"/>
<path d="M100.654 93.0568C119.958 93.0568 135.607 77.4081 135.607 58.1046C135.607 38.801 119.958 23.1523 100.654 23.1523C81.3508 23.1523 65.7022 38.801 65.7022 58.1046C65.7022 77.4081 81.3508 93.0568 100.654 93.0568Z" fill="#FFB9B9"/>
<path d="M124.189 8.00799C125.032 8.73434 126.041 9.24097 127.127 9.48276C127.673 9.57997 128.234 9.45751 128.69 9.14211C129.145 8.82671 129.457 8.34398 129.558 7.79931C130.357 9.45772 131.26 11.2252 132.892 12.0762C134.525 12.9272 137.05 12.2136 137.285 10.3876C137.523 11.774 138.137 13.0688 139.059 14.1315C140.072 15.0973 141.909 15.3411 142.793 14.2563C142.078 18.1638 142.519 22.1822 142.295 26.1481C142.07 30.1141 141.013 34.3186 138.016 36.9266C133.646 40.7299 127.075 39.7912 121.327 39.0706C120.458 38.8882 119.556 38.9376 118.712 39.2137C116.559 40.1307 116.657 43.1268 116.628 45.4661C116.452 49.5707 114.828 53.4803 112.043 56.5006C109.258 59.5209 105.493 61.4565 101.416 61.9636C99.1342 62.3158 96.8061 61.7476 94.9433 60.384C93.3112 59.0006 92.4776 56.7459 90.6075 55.7067C87.5654 54.0163 83.8759 56.4816 81.6518 59.1583C79.4276 61.8351 77.2356 65.1277 73.7901 65.6177C69.2332 66.2657 65.7624 61.6217 64.0596 57.3455C61.7103 51.3521 60.5848 44.949 60.7493 38.5137C60.9139 32.0784 62.3653 25.7412 65.018 19.8757C74.5329 -0.865362 107.036 -4.14597 124.189 8.00799Z" fill="#2F2E41"/>
<path d="M963.222 563.769C975.532 584.762 1000.36 593.073 1000.36 593.073C1000.36 593.073 1005.23 567.349 992.918 546.356C980.608 525.364 955.781 517.053 955.781 517.053C955.781 517.053 950.913 542.777 963.222 563.769Z" fill="#F2F2F2"/>
<path d="M970.904 556.443C992.192 568.233 1001.11 592.848 1001.11 592.848C1001.11 592.848 975.513 598.347 954.225 586.557C932.937 574.766 924.018 550.151 924.018 550.151C924.018 550.151 949.615 544.652 970.904 556.443Z" fill="#00EAFF"/>
</g>
<defs>
<clipPath id="clip0">
<rect width="1098.75" height="632.37" fill="white"/>
</clipPath>
</defs>
</svg>
