<?xml version="1.0" encoding="UTF-8"?>
<svg viewBox="0 0 1020 669" xmlns="http://www.w3.org/2000/svg">
<g clip-path="url(#a)">
<path d="m19.75 213.04c-7.68 23.25 14.9 44.16 32.66 61 24.31 23.102 43.491 51.057 56.3 82.05 7.72 18.73 13.09 38.88 11.65 59.09-4.08 57.32-58.06 95.51-101.19 133.48-6.11 5.43-12.22 11.11-15.78 18.43-11.43 23.49 8 50.56 29.4 65.54 76.21 53.32 186.21 37.46 260.13-18.99 38.28-29.24 71.18-69 117.57-82 29.66-8.27 61.14-4.35 91.83-1.8 46.017 3.813 92.246 4.361 138.34 1.64 16.18-1 33.1-2.56 46.65-11.45 34.31-22.48 28.52-75.78 53.28-108.48 17.8-23.5 48.21-32.56 74.68-45.55 40.743-20.104 74.74-51.652 97.83-90.78 21.25-36.17 32.26-77.29 43-117.83 8.1-30.46 16.23-62.36 9.37-93.13s-33.94-59.5-65.34-56.8c-24.11 2.07-43.29 21.12-66.51 27.94-55.62 16.38-109.62-40.51-167.32-35.02-36.33 3.45-65.63 31-87.78 60s-40.9 61.65-70.15 83.49c-45.5 34-107.84 35.2-163.54 24.19s-109.14-32.68-165.46-39.9c-33.18-4.25-58.61 15.52-88.49 26.39-27.42 9.98-60.97 27.74-71.13 58.49z" fill="#00EAFF" opacity=".1"/>
<path d="m137.95 668.18c40.173 0 72.74-9.894 72.74-22.1 0-12.205-32.567-22.1-72.74-22.1-40.173 0-72.74 9.895-72.74 22.1 0 12.206 32.567 22.1 72.74 22.1z" fill="#00EAFF" opacity=".1"/>
<path d="m825.73 376.31c107.29 0 194.27-5.771 194.27-12.89s-86.978-12.89-194.27-12.89-194.27 5.771-194.27 12.89 86.978 12.89 194.27 12.89z" fill="#00EAFF" opacity=".1"/>
<g fill="#00EAFF" opacity=".5">
<path d="m708.28 68.4c2.695 0 5.279 1.0704 7.184 2.9758 1.906 1.9054 2.976 4.4896 2.976 7.1842v282.5h-20.32v-282.51c3e-3 -2.6928 1.074-5.2745 2.979-7.1777s4.488-2.9723 7.181-2.9723z" opacity=".5"/>
<path d="m931.21 68.4c2.695 0 5.279 1.0704 7.184 2.9758 1.906 1.9054 2.976 4.4896 2.976 7.1842v282.5h-20.37v-282.51c1e-3 -1.3376 0.267-2.6618 0.781-3.8965 0.514-1.2348 1.267-2.3559 2.216-3.2989 0.949-0.9431 2.074-1.6895 3.312-2.1965 1.238-0.5071 2.563-0.7647 3.901-0.7581z" opacity=".5"/>
<path d="m990.51 131.55c5.611 0 10.16-4.549 10.16-10.16s-4.549-10.16-10.16-10.16h-341.52c-5.611 0-10.16 4.549-10.16 10.16s4.549 10.16 10.16 10.16h341.52z" opacity=".5"/>
<path d="m692.08 91.18c0-4.3962-3.564-7.96-7.96-7.96s-7.96 3.5638-7.96 7.96v60.4c0 4.396 3.564 7.96 7.96 7.96s7.96-3.564 7.96-7.96v-60.4z" opacity=".5"/>
<path d="m676.16 98.32c0-4.3962-3.564-7.96-7.96-7.96s-7.96 3.5638-7.96 7.96v46.13c0 4.396 3.564 7.96 7.96 7.96s7.96-3.564 7.96-7.96v-46.13z" opacity=".5"/>
<path d="m947.41 151.58c0 4.396 3.564 7.96 7.96 7.96s7.96-3.564 7.96-7.96v-60.4c0-4.3962-3.564-7.9601-7.96-7.9601s-7.96 3.5639-7.96 7.9601v60.4z" opacity=".5"/>
<path d="m963.33 144.44c0 4.396 3.564 7.96 7.96 7.96s7.96-3.564 7.96-7.96v-46.13c0-4.3961-3.564-7.96-7.96-7.96s-7.96 3.5639-7.96 7.96v46.13z" opacity=".5"/>
</g>
<g fill="#00EAFF" opacity=".5">
<path d="m799.46 186.64h41.54c4.509 0 8.833 1.791 12.021 4.979s4.979 7.512 4.979 12.021v71.36h-75.5v-71.36c0-4.502 1.786-8.82 4.965-12.007s7.493-4.982 11.995-4.993z" opacity=".5"/>
<path d="m825.73 268.59h-11.05v36.83h11.05v-36.83z" opacity=".5"/>
<path d="m803.63 310.02h-11.05v36.83h11.05v-36.83z" opacity=".5"/>
<path d="m849.67 310.02h-11.05v36.83h11.05v-36.83z" opacity=".5"/>
<path d="m857.96 302.65h-75.5v10.13h75.5v-10.13z" opacity=".5"/>
</g>
<path d="m473.09 608.33c228.82 0 414.32-13.602 414.32-30.38s-185.5-30.38-414.32-30.38-414.32 13.602-414.32 30.38 185.5 30.38 414.32 30.38z" fill="#00EAFF" opacity=".1"/>
<path d="m580.36 469.76s28.54 12.89 42.35 12.89c0 0 14.73 3.68 23 7.37s40.51 5.52 40.51 5.52 37.75 13.81 42.35 20.26 18.41-23 18.41-23l-7.37-18.41-139-26.7-20.25 22.07z" fill="#FFB9B9"/>
<path d="m580.36 469.76s28.54 12.89 42.35 12.89c0 0 14.73 3.68 23 7.37s40.51 5.52 40.51 5.52 37.75 13.81 42.35 20.26 18.41-23 18.41-23l-7.37-18.41-139-26.7-20.25 22.07z" fill="#000" opacity=".05"/>
<path d="m721.23 510.28s17.49 23 10.13 36.83-4.6 13.81 0 14.73 30.38 6.45 33.15-13.81 8.29-65.37 8.29-65.37l-37.8-3.69s10.17 34.07-13.77 31.31z" fill="#737A9D"/>
<path d="m503.94 439.38 79.18 36.83s24.86-19.34 23-29.46l-92.07-22.1-10.11 14.73z" fill="#4C4C78"/>
<path d="m503.94 439.38 79.18 36.83s24.86-19.34 23-29.46l-92.07-22.1-10.11 14.73z" fill="#000" opacity=".1"/>
<path d="m836.32 487.26-8.32 20.25-19.3 4.58c-5.408-4.513-11.192-8.555-17.29-12.08-10.39-6-24.06-11.87-37-10.94 0 0-51.56-8.29-54.32-12 0 0-33.15-7.37-40.51-6.45-3.55 0.44-11.18-2.11-18.12-4.88-7.45-3-14.11-6.17-14.11-6.17l23.94-37.75c2.792 1.202 5.666 2.204 8.6 3 9.15 2.68 25.62 6.16 49.41 6.16 38.67 0 92.07 39.59 92.07 39.59s0.53 0.18 1.44 0.45c4 1.21 15.4 4.06 20.66-0.45 6.4-5.41 12.85 16.69 12.85 16.69z" fill="#FFB9B9"/>
<path d="m836.32 487.26-8.32 20.25-19.3 4.58c-5.408-4.513-11.192-8.555-17.29-12.08 28.08 2.11 11.31-28.89 11.31-28.89h0.06c4 1.21 15.4 4.06 20.66-0.45 6.43-5.51 12.88 16.59 12.88 16.59z" fill="#000" opacity=".1"/>
<path d="m791.52 500.79s22.27 31.23 12.9 48.82-5.86 17.58 0 18.76 38.69 8.21 42.2-17.58c2.7-19.83 0.33-57.89-0.91-74.41-0.079-1.043-0.365-2.059-0.841-2.991-0.475-0.931-1.131-1.759-1.93-2.434-0.798-0.676-1.723-1.186-2.72-1.501s-2.047-0.428-3.089-0.334l-32.57 3s17.44 32.19-13.04 28.67z" fill="#737A9D"/>
<path d="m262.71 531.45 0.92 45.12 10.13 7.36h34.99l6.44-9.2v-43.28l-10.13-9.21h-33.14l-9.21 9.21z" fill="#00EAFF"/>
<path d="m268.23 532.37s6.45 41.43 0 45.12l-4.6-0.92-0.92-44.19 5.52-0.01z" fill="#fff" opacity=".2"/>
<path d="m343.73 528.69 7.37-7.37h35l7.37 7.37s9.21 26.7 1.84 44.19l-8.31 8.29h-35l-8.29-7.37 0.02-45.11z" fill="#00EAFF"/>
<path d="m262.71 531.45 0.92 45.12 10.13 7.36h34.99l6.44-9.2v-43.28l-10.13-9.21h-33.14l-9.21 9.21z" fill="#000" opacity=".1"/>
<path d="m343.73 528.69 7.37-7.37h35l7.37 7.37s9.21 26.7 1.84 44.19l-8.31 8.29h-35l-8.29-7.37 0.02-45.11z" fill="#000" opacity=".1"/>
<path d="m352 530.53s7.37 32.23 0 43.27h-8.29v-45.11l8.29 1.84z" fill="#fff" opacity=".2"/>
<path d="m315.19 375.85s3.68 35.91 3.68 40.51-1.84 35 3.68 64.45-3.68 66.28-3.68 66.28h30.38l12.89-99.44-9.21-52.48-3.68-16.57-34.06-2.75z" fill="#FFB9B9"/>
<path d="m315.19 375.85s3.68 35.91 3.68 40.51-1.84 35 3.68 64.45-3.68 66.28-3.68 66.28h30.38l12.89-99.44-9.21-52.48-3.68-16.57-34.06-2.75z" fill="#000" opacity=".05"/>
<path d="m309.67 284.7s-40.51 0.92-8.29 68.13c0 0 8.29 27.62 8.29 32.23s41.43 4.6 46 0-7.37-42.35-7.37-59.85-11.93-46.03-38.63-40.51z" fill="#CBCDDA"/>
<path d="m309.67 284.7s-40.51 0.92-8.29 68.13c0 0 8.29 27.62 8.29 32.23s41.43 4.6 46 0-7.37-42.35-7.37-59.85-11.93-46.03-38.63-40.51z" fill="#000" opacity=".05"/>
<path d="m260.87 245.09s35 37.75 64.45 10.13l-3.68 97.6s-47.88-58-81-53.4l20.23-54.33z" fill="#FFB9B9"/>
<path d="m659.85 424.93c-1.4 10.79-5.8 33.51-18.43 40.87-7.45-3-14.11-6.17-14.11-6.17l23.94-37.75c2.791 1.219 5.665 2.238 8.6 3.05z" fill="#000" opacity=".1"/>
<path d="m657.7 419.09s-2.76 45.12-24.86 48.8l-133.48-24.08c-6.478-1.177-12.569-3.924-17.74-8-5.39-4.24-12-10-15.91-15.28-2.12-2.88-3.4-5.63-3.19-7.9 0.92-10.13 41.43-34.07 27.62-76.42 1.963-1.555 4.147-2.808 6.48-3.72 11.53-4.79 38.07-8.31 76.38 31.34 0 0.05 70.89 57.14 84.7 55.26z" fill="#575A89"/>
<path d="m296.78 535.13 0.92 45.12 10.12 7.37h34.99l6.45-9.21v-43.28l-10.13-9.2h-33.15l-9.2 9.2z" fill="#00EAFF"/>
<path d="m302.3 536.09s6.45 41.43 0 45.12l-4.6-0.92-0.92-44.2h5.52z" fill="#fff" opacity=".2"/>
<path d="m398.06 531.45 7.37-7.37h35l7.37 7.37s9.21 26.7 1.84 44.19l-8.29 8.29h-35l-8.29-7.37v-45.11z" fill="#00EAFF"/>
<path d="m406.34 533.29s7.37 32.23 0 43.27h-8.29v-45.11l8.29 1.84z" fill="#fff" opacity=".2"/>
<path d="m349 548.95h49.81c3.9 0 7.06 3.5 7.06 7.83 0 4.32-3.16 7.83-7.06 7.83h-49.81c-4.23 0-7.51-4.09-7-8.74 0.41-3.95 3.43-6.92 7-6.92z" fill="#00EAFF"/>
<path d="m492.89 405.31c-9.85 6.9-20.23 11.42-27.19 15.27-2.12-2.88-3.4-5.63-3.19-7.9 0.92-10.13 41.43-34.07 27.62-76.42 1.963-1.555 4.147-2.808 6.48-3.72 2.163-0.046 4.314-0.341 6.41-0.88 0 0 8.28 60.76-10.13 73.65z" fill="#000" opacity=".1"/>
<path d="m286.19 316.46s13.81 13.81 27.16 22.56c12.32 8.07-9.67-73.2-9.67-73.2s13.64-11 21.65-17.53c5.349-4.401 12.165-6.616 19.08-6.2 18.43 1.19 52.19 8.94 79.43 46.3 39.59 54.32 75.5 43.27 75.5 43.27s8.29 60.77-10.13 73.66-38.67 17.49-35 24.86-16.57-35.91-62.61-43.27-96.68-39.59-95.75-55.24c0.01-0.01-13.34-10.58-9.66-15.21z" fill="#CBCDDA"/>
<path d="m276.52 269.09c-5e-3 -2.662-0.239-5.318-0.7-7.94-12.06-6-10.35-14.16-10.35-14.16l-20.26 54.32c7.41-1 15.56 1.08 23.74 5 10.77-8.51 7.57-22.53 7.57-37.22z" fill="#000" opacity=".1"/>
<path d="m236.01 314.17c25.427 0 46.04-20.613 46.04-46.04s-20.613-46.04-46.04-46.04-46.04 20.613-46.04 46.04 20.613 46.04 46.04 46.04z" fill="#FFB9B9"/>
<path d="m194.18 278.51c-0.85 2.73-2.16 5.54-4.63 7-3 1.78-7.14 0.9-9.81-1.4s-4.11-5.74-4.86-9.18c-1.08-4.981-0.908-10.152 0.5-15.05 1.2-4.15 3.27-8 4.14-12.25 0.93-4.52 0.46-9.25 1.5-13.75 1.41-6.1 5.43-11.21 9.35-16.1 1.228-1.866 2.821-3.466 4.682-4.703 1.86-1.237 3.952-2.086 6.148-2.497l19.27-5.81c3.653-1.223 7.408-2.12 11.22-2.68 4.901-0.502 9.852-0.067 14.59 1.28 3.773 0.949 7.353 2.546 10.58 4.72 3.197 2.375 6.013 5.225 8.35 8.45 10.19 13.32 16 35.11 26.51 48.22-4.15 1.28-8.3-3-12.45-1.7-0.59 0.254-1.247 0.307-1.87 0.15-0.617-0.335-1.101-0.872-1.37-1.52-3.657-6.388-9.413-11.314-16.29-13.94-5.1-1.93-12-1.92-14.79 2.76-1.89 3.16-1.13 7.15-0.63 10.8s0.41 8-2.48 10.25c-1.597 1.079-3.456 1.708-5.38 1.82-8.969 1.176-18.089 0.283-26.66-2.61-3-1-6.05-4.13-9.22-3.13-4.28 1.35-5.27 7.24-6.4 10.87z" fill="#000" opacity=".1"/>
<path d="m193.17 277.5c-0.85 2.73-2.16 5.54-4.63 7-3 1.78-7.14 0.9-9.81-1.4s-4.11-5.74-4.86-9.18c-1.08-4.981-0.908-10.152 0.5-15.05 1.2-4.15 3.27-8 4.14-12.25 0.93-4.52 0.46-9.25 1.5-13.75 1.41-6.1 5.43-11.21 9.35-16.1 1.228-1.866 2.821-3.466 4.682-4.703 1.86-1.237 3.952-2.086 6.148-2.497l19.27-5.81c3.654-1.22 7.408-2.114 11.22-2.67 4.901-0.502 9.852-0.067 14.59 1.28 3.773 0.949 7.353 2.546 10.58 4.72 3.197 2.375 6.013 5.225 8.35 8.45 10.19 13.32 16 35.11 26.51 48.22-4.15 1.28-8.3-3-12.45-1.7-0.59 0.254-1.247 0.307-1.87 0.15-0.625-0.331-1.116-0.868-1.39-1.52-3.657-6.388-9.413-11.314-16.29-13.94-5.1-1.93-12-1.92-14.79 2.76-1.89 3.16-1.13 7.15-0.63 10.8s0.41 8-2.48 10.25c-1.597 1.079-3.456 1.708-5.38 1.82-8.969 1.176-18.089 0.283-26.66-2.61-3-1-6.05-4.13-9.22-3.13-4.26 1.34-5.25 7.23-6.38 10.86z" fill="#2F2E41"/>
<g fill="#000" opacity=".1">
<path d="m306.8 263.31-3.12 2.52s12.89 47.63 13.4 66.34c6.58-1.78-6.08-52.74-10.28-68.86z" opacity=".1"/>
<path d="m491 397.95c-18.41 12.89-38.67 17.49-35 24.86s-16.57-35.91-62.61-43.27c-43.19-6.91-90.43-35.7-95.35-52.16-6.9-5.9-11.92-10.91-11.92-10.91-3.68 4.6 9.67 15.19 9.67 15.19-0.92 15.65 49.72 47.88 95.75 55.24s66.29 50.64 62.61 43.27 16.57-12 35-24.86c5.27-3.69 8.35-11.3 10.07-20.29-1.78 5.69-4.42 10.3-8.22 12.93z" opacity=".1"/>
</g>
<path d="m398.06 486.34c-2.76 3.68-4.6 41.43-4.6 41.43s11 54.32-23 48.8-4.6-44.19-4.6-44.19l-4.6-53.4c-17.49-46-13.81-79.18-13.81-79.18l-3.27-30.07-1.34-12.28 39.59-9.21c-1.08 1.44-0.62 10.42 0.35 20.85 1.51 16.34 4.25 36.23 4.25 36.23 8.26 9.2 13.79 77.33 11.03 81.02z" fill="#FFB9B9"/>
<path d="m341.89 265.37s-40.51 0.92-8.29 68.13c0 0 8.29 27.62 8.29 32.23s41.43 4.6 46 0-7.37-42.35-7.37-59.85-11.93-46.04-38.63-40.51z" fill="#000" opacity=".1"/>
<path d="m382.75 369.09c-8.6 2.35-29.68 2.56-38.61 0.64l-1.34-12.28 39.59-9.21c-1.06 1.43-0.6 10.41 0.36 20.85z" fill="#000" opacity=".1"/>
<path d="m340.05 265.37s-40.51 0.92-8.29 68.13c0 0 8.29 27.62 8.29 32.23s41.43 4.6 46 0-7.37-42.35-7.37-59.85-11.93-46.04-38.63-40.51z" fill="#CBCDDA"/>
<g opacity=".5">
<path d="m75.04 409.5-29.32 0.6-4.78 6.58v22.74l5.98 4.19h28.12l5.99-6.58v-21.54l-5.99-5.99z" fill="#00EAFF" opacity=".5"/>
<path d="m74.45 413.09s-26.93 4.19-29.32 0l0.6-3 28.72-0.6v3.6z" fill="#fff" opacity=".2"/>
<path d="m77.44 475.32 4.79 4.79v22.74l-4.79 4.79s-17.35 6-28.72 1.2l-5.39-5.39v-22.74l4.79-5.39h29.32z" fill="#00EAFF" opacity=".5"/>
<path d="m76.24 480.71s-20.94 4.79-28.12 0v-5.39h29.32l-1.2 5.39z" fill="#fff" opacity=".2"/>
<path d="m66.07 443.45v32.37c-0.0698 1.282-0.6444 2.485-1.5981 3.345-0.9538 0.86-2.2092 1.308-3.4919 1.245-1.2827 0.063-2.5381-0.385-3.4919-1.245-0.9537-0.86-1.5283-2.063-1.5981-3.345v-32.37c0-2.75 2.66-4.88 5.68-4.56 1.1808 0.07 2.2937 0.575 3.1245 1.417 0.8309 0.842 1.3208 1.961 1.3755 3.143z" fill="#00EAFF" opacity=".5"/>
<path d="m122 410.42-29.32 0.6-4.79 6.58v22.74l5.99 4.19h28.12l5.98-6.58v-21.54l-5.98-5.99z" fill="#00EAFF" opacity=".5"/>
<path d="m121.4 414.02s-26.93 4.19-29.32 0l0.6-3 28.72-0.6v3.6z" fill="#fff" opacity=".2"/>
<path d="m124.39 476.25 4.79 4.79v22.74l-4.79 4.79s-17.35 6-28.72 1.2l-5.39-5.39v-22.75l4.79-5.39 29.32 0.01z" fill="#00EAFF" opacity=".5"/>
<path d="m123.2 481.63s-20.94 4.79-28.12 0v-5.39h29.32l-1.2 5.39z" fill="#fff" opacity=".2"/>
<path d="m113 444.37v32.37c-0.07 1.282-0.644 2.485-1.598 3.345s-2.209 1.308-3.492 1.245c-1.283 0.063-2.538-0.385-3.492-1.245s-1.528-2.063-1.598-3.345v-32.37c0-2.75 2.66-4.88 5.68-4.56 1.181 0.07 2.294 0.575 3.125 1.417 0.83 0.842 1.32 1.961 1.375 3.143z" fill="#00EAFF" opacity=".5"/>
<path d="m181.78 427.74-24.14 0.49-3.94 5.42v18.72l4.93 3.44h23.15l4.92-5.42v-17.73l-4.92-4.92z" fill="#00EAFF" opacity=".5"/>
<path d="m181.28 430.69s-22.17 3.45-24.14 0l0.49-2.46 23.64-0.49 0.01 2.95z" fill="#fff" opacity=".2"/>
<path d="m183.75 481.92 3.94 3.94v18.72l-3.94 3.94s-14.28 4.93-23.64 1l-4.44-4.43v-18.74l3.94-4.43h24.14z" fill="#00EAFF" opacity=".5"/>
<path d="m182.76 486.35s-17.24 3.94-23.15 0v-4.43h24.14l-0.99 4.43z" fill="#fff" opacity=".2"/>
<path d="m174.39 455.68v26.65c-0.062 1.052-0.537 2.038-1.322 2.742-0.784 0.704-1.815 1.07-2.868 1.018-1.056 0.052-2.09-0.317-2.875-1.025-0.785-0.709-1.258-1.699-1.315-2.755v-26.63c0.035-0.564 0.187-1.114 0.447-1.615 0.26-0.502 0.622-0.943 1.063-1.296s0.95-0.61 1.496-0.755c0.546-0.144 1.116-0.173 1.674-0.084 0.971 0.058 1.886 0.473 2.569 1.166 0.683 0.692 1.086 1.612 1.131 2.584z" fill="#00EAFF" opacity=".5"/>
<path d="m220.43 428.49-24.14 0.5-3.94 5.41v18.72l4.93 3.45h23.15l4.93-5.42v-17.73l-4.93-4.93z" fill="#00EAFF" opacity=".5"/>
<path d="m219.94 431.45s-22.17 3.45-24.14 0l0.49-2.46 23.64-0.49 0.01 2.95z" fill="#fff" opacity=".2"/>
<path d="m222.4 482.68 3.94 3.94v18.72l-3.94 3.94s-14.28 4.93-23.64 1l-4.43-4.43v-18.76l3.94-4.43 24.13 0.02z" fill="#00EAFF" opacity=".5"/>
<path d="m221.42 487.09s-17.24 3.94-23.15 0v-4.43h24.13l-0.98 4.43z" fill="#fff" opacity=".2"/>
<path d="m213 456.44v26.65c-0.057 1.056-0.53 2.046-1.315 2.755-0.785 0.708-1.819 1.077-2.875 1.025-1.056 0.052-2.09-0.317-2.875-1.025-0.785-0.709-1.258-1.699-1.315-2.755v-26.65c0.035-0.564 0.187-1.114 0.447-1.615 0.26-0.502 0.622-0.943 1.063-1.296s0.95-0.61 1.496-0.755c0.546-0.144 1.116-0.173 1.674-0.084 0.971 0.058 1.886 0.473 2.569 1.166 0.683 0.692 1.086 1.612 1.131 2.584z" fill="#00EAFF" opacity=".5"/>
</g>
<g opacity=".8">
<path d="m117.18 589.09s-14.17-4.8-21 7.69c-1.7994 3.385-2.7154 7.17-2.6629 11.004 0.0524 3.833 1.0715 7.591 2.9629 10.926 4.48 8.1 13.71 18.61 31.2 17.68 14.84-0.79 19.77-12.12 21.11-22.65 0.513-3.95 3e-3 -7.965-1.481-11.661-1.483-3.697-3.89-6.95-6.991-9.45s-6.791-4.162-10.718-4.827-7.959-0.311-11.71 1.028l-0.71 0.26z" fill="#00EAFF" opacity=".8"/>
<path d="m99.49 619.82c-1.8914-3.335-2.9105-7.093-2.9629-10.927-0.0525-3.833 0.8635-7.618 2.6629-11.003 6.82-12.49 21-7.69 21-7.69l0.73-0.26c5.402-1.955 11.34-1.823 16.65 0.37-2.933-1.75-6.219-2.826-9.619-3.151s-6.829 0.109-10.041 1.271l-0.73 0.26s-14.17-4.8-21 7.69c-1.7994 3.385-2.7154 7.17-2.6629 11.003 0.0524 3.834 1.0715 7.592 2.9629 10.927 3 5.33 8 11.7 16 15.17-5.494-3.285-9.985-8.008-12.99-13.66z" fill="#fff" opacity=".1"/>
<path d="m109.86 595.09s5.25 4.13 18 0h-18z" fill="#000" opacity=".2"/>
<path d="m108.74 565.09s9 24.4 8.26 30.78l7.13-0.75s-12-21.39-9-30l-6.39-0.03z" fill="#00EAFF" opacity=".8"/>
<path d="m108.74 565.09s9 24.4 8.26 30.78l7.13-0.75s-12-21.39-9-30l-6.39-0.03z" fill="#000" opacity=".2"/>
<path d="m145.5 567.09s-14.18-7.25-20.52-1.26-7.32 21.3-7.32 21.3 23.12 3.19 27.84-20.04z" fill="#00EAFF" opacity=".8"/>
<path d="m145.5 567.09s-14.18-7.25-20.52-1.26-7.32 21.3-7.32 21.3 23.12 3.19 27.84-20.04z" fill="#fff" opacity=".1"/>
<path d="m117.66 587.09s3.72-17.77 27.84-20" opacity=".8" stroke="#00EAFF" stroke-miterlimit="10"/>
</g>
<path d="m177 611.18s-14.17-4.8-21 7.69c-1.799 3.385-2.715 7.17-2.663 11.004 0.053 3.833 1.072 7.591 2.963 10.926 4.48 8.1 13.71 18.61 31.2 17.68 14.84-0.79 19.77-12.12 21.11-22.65 0.513-3.95 3e-3 -7.965-1.481-11.661-1.483-3.697-3.89-6.95-6.991-9.45s-6.791-4.162-10.718-4.827-7.959-0.311-11.71 1.028l-0.71 0.26z" fill="#00EAFF"/>
<path d="m159.34 641.92c-1.891-3.335-2.91-7.093-2.963-10.926-0.052-3.834 0.864-7.619 2.663-11.004 6.82-12.49 21-7.69 21-7.69l0.73-0.26c5.402-1.955 11.34-1.823 16.65 0.37-2.933-1.75-6.219-2.826-9.619-3.151s-6.829 0.109-10.041 1.271l-0.73 0.26s-14.17-4.8-21 7.69c-1.799 3.385-2.715 7.17-2.663 11.004 0.053 3.833 1.072 7.591 2.963 10.926 3 5.33 8 11.7 16 15.17-5.494-3.285-9.985-8.008-12.99-13.66z" fill="#fff" opacity=".1"/>
<path d="m169.71 617.18s5.25 4.13 18 0h-18z" fill="#000" opacity=".2"/>
<path d="m168.58 587.16s9 24.4 8.26 30.78l7.13-0.75s-12-21.39-9-30l-6.39-0.03z" fill="#00EAFF"/>
<path d="m168.58 587.16s9 24.4 8.26 30.78l7.13-0.75s-12-21.39-9-30l-6.39-0.03z" fill="#000" opacity=".2"/>
<path d="m205.35 589.19s-14.18-7.25-20.52-1.26-7.32 21.3-7.32 21.3 23.12 3.18 27.84-20.04z" fill="#00EAFF"/>
<path d="m205.35 589.19s-14.18-7.25-20.52-1.26-7.32 21.3-7.32 21.3 23.12 3.18 27.84-20.04z" fill="#fff" opacity=".1"/>
<path d="m177.51 609.23s3.72-17.77 27.84-20" stroke="#00EAFF" stroke-miterlimit="10"/>
<path d="m63 553.26s1.39-1.55-1.22-2.17v-2.55h1.57c-0.0013-3.083-1.0606-6.071-3.0009-8.467-1.9403-2.395-4.644-4.052-7.6591-4.693v-3.09h0.41v-4h-10.1v4h0.29v3.13c-2.9752 0.676-5.6326 2.342-7.5368 4.725-1.9041 2.384-2.9419 5.344-2.9432 8.395h1.4v2.45s-3.32 1.57 0 4.37 2.8 4.89 2.8 4.89-1.4 5.24-4.19 5.94v48.75c0 2.872 1.141 5.627 3.172 7.658s4.7857 3.172 7.658 3.172h8.56c2.8636-0.011 5.6065-1.155 7.6286-3.183 2.0221-2.027 3.1588-4.773 3.1614-7.637v-48.76s-4.89-3.67-4-5.94c1.1607-2.425 2.4976-4.761 4-6.99z" fill="#00EAFF"/>
</g>
<defs>
<clipPath id="a">
<rect width="1020" height="669" fill="#fff"/>
</clipPath>
</defs>
</svg>
