<?xml version="1.0" encoding="UTF-8"?>
<svg viewBox="-4 0 512 512" xmlns="http://www.w3.org/2000/svg">
<path d="m504.75 250.32v58.051c0 30.707-24.891 55.594-55.598 55.594h-173.45c-9.5234 0-17.176 7.9531-16.73 17.57 0.44531 9.1094 8.3242 15.914 17.207 15.914h41.02c9.2578 0 16.75 7.5039 16.75 16.75v41.855c0 30.906-25.055 55.949-55.945 55.949h-48.66c-30.902 0-55.957-25.043-55.957-55.949v-147.46h-117.8c-30.707 0-55.598-24.891-55.598-55.598v-49.371c0-30.707 24.891-55.598 55.598-55.598h117.8v-0.007813h50.77c9.5039 0 17.164-7.9219 16.73-17.539-0.42578-9.0078-8.1797-15.953-17.207-15.953h-33.543c-9.2461 0-16.75-7.4961-16.75-16.742v-41.836c0-30.906 25.055-55.949 55.957-55.949h48.66c30.84 0 55.855 24.949 55.945 55.793v138.93h115.2c30.707 0 55.598 24.902 55.598 55.598z" fill="#ffda44"/>
<path d="m504.75 250.32v58.051c0 30.707-24.891 55.594-55.598 55.594h-173.45c-9.5234 0-17.176 7.9531-16.73 17.57 0.44531 9.1094 8.3242 15.914 17.207 15.914h41.02c9.2578 0 16.75 7.5039 16.75 16.75v41.855c0 30.906-25.055 55.949-55.945 55.949h-24.332v-512h24.332c30.84 0 55.855 24.949 55.945 55.793v138.93h115.2c30.707 0 55.598 24.902 55.598 55.598z" fill="#ffcd00"/>
<path d="m318.26 437.16c0 9.2461-7.4922 16.742-16.738 16.742-9.2461 0-16.742-7.4961-16.742-16.742 0-9.2461 7.4961-16.738 16.742-16.738 9.2461 0 16.738 7.4922 16.738 16.738z" fill="#4895ff"/>
<path d="m318.26 437.16c0 9.2461-7.4922 16.742-16.738 16.742v-33.48c9.2461 0 16.738 7.4922 16.738 16.738z" fill="#2682ff"/>
<path d="m333.96 55.793v161.88c0 18.504-14.988 33.492-33.492 33.492h-110.32c-9.2461 0-16.75 7.5078-16.75 16.742v40.688h-117.8c-30.707 0-55.598-24.898-55.598-55.598v-49.371c0-30.699 24.891-55.598 55.598-55.598h117.8v-0.007813h50.77c9.5039 0 17.164-7.9219 16.73-17.539-0.42578-9.0078-8.1797-15.953-17.207-15.953h-33.543c-9.2461 0-16.75-7.4961-16.75-16.742v-41.836c0-30.906 25.055-55.949 55.957-55.949h48.66c30.84 0 55.855 24.949 55.945 55.793z" fill="#4895ff"/>
<path d="m333.96 55.793v161.88c0 18.504-14.988 33.492-33.492 33.492h-46.785v-251.16h24.332c30.84 0 55.855 24.949 55.945 55.793z" fill="#2682ff"/>
<path d="m226.43 78.695c0 9.2422-7.4961 16.738-16.742 16.738-9.2578 0-16.75-7.4961-16.75-16.738 0-9.2461 7.4922-16.754 16.75-16.754 9.2461 0 16.742 7.5078 16.742 16.754z" fill="#ffda44"/>
<path d="m226.43 78.695c0 9.2422-7.4961 16.738-16.742 16.738v-33.492c9.2461 0 16.742 7.5078 16.742 16.754z" fill="#ffcd00"/>
</svg>
