<?xml version="1.0" encoding="UTF-8"?>
<svg viewBox="0 0 1042 555" xmlns="http://www.w3.org/2000/svg">
<g clip-path="url(#a)">
<path d="m961.48 438.21c-1.16 2.5-2.317 4.967-3.47 7.4-1.8 3.78-3.577 7.487-5.33 11.12-0.78 1.61-1.56 3.19-2.32 4.77-8.6 17.57-16.63 33.11-23.45 45.89-6.188 11.58-15.377 21.282-26.604 28.091-11.226 6.809-24.077 10.473-37.206 10.609l-151.65 1.65h-1.6l-24.12 0.26-34.1 0.37h-1.38l-17.36 0.19h-0.53l-107 1.16-95.51 1-11.11 0.12-69 0.75h-0.08l-44.75 0.48h-0.48l-141.5 1.53-42.33 0.46c-9.033 0.102-18.029-1.186-26.67-3.82-15.038-4.542-28.553-13.099-39.09-24.75-18.18-20.03-31.43-43.4-40.33-68.76-1.2867-3.66-2.4867-7.367-3.6-11.12-30.81-104.15 6.75-238.52 74.35-328.44 2.8333-3.76 5.7133-7.427 8.64-11l0.07-0.08c20.79-25.52 44.1-46.84 68.93-62 44-26.91 92.75-34.49 140.7-11.9 40.57 19.12 78.45 28.11 115.17 30.55 3.71 0.24 7.42 0.42 11.11 0.53 84.23 2.65 163.17-27.7 255.87-47.29 3.69-0.78 7.39-1.55 11.12-2.28 66.13-13.16 139.49-20.1 226.73-5.51 9.064 1.4807 18.007 3.6197 26.76 6.4 3.847 1.24 7.553 2.5733 11.12 4 41.64 16.94 64.35 48.24 74 87.46 0.91 3.64 1.7 7.343 2.37 11.11 17.11 94.34-33 228.16-76.37 321.05z" fill="#00EAFF" opacity=".1"/>
<g fill="#00EAFF" opacity=".1">
<path d="m162.9 44.09v509.62l-42.33 0.46c-9.033 0.102-18.029-1.186-26.67-3.82v-444.26h0.07c20.79-25.55 44.1-46.87 68.93-62z" opacity=".1"/>
<path d="m1037.9 117.17h-952.64c2.8333-3.76 5.7133-7.427 8.64-11v-0.08h941.63c0.91 3.62 1.7 7.313 2.37 11.08z" opacity=".1"/>
<path d="m961.48 18.6v427h-3.47c-1.8 3.78-3.577 7.487-5.33 11.12-0.78 1.61-1.56 3.19-2.32 4.77v-446.93c3.847 1.24 7.553 2.5866 11.12 4.04z" opacity=".1"/>
<path d="m696.87 13.67v534.25l-11.12 0.12v-532.09c3.69-0.78 7.39-1.55 11.12-2.28z" opacity=".1"/>
<path d="m429.88 63.24v487.58l-11.11 0.12v-488.23c3.71 0.24 7.42 0.38 11.11 0.53z" opacity=".1"/>
<path d="m958.01 445.61c-1.8 3.78-3.577 7.487-5.33 11.12h-938.17c-1.2867-3.66-2.4867-7.367-3.6-11.12h947.1z" opacity=".1"/>
</g>
<path d="m230.6 265.83h-19v57.66h19v-57.66z" fill="#3F3D56"/>
<path d="m741.93 262.83h-19v61h19v-61z" fill="#3F3D56"/>
<path d="m863.1 533.65v13l-151.92 1.4-1.62 0.03-57.74 0.53-1.38 0.02-17.55 0.15h-0.52l-282.59 2.62h-0.15l-44.65 0.42-0.48 0.01-198.4 1.82v-15l46.65-28 93.6-0.78 2-0.01 0.66-0.01 2-0.03 44.94-0.37 2.01-0.01 0.64-0.01 2-0.01 14.41-0.12 0.38-0.01 35.55-0.3h0.29l277.4-2.34 6.79-0.05h0.68l5.18-0.05 37.65-0.31 2-0.03 1.85-0.02h0.96l11.71-0.09 2.32-0.03 3.11-0.02 9.75-0.09 15.47-0.13 2-0.02 3.48-0.02h0.65l74.71-0.64 56.16 28.5z" fill="#65617D"/>
<path d="m863.1 533.65v13l-151.92 1.4-1.62 0.03-57.74 0.53-1.38 0.02-17.55 0.15h-0.52l-282.59 2.62h-0.15l-44.65 0.42-0.48 0.01-198.4 1.82v-15l46.65-28 93.6-0.78 2-0.01 0.66-0.01 2-0.03 44.94-0.37 2.01-0.01 0.64-0.01 2-0.01 14.41-0.12 0.38-0.01 35.55-0.3h0.29l277.4-2.34 6.79-0.05h0.68l5.18-0.05 37.65-0.31 2-0.03 1.85-0.02h0.96l11.71-0.09 2.32-0.03 3.11-0.02 9.75-0.09 15.47-0.13 2-0.02 3.48-0.02h0.65l74.71-0.64 56.16 28.5z" opacity=".2"/>
<path d="m296.1 483.66v24.49c1e-3 1.16-0.328 2.296-0.948 3.277-0.619 0.981-1.504 1.765-2.552 2.263-0.78 0.378-1.633 0.583-2.5 0.6l-34.9 0.74c-0.932 0.022-1.857-0.173-2.7-0.57-1.066-0.489-1.97-1.274-2.603-2.261-0.632-0.988-0.968-2.136-0.967-3.309v-25.23h47.17z" fill="#3F3D56"/>
<path d="m296.1 483.66v24.49c1e-3 1.16-0.328 2.296-0.948 3.277-0.619 0.981-1.504 1.765-2.552 2.263-0.78 0.378-1.633 0.583-2.5 0.6l-34.9 0.74c-0.932 0.022-1.857-0.173-2.7-0.57-1.066-0.489-1.97-1.274-2.603-2.261-0.632-0.988-0.968-2.136-0.967-3.309v-25.23h47.17z" opacity=".1"/>
<path d="m298.1 483.66v24.49c1e-3 1.16-0.328 2.296-0.948 3.277-0.619 0.981-1.504 1.765-2.552 2.263-0.78 0.378-1.633 0.583-2.5 0.6l-34.9 0.74c-0.932 0.022-1.857-0.173-2.7-0.57-1.066-0.489-1.97-1.274-2.603-2.261-0.632-0.988-0.968-2.136-0.967-3.309v-25.23h47.17z" fill="#3F3D56"/>
<path d="m728.1 483.66h-47.17v31.5h47.17v-31.5z" fill="#3F3D56"/>
<path d="m728.1 483.66h-47.17v31.5h47.17v-31.5z" opacity=".1"/>
<path d="m726.1 483.66h-47.17v31.5h47.17v-31.5z" fill="#3F3D56"/>
<path d="m230.6 265.82v5.73l-19-0.49v-5.24h19z" opacity=".1"/>
<path d="m355.66 104.4-22.83 164c-0.145 1.047-0.67 2.005-1.477 2.689-0.806 0.685-1.836 1.048-2.893 1.021l-182.8-4.74-3.47-0.09c-0.604-0.014-1.199-0.156-1.744-0.415-0.546-0.26-1.031-0.631-1.424-1.091-0.392-0.459-0.683-0.997-0.854-1.576-0.171-0.58-0.218-1.189-0.138-1.788l25.63-171.68c0.165-1.0635 0.723-2.0263 1.564-2.6984 0.84-0.672 1.902-1.0045 2.976-0.9316l183.46 12.42c0.592 0.0343 1.17 0.191 1.699 0.46 0.528 0.2691 0.995 0.6451 1.371 1.1031 0.375 0.459 0.652 0.99 0.812 1.561s0.201 1.169 0.118 1.756z" fill="#65617D"/>
<path d="m175.93 99.16-19.33 151.33 168 5.33 20.66-146-169.33-10.66z" fill="#00EAFF"/>
<path d="m583.94 96.82h-194.01c-2.944 0-5.33 2.3864-5.33 5.3301v162.67c0 2.944 2.386 5.33 5.33 5.33h194.01c2.944 0 5.33-2.386 5.33-5.33v-162.67c0-2.9437-2.386-5.3301-5.33-5.3301z" fill="#65617D"/>
<path d="m580.26 108.49h-186v144.33h186v-144.33z" fill="#00EAFF"/>
<path d="m741.93 262.82v3.79l-19 0.39v-4.18h19z" opacity=".1"/>
<path d="m827.66 259.62c0.027 0.414-0.03 0.83-0.168 1.222-0.137 0.391-0.353 0.751-0.633 1.058-0.28 0.306-0.619 0.553-0.997 0.724-0.378 0.172-0.787 0.266-1.202 0.276l-187.2 3.87c-0.778 0.016-1.533-0.263-2.113-0.78-0.581-0.518-0.944-1.236-1.017-2.01l-16.09-167.28c-0.04-0.4151 5e-3 -0.8338 0.132-1.2309 0.127-0.3972 0.333-0.7644 0.606-1.0795s0.607-0.5715 0.982-0.7536c0.375-0.1822 0.784-0.2863 1.2-0.306l185.78-9.24 2-0.1c0.795-0.0419 1.575 0.2267 2.176 0.7491s0.975 1.2578 1.044 2.0509l15.5 172.83z" fill="#65617D"/>
<path d="m628.93 103.16 169.67-8.3401 14.33 152-168.33 4-15.67-147.66z" fill="#00EAFF"/>
<path d="m827.66 259.62c0.027 0.414-0.03 0.83-0.168 1.222-0.137 0.391-0.353 0.751-0.633 1.058-0.28 0.306-0.619 0.553-0.997 0.724-0.378 0.172-0.787 0.266-1.202 0.276l-17.72-178.81 2-0.1c0.795-0.0419 1.575 0.2267 2.176 0.7491s0.975 1.2578 1.044 2.0509l15.5 172.83z" opacity=".1"/>
<path d="m168.23 87.09-22.57 180.28-3.47-0.09c-0.604-0.014-1.199-0.156-1.744-0.415-0.546-0.26-1.031-0.631-1.424-1.091-0.392-0.459-0.683-0.997-0.854-1.576-0.171-0.58-0.218-1.189-0.138-1.788l25.63-171.68c0.163-1.0708 0.725-2.0405 1.572-2.7153 0.847-0.6749 1.918-1.0051 2.998-0.9247z" opacity=".1"/>
<path d="m230.6 306.41h-19v17.08h19v-17.08z" opacity=".1"/>
<path d="m298.1 483.65v4.97l-47.17 1.26v-6.23h47.17z" opacity=".1"/>
<path d="m381.35 312.36v168.2c-0.012 1.027-0.419 2.009-1.135 2.745-0.717 0.735-1.689 1.167-2.715 1.205l-191.65 5.1h-0.05c-1.044-0.013-2.041-0.433-2.779-1.171s-1.158-1.735-1.171-2.779v-173.3c0.013-1.044 0.433-2.041 1.171-2.779s1.735-1.158 2.779-1.171h191.6c1.044 0.013 2.041 0.433 2.779 1.171s1.158 1.735 1.171 2.779z" fill="#65617D"/>
<path d="m185.85 308.41v181.2h-0.05c-1.044-0.013-2.041-0.433-2.779-1.171s-1.158-1.735-1.171-2.779v-173.3c0.013-1.044 0.433-2.041 1.171-2.779s1.735-1.158 2.779-1.171h0.05z" opacity=".1"/>
<path d="m194.6 319.15h177.5v148.25l-177.5 4v-152.25z" fill="#D4DFEC"/>
<path d="m741.93 306.41h-19v17.42h19v-17.42z" opacity=".1"/>
<path d="m726.1 483.65v6.41l-47.17-1.26v-5.15h47.17z" opacity=".1"/>
<path d="m788.35 312.36v173.3c-0.013 1.052-0.44 2.057-1.189 2.796-0.749 0.74-1.759 1.154-2.811 1.154l-191.69-5.1c-1.026-0.038-1.998-0.47-2.715-1.205-0.716-0.736-1.123-1.718-1.135-2.745v-168.2c0.013-1.044 0.433-2.041 1.171-2.779s1.735-1.158 2.779-1.171h191.6c1.051 3e-3 2.058 0.418 2.804 1.157 0.747 0.739 1.173 1.743 1.186 2.793z" fill="#65617D"/>
<path d="m788.35 312.36v173.3c-0.013 1.052-0.44 2.057-1.189 2.796-0.749 0.74-1.759 1.154-2.811 1.154v-181.2c1.052 0 2.062 0.415 2.811 1.154s1.176 1.744 1.189 2.796z" opacity=".1"/>
<path d="m775.6 319.15h-177.5v148.25l177.5 4v-152.25z" fill="#D4DFEC"/>
<path d="m583.85 312.36v168.2c-0.012 1.027-0.419 2.009-1.135 2.745-0.717 0.735-1.689 1.167-2.715 1.205l-191.65 5.1c-1.052 0-2.062-0.414-2.811-1.154-0.749-0.739-1.176-1.744-1.189-2.796v-173.3c0.013-1.044 0.433-2.041 1.171-2.779s1.735-1.158 2.779-1.171h191.6c1.044 0.013 2.041 0.433 2.779 1.171s1.158 1.735 1.171 2.779z" fill="#65617D"/>
<path d="m397.1 319.15h177.5v148.25l-177.5 4v-152.25z" fill="#D4DFEC"/>
<path d="m863.1 533.65v13l-151.92 1.4-1.62 0.03-57.74 0.53-1.38 0.02-17.55 0.15h-0.52l-282.59 2.62h-0.15l-44.65 0.42-0.48 0.01-198.4 1.82v-15l202.51-1.33h0.48l40.99-0.28h0.19l283.08-1.87h0.29l0.17-0.01h0.47l4.79-0.03h1.46l74.49-0.5 4.4-0.02 0.98-0.01 142.7-0.95z" opacity=".1"/>
<path d="m487.26 323.49c28.349 0 51.33-22.981 51.33-51.33s-22.981-51.33-51.33-51.33-51.33 22.981-51.33 51.33 22.981 51.33 51.33 51.33z" fill="#FBBEBE"/>
<path d="m538.6 377.16s-99.5 12-90 0c3.44-4.34 4.39-17.2 4.2-31.85-0.06-4.45-0.22-9.06-0.45-13.65-1.1-22-3.75-43.5-3.75-43.5s87-41 77-8.5c-4 13.13-2.69 31.57 0.35 48.88 0.89 5.05 1.92 10 3 14.7 2.636 11.464 5.857 22.785 9.65 33.92z" fill="#FBBEBE"/>
<path d="m538.6 377.16s-99.5 12-90 0c3.44-4.34 4.39-17.2 4.2-31.85 15.17-6.48 34.47-1.65 34.47-1.65 20.32-4.05 33.35-3.26 41.68-0.42 2.636 11.464 5.857 22.785 9.65 33.92z" opacity=".1"/>
<path d="m349.74 552.53v-0.84l175.62-1.91 107-1h0.3l-0.11 1.48 0.15-1.48h0.19v-0.17l1.37-13.45 0.52-5.09 0.16-1.59 0.14-1.33 6.18-20.61 6.18-20.58 5.2-17.33 7.94-26.48s-4.5-10.5-7-13.5-5-23.5-5-23.5-21.34-20.33-30.67-22.67c-3.91-1-11.63-2.33-19.83-4-3.07-0.62-6.22-1.28-9.25-2-1.71-0.39-3.39-0.8-5-1.21-3.134-0.783-6.222-1.737-9.25-2.86-1.588-0.577-3.099-1.346-4.5-2.29-7.35-5.39-25.77-6-26.48-6-2e-3 -0.023-2e-3 -0.047 0-0.07v-0.09c0.026-0.42 0.026-0.84 0-1.26 0-0.4 0-0.87-0.09-1.4 0-0.16 0-0.33-0.07-0.5-0.05-0.36-0.11-0.74-0.2-1.14-0.03-0.179-0.07-0.356-0.12-0.53-0.29-1.205-0.709-2.375-1.25-3.49-0.07-0.16-0.16-0.33-0.24-0.49-0.49-0.924-1.059-1.804-1.7-2.63-0.13-0.17-0.27-0.35-0.42-0.52-0.819-0.966-1.73-1.85-2.72-2.64-0.27-0.21-0.55-0.43-0.84-0.63-0.162-0.131-0.332-0.252-0.51-0.36l-0.89-0.58-0.83-0.48c-0.73-0.4-1.5-0.79-2.34-1.16-0.26-0.12-0.54-0.23-0.82-0.34s-0.72-0.28-1.09-0.42h-0.06l-0.75-0.3c-0.57-0.19-1.15-0.36-1.76-0.53l-0.93-0.24-1-0.23-1-0.21c-1-0.2-2.07-0.38-3.19-0.52l-1.14-0.14-1.17-0.12-1.21-0.1-1.72-0.1-2-0.07c-8.821-1e-3 -17.617 0.934-26.24 2.79-5.991-1.333-12.127-1.898-18.26-1.68h-0.87l-1 0.06h-0.64l-1.29 0.12c-0.43 0-0.87 0.09-1.3 0.15s-0.88 0.11-1.31 0.18l-0.66 0.11c-0.65 0.11-1.31 0.23-2 0.37-0.22 0.04-0.44 0.09-0.66 0.15-0.87 0.19-1.74 0.42-2.6 0.68-0.43 0.12-0.86 0.26-1.29 0.41-0.22 0.06-0.43 0.14-0.64 0.22l-0.64 0.23-0.63 0.25-0.75 0.3c-0.38 0.16-0.75 0.33-1.12 0.51-0.21 0.09-0.42 0.19-0.62 0.3s-0.41 0.2-0.6 0.31c-2.261 1.168-4.351 2.642-6.21 4.38l-0.51 0.49-0.5 0.51c-0.17 0.17-0.33 0.35-0.49 0.53-0.652 0.712-1.26 1.464-1.82 2.25-0.16 0.21-0.31 0.42-0.46 0.64-0.635 0.936-1.209 1.911-1.72 2.92-0.13 0.24-0.25 0.49-0.37 0.73-0.816 1.689-1.485 3.446-2 5.25-0.187 0.667-0.357 1.333-0.51 2 0 0-21.17 9.34-38.73 16.1-4.67 1.8-9.07 3.43-12.75 4.66-1.07 0.36-2.07 0.69-3 1-2.018 0.729-4.116 1.213-6.25 1.44-1.006 0.016-2.009 0.11-3 0.28-8.07 1.31-21.9 7-23.41 12.71-0.123 0.456-0.157 0.931-0.1 1.4v0.11c1 7-6 6-6 6s-2.5 18.5-6 23.5c-2.53 3.6-4.26 11.63-4.48 17.69-0.126 1.888 0.022 3.784 0.44 5.63v0.14c0.4 1.34-0.56 5-2.19 9.69-1.77 5.15-4.35 11.55-6.83 17.59-3.74 9.12-7.26 17.4-7.48 19.22-0.09 0.81-0.35 2.26-0.71 4.13-1.46 7.62-4.7 22.13-6.3 28-1.19 4.38-2.92 10.38-4.11 14.5 0 0.12-0.07 0.24-0.1 0.35l44.83-0.44v0.84h0.14-0.06z" fill="#00EAFF"/>
<path d="m366.1 434.66s57 29.5 77.5 26l-77.5-26z" opacity=".1"/>
<path d="m482.1 422.66s55.5 18 74 20.5-74-20.5-74-20.5z" opacity=".1"/>
<path d="m543.66 364.74c-29 5.34-83.6 4.19-107.2 3.38 8.65-31 50.83-20.46 50.83-20.46 52.21-10.42 56.21 11.2 56.37 17.08z" opacity=".1"/>
<path d="m543.66 362.74c-29 5.34-83.6 4.19-107.2 3.38 8.65-31 50.83-20.46 50.83-20.46 52.21-10.42 56.21 11.2 56.37 17.08z" fill="#00EAFF"/>
<path d="m697.6 499.41s34.16-5.25 34.83 9.75-17.42 25.48-17.42 25.48l-17.41-35.23z" fill="#FBBEBE"/>
<path d="m525.95 328.54c-1.469 0.657-2.971 1.237-4.5 1.74-10.78 3.72-21.65 7.47-33 8.83s-23.26 0.16-33.16-5.5c-1.039-0.587-2.041-1.238-3-1.95-1.1-22-3.75-43.5-3.75-43.5s87-41 77-8.5c-3.98 13.13-2.63 31.57 0.41 48.88z" opacity=".1"/>
<path d="m473.18 191.93c-1.427 0.377-2.923 0.415-4.367 0.111-1.445-0.304-2.799-0.941-3.953-1.861l2.08 2.89c-1.226 0.141-2.468 0.013-3.639-0.375-1.171-0.389-2.243-1.029-3.141-1.875-0.189 2.587-0.081 5.187 0.32 7.75-3.442 0.166-6.83-0.897-9.56-3-0.053 0.902 0.171 1.799 0.643 2.57 0.472 0.77 1.169 1.378 1.997 1.74-3.457-0.413-6.947 0.446-9.817 2.417-2.871 1.97-4.926 4.918-5.783 8.293l5.22 0.48c-4.102 0.876-7.784 3.123-10.44 6.37-1.6 2-2.82 4.56-2.12 7s4.08 4 5.92 2.26c-2.617 3.124-4.52 6.783-5.573 10.72-1.054 3.936-1.234 8.056-0.527 12.07 0.475 1.71 0.631 3.493 0.46 5.26-0.33 1.65-1.37 3.08-1.89 4.69-1 2.92-0.05 6.09 0.84 9l4.69 15.42c1.7 5.57 3.39 11.15 5.61 16.54 1.572 3.408 2.909 6.919 4 10.51 1.26 4.84 1.31 10.14 4 14.37 1.844 2.662 4.308 4.835 7.18 6.33 9.89 5.66 21.84 6.86 33.16 5.5s22.18-5.11 32.95-8.83c2.393-0.721 4.689-1.728 6.84-3 7.45-4.88 9.11-14.86 10.5-23.65 1.55-9.8 3.62-19.58 7.29-28.8 2.18-5.49 5-11.06 4.52-16.94-0.61-7.81-6.79-14.14-8.32-21.82-0.512-2.567-0.488-5.213 0.07-7.77 0.474-1.524 0.74-3.105 0.79-4.7-0.17-3.22-2.81-5.7-5.29-7.77-5.38-4.493-10.933-8.74-16.66-12.74-0.29-2 2.43-2.86 3.66-4.44 1.74-2.23-0.06-5.77-2.7-6.81s-5.6-0.36-8.35 0.33c0.179-1.408-0.101-2.835-0.798-4.071-0.698-1.236-1.775-2.214-3.073-2.788s-2.746-0.714-4.129-0.399c-1.384 0.315-2.629 1.069-3.55 2.148-0.73-1.675-1.897-3.122-3.378-4.192-1.481-1.069-3.223-1.722-5.042-1.888-6.63-0.52-6.76 4.55-11 7.34s-7.74-0.89-11-3.57c-0.599 1.515-0.789 3.161-0.55 4.772 0.239 1.612 0.898 3.132 1.91 4.408z" fill="#2F2E41"/>
<path d="m722.93 529.41s-0.89 2.12-2.53 5.19c-2.481 4.723-5.501 9.143-9 13.17l-0.27 0.29h-1.62l-57.74 0.53h-1.38l-0.17-0.2-11.2-13.29-4.22-5.01-0.17-0.21-0.36-0.42-0.2-0.24-0.26-0.31-8.21-9.74 3-12.5 5.11-21.06 0.13-0.51 1-4 0.71-3 2.38-9.78 8.16-33.65 14.5 7.5 15.29 27 8.21 14.5h4.5c0.85 0 2.8 1.64 4.76 3.53 0.7 0.67 1.4 1.38 2 2 1.78 1.84 3.19 3.42 3.19 3.42s7.29 0.16 9.25 5.9c0.101 0.278 0.185 0.562 0.25 0.85 0.651 2.256 1.497 4.451 2.53 6.56 1.29 2.81 2.91 6 4.55 9.19 3.05 5.85 6.15 11.42 7.29 13.44l0.14 0.25 0.38 0.6z" fill="#00EAFF"/>
<path d="m637.03 484.26-0.1 1.43v0.1l-0.17 2.3-1.33 18.51-1.61 22.3-0.46 6.28-1 13.44v0.17l-107 1-175.59 1.9v0.84h-0.14v-1.12l0.45-14.36 0.86-28.06 0.74-23.79 0.07-2.37c0.044-1.43 0.379-2.837 0.984-4.134 0.606-1.296 1.469-2.456 2.538-3.408s2.32-1.676 3.678-2.127c1.358-0.452 2.794-0.623 4.22-0.501 4.72 0.4 10.85 0.89 18.18 1.41l3 0.22c42.33 2.94 120.56 6.74 199.5 2 1.66-0.09 3.33-0.19 5-0.31 12.24-0.77 24.47-1.76 36.58-3 1.531-0.16 3.078 0.017 4.533 0.519s2.783 1.318 3.888 2.388c1.106 1.071 1.964 2.371 2.513 3.809s0.777 2.979 0.666 4.514v0.05z" opacity=".1"/>
<path d="m349.74 552.53v-0.84l175.62-1.91 107-1h0.3v-0.17l1-13.44 0.43-6 1.64-22.61 1.29-17.9v-0.44c0.06-0.825 0.023-1.654-0.11-2.47 6e-3 -0.033 6e-3 -0.067 0-0.1-0.275-1.688-0.962-3.282-2-4.64-1.101-1.412-2.544-2.52-4.192-3.22s-3.447-0.968-5.228-0.78c-12.11 1.24-24.34 2.23-36.58 3-1.67 0.12-3.34 0.22-5 0.31-78.94 4.69-157.17 0.89-199.5-2l-3-0.22c-7.33-0.52-13.46-1-18.18-1.41-2.597-0.219-5.182 0.531-7.258 2.107-2.076 1.575-3.494 3.863-3.982 6.423-0.101 0.541-0.161 1.09-0.18 1.64l-0.68 22.16-0.93 28.07-0.44 14.36v1.12l-0.02-0.04z" fill="#3F3D56"/>
<path d="m637.33 491.27-1.23 15.33-1.83 22.85-0.46 5.72-1 12.81-0.06 0.64v0.17l-0.15 1.48 0.11-1.48h-0.29l-107 1-175.65 1.9v-0.28l0.49-14.36 1-28.06 0.64-18.65c0.031-1.061 0.328-2.097 0.862-3.014 0.535-0.917 1.29-1.686 2.198-2.236 1.132-0.694 2.456-1.009 3.78-0.9 2.1 0.17 4.68 0.37 7.69 0.59 4.89 0.36 10.92 0.78 17.94 1.22 13 0.82 29.31 1.7 48 2.42 52 2 122.2 2.67 188.88-3.17 3-0.26 6.1-0.55 9.13-0.84 1.199-0.12 2.408 0.11 3.48 0.66 0.304 0.151 0.592 0.332 0.86 0.54 0.871 0.631 1.56 1.479 2 2.46 0.102 0.195 0.186 0.399 0.25 0.61 0.3 0.829 0.423 1.711 0.36 2.59z" opacity=".1"/>
<path d="m298.1 504.96v3.19c1e-3 1.16-0.328 2.296-0.948 3.277-0.619 0.981-1.504 1.765-2.552 2.263l-40.1 0.77c-1.066-0.489-1.97-1.274-2.603-2.261-0.632-0.988-0.968-2.136-0.967-3.309v-3l47.17-0.93z" opacity=".1"/>
<path d="m298.6 515.57-52.25 1v-8.67l52.25-1v8.67z" fill="#3F3D56"/>
<path d="m298.6 515.57-52.25 1v-8.67l52.25-1v8.67z" opacity=".1"/>
<path d="m300.6 515.57-52.25 1v-8.67l52.25-1v8.67z" fill="#3F3D56"/>
<g opacity=".1">
<path d="m473.59 188.65c-0.977-1.269-1.626-2.76-1.89-4.34-0.241 1.545-0.097 3.125 0.42 4.6 0.496-0.046 0.988-0.133 1.47-0.26z" opacity=".1"/>
<path d="m460.89 195.29c-0.189-1.226-0.312-2.461-0.37-3.7v3.71l0.37-0.01z" opacity=".1"/>
<path d="m542.39 228.66c0.055-0.891 0.176-1.777 0.36-2.65 0.473-1.521 0.742-3.098 0.8-4.69-0.022-0.357-0.076-0.712-0.16-1.06-0.17 0.92-0.44 1.84-0.64 2.75-0.399 1.855-0.521 3.759-0.36 5.65z" opacity=".1"/>
<path d="m521.59 197.76 1.09 0.79c0.919-0.665 1.779-1.407 2.57-2.22 0.376-0.52 0.609-1.13 0.676-1.769s-0.035-1.284-0.296-1.871c-0.1 0.228-0.227 0.443-0.38 0.64-1.23 1.58-3.95 2.45-3.66 4.43z" opacity=".1"/>
<path d="m439.42 207.38c-0.365 0.729-0.656 1.493-0.87 2.28 1.564-0.873 3.249-1.51 5-1.89l-4.13-0.39z" opacity=".1"/>
<path d="m453.21 196.5c-0.657-0.362-1.285-0.773-1.88-1.23-0.025 0.396 5e-3 0.793 0.09 1.18 0.597-0.028 1.195-0.012 1.79 0.05z" opacity=".1"/>
<path d="m550.98 255.42c-0.41 4.85-2.67 9.52-4.5 14.12-3.67 9.22-5.74 19-7.29 28.81-1.39 8.79-3 18.77-10.5 23.64-2.143 1.28-4.437 2.288-6.83 3-10.78 3.73-21.65 7.47-33 8.83s-23.26 0.17-33.16-5.49c-2.87-1.498-5.334-3.67-7.18-6.33-2.67-4.23-2.72-9.53-4-14.37-1.091-3.594-2.428-7.109-4-10.52-2.21-5.38-3.91-11-5.6-16.53-1.567-5.14-3.13-10.283-4.69-15.43-0.514-1.548-0.895-3.137-1.14-4.75-0.39 2.56 0.37 5.24 1.14 7.75 1.56 5.153 3.123 10.297 4.69 15.43 1.69 5.57 3.39 11.15 5.6 16.53 1.572 3.411 2.909 6.926 4 10.52 1.26 4.84 1.31 10.14 4 14.37 1.846 2.66 4.31 4.832 7.18 6.33 9.9 5.66 21.84 6.85 33.16 5.49s22.18-5.1 33-8.83c2.393-0.712 4.687-1.72 6.83-3 7.45-4.87 9.11-14.85 10.5-23.64 1.55-9.81 3.62-19.59 7.29-28.81 2.18-5.48 5-11.05 4.52-16.94 0-0.06-0.02-0.12-0.02-0.18z" opacity=".1"/>
<path d="m431.29 251.55v-0.11c0.18-1.763 0.024-3.545-0.46-5.25-0.199-1.097-0.33-2.206-0.39-3.32-0.115 2.115 0.016 4.236 0.39 6.32 0.16 0.78 0.34 1.57 0.46 2.36z" opacity=".1"/>
<path d="m434.34 227.09c0.769-1.292 1.642-2.519 2.61-3.67-1.83 1.75-5.21 0.19-5.92-2.24-0.262 0.983-0.262 2.017 0 3 0.246 0.734 0.682 1.389 1.263 1.901 0.582 0.511 1.288 0.859 2.047 1.009z" opacity=".1"/>
</g>
<path d="m684.1 483.66s3.17 11.5 0 21.5 0-21.5 0-21.5z" opacity=".1"/>
<path d="m697.6 495.39s1.33 14.6-1.67 17.19 1.67-17.19 1.67-17.19z" opacity=".1"/>
<path d="m198.99 342.86 101.61-1" stroke="#00EAFF" stroke-miterlimit="10" stroke-width="2"/>
<path d="m198.99 355.33 101.61-0.99" stroke="#00EAFF" stroke-miterlimit="10" stroke-width="2"/>
<path d="m198.99 367.81 101.61-1" stroke="#00EAFF" stroke-miterlimit="10" stroke-width="2"/>
</g>
<defs>
<clipPath id="a">
<rect width="1041.3" height="554.17" fill="#fff"/>
</clipPath>
</defs>
</svg>
