<?xml version="1.0" encoding="UTF-8"?>
<svg viewBox="0 0 507 382" xmlns="http://www.w3.org/2000/svg">
<path d="m311.53 271.45h-211.67l-33.868 40.027 287.95 5.132-42.411-45.159z" fill="#F2F2F2"/>
<path d="m353.94 317.24-287.94-5.068c-0.1201-1e-3 -0.2375-0.036-0.3385-0.101s-0.1814-0.157-0.2318-0.266c-0.0489-0.11-0.0664-0.23-0.0507-0.349 0.0156-0.118 0.0639-0.23 0.1394-0.323l33.868-40.04c0.0601-0.068 0.1342-0.123 0.2173-0.16s0.1733-0.056 0.2643-0.055h211.67c0.085-2e-3 0.17 0.014 0.248 0.046 0.079 0.033 0.15 0.082 0.208 0.144l42.411 45.171c0.087 0.089 0.145 0.201 0.168 0.323s8e-3 0.248-0.042 0.362c-0.06 0.102-0.148 0.186-0.253 0.242s-0.223 0.082-0.342 0.074zm-286.59-6.335 285.1 5.068-41.194-43.879h-211.11l-32.791 38.811z" fill="#D1D3D4"/>
<path d="m259.15 209.25s20.736 42.296 21.548 72.11c0 0 20.723 6.944 20.723 9.934 0 2.991-30.952 2.725-30.952 2.725l-24.083-59.452 12.764-25.317z" fill="#FFB9B9"/>
<path d="m272.77 294.66h-2.256c-0.125-1e-3 -0.247-0.039-0.351-0.108-0.104-0.07-0.185-0.169-0.232-0.285l-24.083-59.465c-0.037-0.081-0.057-0.17-0.057-0.259 0-0.09 0.02-0.179 0.057-0.26l12.675-25.342c0.053-0.107 0.134-0.196 0.235-0.259 0.1-0.063 0.217-0.096 0.336-0.096 0.118 1e-3 0.234 0.035 0.335 0.098 0.1 0.062 0.182 0.151 0.235 0.257 0.203 0.418 20.597 42.346 21.636 71.92 5.387 1.825 20.737 7.299 20.737 10.403-3e-3 0.158-0.038 0.314-0.104 0.458-0.065 0.143-0.159 0.272-0.277 0.378-2.268 2.344-21.839 2.56-28.886 2.56zm-1.825-1.267c14.031 0.088 28.937-0.697 29.913-2.192 0-1.268-9.316-5.563-20.28-9.25-0.124-0.04-0.232-0.118-0.31-0.222-0.077-0.105-0.119-0.231-0.121-0.361-0.761-26.609-17.669-63.671-20.965-70.678l-12.015 23.897 23.778 58.806z" fill="#231F20"/>
<path d="m197.45 203.86s45.427 0 64.085 5.385l-10.71 29.904-69.878-17.676 16.503-17.613z" fill="#575A89"/>
<path d="m250.83 239.83h-0.153l-69.877-17.74c-0.106-0.024-0.204-0.077-0.282-0.153s-0.134-0.172-0.161-0.277c-0.032-0.105-0.035-0.216-0.011-0.323 0.025-0.106 0.076-0.205 0.15-0.286l16.478-17.663c0.06-0.063 0.133-0.114 0.214-0.148 0.08-0.035 0.167-0.054 0.255-0.055 0.456 0 45.731 0 64.262 5.411 0.084 0.022 0.162 0.062 0.23 0.117 0.068 0.054 0.123 0.122 0.163 0.2 0.034 0.08 0.051 0.166 0.051 0.253s-0.017 0.173-0.051 0.254l-10.711 29.954c-0.035 0.123-0.108 0.233-0.207 0.315-0.1 0.081-0.222 0.13-0.35 0.141zm-68.686-18.652 68.293 17.258 10.292-28.763c-17.986-4.916-59.243-5.182-63.008-5.182l-15.577 16.687z" fill="#231F20"/>
<path d="m208.21 143.69c-0.469 0.684 10.013 18.195 12.523 19.462s30.636-5.068 37.125-6.589c6.49-1.52 10.292-0.582 10.837 2.091 0.545 2.674-6.401 10.897-8.872 12.19-2.472 1.292-31.206 17.739-40.345 14.989-9.138-2.749-32.562-28.307-32.562-28.307" fill="#FFB9B9"/>
<path d="m221.96 186.77c-0.882 0.017-1.762-0.094-2.611-0.33-9.202-2.775-31.891-27.432-32.854-28.484-0.059-0.059-0.107-0.129-0.139-0.206s-0.049-0.16-0.049-0.244c0-0.083 0.017-0.166 0.049-0.243 0.032-0.078 0.08-0.148 0.139-0.207 0.121-0.116 0.282-0.182 0.45-0.182s0.329 0.066 0.45 0.182c0.228 0.254 23.411 25.456 32.283 28.13 5.311 1.609 19.152-3.535 38.963-14.458l0.9-0.494c2.37-1.267 8.949-9.288 8.492-11.492-0.06-0.318-0.189-0.618-0.378-0.88-0.188-0.263-0.431-0.481-0.712-0.641-1.635-1.039-4.829-1.077-8.986-0.076-0.33 0.089-34.4 8.11-37.556 6.526-2.662-1.331-12.308-17.562-12.828-19.64-0.044-0.122-0.06-0.253-0.047-0.383 0.013-0.129 0.055-0.254 0.124-0.365 0.048-0.068 0.109-0.127 0.179-0.171 0.071-0.045 0.15-0.076 0.232-0.09 0.083-0.014 0.167-0.011 0.249 7e-3 0.082 0.019 0.159 0.054 0.227 0.102 0.095 0.068 0.17 0.16 0.217 0.267 0.047 0.108 0.064 0.225 0.049 0.341 0.406 1.762 9.937 17.74 12.168 18.804 1.927 0.963 24.919-3.801 36.694-6.627 4.563-1.09 8.011-1.014 9.963 0.228 0.421 0.257 0.784 0.597 1.068 1.001 0.283 0.403 0.481 0.86 0.579 1.343 0.634 3.117-6.755 11.594-9.138 12.874l-0.888 0.481c-12.7 7.058-28.861 14.927-37.289 14.927z" fill="#231F20"/>
<path d="m263.44 171.8s2.649-7.285 2.244-8.489c-0.406-1.204-6.401-4.131-6.401-4.131s-5.4 0.52-4.905-0.595c0.494-1.115 8.086-4.41 11.217-3.954 3.131 0.457 11.851 3.903 13.245 5.5 1.395 1.596-2.04 8.236-3.992 9.351s-13.74 7.146-11.408 2.318z" fill="#231F20"/>
<path d="m264.25 174.25c-0.456 0.028-0.907-0.112-1.267-0.393-0.532-0.494-0.558-1.267-0.063-2.293 1.267-3.345 2.408-7.362 2.23-8.046-0.177-0.684-3.232-2.37-5.932-3.687-3.016 0.278-4.791 0.076-5.272-0.583-0.096-0.13-0.154-0.285-0.167-0.446-0.014-0.161 0.018-0.322 0.091-0.466 0.709-1.61 8.771-4.765 11.876-4.321 3.105 0.443 12.067 3.915 13.626 5.702 0.241 0.346 0.402 0.742 0.472 1.158s0.047 0.843-0.067 1.249c-0.456 2.737-2.877 6.944-4.55 7.907-0.177 0.05-7.567 4.219-10.977 4.219zm-4.968-15.699c0.092-0.018 0.187-0.018 0.279 0 1.876 0.925 6.337 3.193 6.717 4.511 0.381 1.318-1.419 6.639-2.243 8.869-0.317 0.647-0.228 0.849-0.228 0.849 0.71 0.761 7.199-1.951 10.761-3.991 1.267-0.71 3.511-4.536 3.929-7.02 0.165-0.975 0-1.267-0.114-1.368-1.179-1.369-9.595-4.828-12.852-5.297-2.637-0.38-8.772 2.218-10.255 3.32 1.319 0.14 2.649 0.14 3.968 0l0.038 0.127z" fill="#231F20"/>
<path d="m249.48 218.88s20.736 42.295 21.548 72.097c0 0 20.736 6.957 20.736 9.934 0 2.978-30.953 2.737-30.953 2.737l-24.082-59.464 12.751-25.304z" fill="#FFB9B9"/>
<path d="m263.1 304.32h-2.256c-0.125-2e-3 -0.246-0.041-0.35-0.11-0.103-0.07-0.184-0.168-0.233-0.283l-24.083-59.464c-0.034-0.083-0.052-0.171-0.052-0.26s0.018-0.178 0.052-0.26l12.675-25.342c0.054-0.104 0.136-0.191 0.237-0.252 0.101-0.06 0.216-0.091 0.334-0.09 0.118 0 0.235 0.033 0.336 0.096s0.182 0.152 0.234 0.259c0.203 0.418 20.597 42.346 21.636 71.92 5.4 1.825 20.749 7.286 20.749 10.39-0.014 0.321-0.15 0.625-0.38 0.849-2.282 2.332-21.852 2.547-28.899 2.547zm-1.825-1.267c14.018 0.089 28.949-0.684 29.913-2.179 0-1.268-9.316-5.563-20.28-9.25-0.122-0.043-0.228-0.122-0.305-0.226-0.077-0.103-0.121-0.228-0.126-0.357-0.761-26.609-17.669-63.684-20.965-70.678l-12.028 23.859 23.791 58.831z" fill="#231F20"/>
<path d="m203.48 207.69 48.419 8.515-13.943 42.523s-64.008 11.987-86.582 1.761c-22.575-10.225-16.174-56.626-16.174-56.626l68.28 3.827z" fill="#575A89"/>
<path d="m179.81 265.26c-12.904 0-22.511-1.406-28.684-4.206-9.456-4.27-15.299-15.573-16.921-32.653-0.711-8.202-0.588-16.455 0.367-24.633 0.02-0.158 0.099-0.302 0.221-0.404 0.123-0.101 0.28-0.151 0.439-0.14l68.292 3.801h0.077l48.418 8.515c0.089 0.018 0.173 0.054 0.247 0.107 0.074 0.052 0.137 0.119 0.184 0.197 0.037 0.081 0.057 0.17 0.057 0.26 0 0.089-0.02 0.178-0.057 0.259l-13.943 42.511c-0.036 0.107-0.1 0.203-0.184 0.279-0.084 0.075-0.187 0.128-0.297 0.152-0.165 0-16.25 3.016-34.882 4.714-8.678 0.827-16.456 1.241-23.334 1.241zm-44.059-60.744c-0.621 5.347-4.651 46.097 15.895 55.397 21.256 9.617 80.587-0.798 85.835-1.748l13.6-41.472-47.658-8.376-67.672-3.801z" fill="#231F20"/>
<path d="m208.96 124.93-16.325-2.534s-7.91-1.559-18.481 4.282c-8.251 4.562-18.771 15.205-24.082 24.329-18.734 32.171-16.68 82.475-16.68 82.475s55.022-14.357 66.594-22.137c9.088-6.094 7.808-8.73 7.808-8.73s-5.602-9.642-4.753-17.296c0.849-7.653 14.386-50.075 5.919-60.389z" fill="#CBCDDA"/>
<path d="m226.12 288.36c5.07-4.751 10.254-14.432 10.634-21.54 0.482-8.705-7.605-18.005-13.853-23.023-7.948-6.336-17.593-10.137-27.138-13.558-9.544-3.421-19.278-6.792-27.733-12.43-6.519-4.379-12.099-10.015-16.413-16.577s-7.274-13.918-8.708-21.639c-1.876-11.061 3.675-28.712-12.244-31.348-7.681-1.267-15.451 2.775-20.711 8.515-6.794 7.425-10.14 17.372-12.333 27.192-4.9813 22.504-4.6137 46.591 3.8021 68.03 8.417 21.439 25.617 39.888 47.43 47.351 20.863 7.134 46.708 5.069 66.519-4.08 3.931-1.703 7.56-4.031 10.748-6.893z" fill="#00EAFF"/>
<path d="m176.08 304.28c-9.298 0.077-18.546-1.365-27.378-4.27-20.952-7.184-38.836-25.025-47.823-47.731-7.9849-20.198-9.3285-43.854-3.8909-68.423 1.8886-8.502 5.0699-19.323 12.485-27.496 6.008-6.551 14.171-9.896 21.307-8.718 12.37 2.053 12.345 12.937 12.32 22.529-0.11 3.124 0.043 6.252 0.456 9.351 1.402 7.634 4.322 14.91 8.587 21.396s9.789 12.05 16.243 16.364c7.783 5.182 16.82 8.451 25.541 11.606l2.066 0.748c9.848 3.586 19.342 7.311 27.314 13.672 6.807 5.41 14.576 14.837 14.107 23.568-0.418 7.665-5.957 17.359-10.849 21.946-3.215 2.927-6.884 5.315-10.863 7.07-12.46 5.581-25.968 8.441-39.622 8.388zm-48.279-155.56c-6.971 0-13.397 4.22-17.365 8.54-5.665 6.197-9.43 14.496-12.168 26.901-5.3869 24.29-4.056 47.68 3.8027 67.637 8.872 22.364 26.427 39.914 47.037 46.971 19.976 6.843 45.896 5.246 66.024-4.054 3.853-1.693 7.406-4 10.52-6.83 4.715-4.435 10.039-13.938 10.432-21.072 0.443-8.236-7.06-17.258-13.613-22.478-7.821-6.221-17.213-9.921-26.947-13.457l-2.066-0.747c-8.797-3.181-17.91-6.475-25.819-11.746-6.595-4.416-12.236-10.109-16.59-16.743-4.354-6.633-7.333-14.073-8.76-21.878-0.423-3.174-0.58-6.379-0.469-9.579 0-9.529 0-19.361-11.23-21.237-0.922-0.152-1.855-0.228-2.789-0.228z" fill="#231F20"/>
<path d="m177.63 170.22s26.745 32.615 36.517 30.41c9.773-2.205 48.52-21.427 48.52-21.427s10.241-2.382 13.017-5.841 4.715-10.986 3.144-11.594c-1.572-0.608-15.21 6.234-15.21 6.234s3.219-4.13 1.711-5.841c-1.509-1.711-9.114 6.488-9.114 6.488l-39.875 10.402-20.28-29.51" fill="#FFB9B9"/>
<path d="m213.17 201.33c-10.71 0-34.957-29.409-36.022-30.702-0.054-0.064-0.095-0.139-0.12-0.219-0.024-0.081-0.033-0.165-0.025-0.249 9e-3 -0.084 0.034-0.165 0.074-0.239s0.094-0.14 0.16-0.192c0.129-0.105 0.295-0.155 0.461-0.138 0.167 0.016 0.319 0.098 0.426 0.226 0.266 0.33 26.617 32.286 35.883 30.157 9.582-2.192 48-21.186 48.38-21.376h0.14c0.101 0 10.051-2.357 12.675-5.613 2.826-3.523 4.068-9.997 3.396-10.618-1.039-0.19-8.302 3.015-14.728 6.221-0.129 0.062-0.275 0.08-0.415 0.05-0.139-0.03-0.266-0.105-0.358-0.215-0.088-0.111-0.137-0.25-0.137-0.392 0-0.143 0.049-0.281 0.137-0.393 0.938-1.267 2.598-4.042 1.724-5.068-1.496 0-5.641 3.801-8.138 6.5-0.085 0.09-0.195 0.152-0.316 0.177l-39.901 10.352c-0.127 0.032-0.26 0.025-0.382-0.021-0.122-0.045-0.228-0.126-0.303-0.232l-20.28-29.523c-0.09-0.141-0.124-0.312-0.093-0.477 0.031-0.164 0.123-0.311 0.258-0.41 0.14-0.094 0.311-0.129 0.477-0.098 0.166 0.03 0.313 0.125 0.41 0.262l20.027 29.143 39.292-10.25c1.268-1.419 6.502-6.792 8.873-6.792 0.194-8e-3 0.388 0.029 0.566 0.108s0.336 0.198 0.46 0.348c1.078 1.267 0.406 3.193-0.405 4.676 4.753-2.306 12.282-5.778 13.701-5.233 0.217 0.092 0.408 0.237 0.556 0.42s0.249 0.4 0.294 0.631c0.633 2.357-1.382 8.604-3.727 11.531-2.788 3.472-12.282 5.791-13.296 6.031-2.332 1.166-38.975 19.247-48.596 21.452-0.369 0.096-0.747 0.151-1.128 0.165z" fill="#231F20"/>
<path d="m196.03 150.14c-0.109-1e-3 -0.216-0.03-0.311-0.083s-0.176-0.129-0.234-0.221l-7.149-11.492c-0.046-0.07-0.077-0.149-0.092-0.232-0.015-0.082-0.013-0.167 6e-3 -0.249 0.019-0.081 0.055-0.158 0.104-0.226 0.05-0.068 0.112-0.125 0.185-0.168 0.143-0.086 0.315-0.113 0.478-0.075s0.305 0.138 0.396 0.278l7.149 11.493c0.057 0.096 0.088 0.206 0.09 0.318s-0.025 0.223-0.078 0.321c-0.054 0.098-0.133 0.181-0.228 0.24s-0.204 0.092-0.316 0.096z" fill="#231F20"/>
<path d="m177.63 170.85c-0.082 0-0.164-0.017-0.241-0.05-0.076-0.033-0.145-0.08-0.202-0.14l-11.788-12.012c-0.066-0.057-0.119-0.127-0.157-0.206-0.037-0.079-0.058-0.165-0.061-0.252-2e-3 -0.087 0.013-0.174 0.045-0.255 0.033-0.081 0.082-0.155 0.144-0.216s0.136-0.109 0.218-0.14c0.081-0.032 0.168-0.046 0.256-0.042 0.087 4e-3 0.172 0.026 0.251 0.065 0.078 0.038 0.148 0.093 0.204 0.159l11.788 12.012c0.059 0.059 0.106 0.129 0.138 0.206 0.033 0.078 0.049 0.16 0.049 0.244s-0.016 0.167-0.049 0.244c-0.032 0.077-0.079 0.147-0.138 0.206-0.125 0.113-0.288 0.176-0.457 0.177z" fill="#231F20"/>
<path d="m248.67 159.46s4.753-6.982 6.337-7.311c1.585-0.33 10.711 1.951 9.177 2.914s-6.464 0.76-6.464 0.76-1.927 2.902-3.803 5.069" fill="#FFB9B9"/>
<path d="m253.96 161.58c-0.147 4e-3 -0.292-0.045-0.405-0.139-0.108-0.113-0.172-0.26-0.181-0.416-9e-3 -0.155 0.037-0.309 0.13-0.433 1.787-2.167 3.701-5.069 3.714-5.069 0.061-0.09 0.144-0.163 0.242-0.212s0.206-0.072 0.315-0.066c1.893 0.112 3.791-0.042 5.641-0.457-1.597-0.836-7.06-2.192-8.252-1.964-0.811 0.165-3.713 3.802-5.931 7.058-0.096 0.14-0.244 0.235-0.41 0.266s-0.338-5e-3 -0.478-0.101c-0.139-0.096-0.235-0.243-0.266-0.409-0.031-0.167 6e-3 -0.339 0.102-0.478 1.153-1.685 5.07-7.235 6.73-7.603 1.267-0.253 9.392 1.331 10.039 2.965 0.079 0.204 0.081 0.429 7e-3 0.634-0.075 0.205-0.222 0.376-0.413 0.481-1.458 0.913-5.222 0.887-6.464 0.862-0.545 0.798-2.079 3.054-3.6 4.878-0.064 0.073-0.145 0.129-0.235 0.165-0.091 0.035-0.188 0.048-0.285 0.038z" fill="#231F20"/>
<path d="m273.91 161.14c-0.368-0.9-2.155-0.178-1.787 0.722 0.367 0.9 2.154 0.19 1.787-0.722z" fill="#00EAFF"/>
<path d="m269.55 160.59c-0.71 0.671 0.532 1.964 1.267 1.267s-0.57-1.977-1.267-1.267z" fill="#00EAFF"/>
<path d="m271.12 162.87c-0.684 0.697 0.659 2.003 1.268 1.268 0.608-0.735-0.596-1.964-1.268-1.268z" fill="#00EAFF"/>
<path d="m268.95 162.53c-1.268 0.532-0.811 1.761 0.507 1.267s0.811-1.8-0.507-1.267z" fill="#00EAFF"/>
<path d="m260.46 158.27c-0.064-1e-3 -0.125-0.02-0.177-0.057-0.052-0.036-0.092-0.087-0.115-0.146-0.03-0.079-0.028-0.166 5e-3 -0.244s0.095-0.14 0.172-0.174l4.703-1.748c0.079-0.029 0.166-0.025 0.242 0.011 0.076 0.035 0.135 0.1 0.164 0.179 0.026 0.077 0.022 0.162-0.011 0.237s-0.092 0.135-0.167 0.168l-4.702 1.749-0.114 0.025z" fill="#00EAFF"/>
<path d="m264.81 158.52c-0.054 0.017-0.111 0.017-0.165 0l-3.536-2.242c-0.071-0.047-0.121-0.119-0.14-0.202-0.018-0.082-5e-3 -0.169 0.039-0.242 0.02-0.036 0.048-0.067 0.082-0.092 0.033-0.024 0.071-0.042 0.111-0.051 0.041-0.01 0.082-0.011 0.123-4e-3 0.041 8e-3 0.08 0.023 0.115 0.046l3.599 2.205c0.057 0.036 0.101 0.09 0.125 0.154 0.024 0.063 0.027 0.133 8e-3 0.198-0.018 0.065-0.057 0.123-0.111 0.164-0.053 0.042-0.119 0.065-0.187 0.066h-0.063z" fill="#00EAFF"/>
<path d="m191.9 119.07c-5.983 0.19-12.473-2.914-14.209-8.616 1.645 0.699 3.422 1.036 5.209 0.988-3.675-5.993-6.489-12.772-6.337-19.792s3.523-14.293 9.76-17.473c3.446-1.5622 7.207-2.3039 10.989-2.1667 2.535 0 5.323 0.19 7.415 1.7105l-5.438-4.3588c3.602-0.6361 7.302-0.4405 10.817 0.5719s6.752 2.8148 9.463 5.2694l-1.762-5.7779c5.424 2.2507 9.803 6.4567 12.27 11.784 1.799 3.8013 3.435 13.609-4.132 12.405 0.367 0-5.07 8.2487-5.679 8.9457-2.504 2.487-5.195 4.778-8.048 6.855-5.894 4.701-11.699 9.009-19.659 9.592l-0.659 0.063z" fill="#2F2E41"/>
<path d="m191.39 119.71c-5.818 0-12.473-3.053-14.298-9.085-0.033-0.114-0.032-0.235 1e-3 -0.349 0.033-0.115 0.097-0.217 0.186-0.296 0.088-0.08 0.197-0.133 0.315-0.153 0.117-0.02 0.237-7e-3 0.347 0.038 1.207 0.516 2.493 0.824 3.803 0.912-4.043-6.855-5.97-13.127-5.881-19.145 0.114-7.8559 4.106-14.939 10.14-18.031 3.532-1.621 7.397-2.3851 11.28-2.2301 1.243-0.0314 2.486 0.0491 3.714 0.2408l-2.167-1.7233c-0.099-0.0723-0.173-0.1726-0.214-0.2879s-0.046-0.2401-0.014-0.3583c0.03-0.1164 0.093-0.222 0.18-0.3048s0.196-0.1396 0.314-0.164c3.338-0.5856 6.761-0.4784 10.056 0.3151 3.294 0.7934 6.391 2.2561 9.096 4.2971l-1.128-3.8013c-0.04-0.115-0.044-0.2392-0.013-0.3566 0.032-0.1175 0.098-0.2228 0.19-0.3023 0.088-0.0799 0.196-0.1331 0.313-0.1533s0.237-0.0065 0.346 0.0393c5.596 2.2989 10.121 6.6188 12.675 12.101 1.407 3.0157 2.535 8.8697 0.343 11.657-0.549 0.6851-1.275 1.206-2.1 1.5055-0.826 0.2995-1.717 0.3661-2.578 0.1924-1.687 3.0068-3.553 5.9098-5.589 8.6918-1.955 2-4.075 3.831-6.338 5.474-0.621 0.482-1.267 0.951-1.838 1.445-6.248 4.979-12.066 9.148-20.001 9.718-0.219 0.013-0.439 0.013-0.659 0h-0.481v0.114zm-12.612-8.248c2.218 4.751 8.061 7.057 13.106 6.918h0.608c7.605-0.545 13.22-4.612 19.304-9.453l1.838-1.457c2.19-1.6 4.242-3.38 6.135-5.322 1.99-2.7409 3.83-5.5876 5.513-8.527v-0.1014c0.013-0.0824 0.041-0.1616 0.084-0.233 0.043-0.0713 0.1-0.1335 0.167-0.183 0.067-0.0494 0.144-0.0851 0.225-0.1051 0.08-0.0199 0.165-0.0237 0.247-0.0111 0.699 0.2094 1.444 0.2131 2.145 0.0109s1.329-0.6019 1.81-1.1513c1.749-2.3314 0.836-7.5138-0.495-10.365-2.215-4.73-5.981-8.5613-10.672-10.859l1.356 4.4602c0.04 0.1334 0.036 0.2764-0.014 0.4068-0.049 0.1304-0.139 0.2409-0.258 0.3145-0.118 0.0736-0.258 0.1061-0.396 0.0926-0.139-0.0136-0.269-0.0725-0.371-0.1677-2.457-2.222-5.358-3.8973-8.511-4.9152s-6.486-1.3551-9.779-0.9894l4.335 3.4211c0.129 0.1046 0.214 0.2553 0.235 0.4206s-0.022 0.3324-0.121 0.4664c-0.103 0.1281-0.25 0.2125-0.413 0.2361-0.162 0.0235-0.327-0.0156-0.462-0.1094-1.977-1.4445-4.652-1.6346-7.047-1.5965-3.686-0.1499-7.355 0.5707-10.711 2.1033-5.665 2.8763-9.392 9.5159-9.493 16.916-0.089 6.0567 1.977 12.418 6.337 19.437 0.056 0.097 0.085 0.206 0.085 0.317s-0.029 0.221-0.085 0.317c-0.054 0.099-0.132 0.182-0.228 0.242-0.095 0.06-0.204 0.094-0.317 0.1-1.408 0.031-2.812-0.166-4.157-0.583v-0.05z" fill="#231F20"/>
<path d="m225.69 104.84s3.511 9.82 1.914 11.29-5.07-0.634-5.07-0.634" fill="#FFB9B9"/>
<path d="m226.07 117.31c-1.39-0.114-2.734-0.548-3.929-1.267-0.072-0.043-0.135-0.1-0.184-0.167-0.05-0.067-0.086-0.144-0.106-0.225-0.02-0.082-0.024-0.166-0.011-0.249s0.042-0.162 0.086-0.233c0.04-0.073 0.095-0.137 0.161-0.187 0.066-0.051 0.142-0.088 0.223-0.108s0.165-0.023 0.247-0.01c0.082 0.014 0.161 0.044 0.23 0.089 0.824 0.482 3.385 1.647 4.399 0.71 0.76-0.71-0.469-6.057-2.092-10.606-0.057-0.158-0.049-0.332 0.023-0.484 0.071-0.152 0.2-0.269 0.358-0.327 0.078-0.03 0.161-0.044 0.245-0.041 0.083 3e-3 0.165 0.023 0.241 0.059 0.076 0.035 0.144 0.086 0.2 0.148 0.055 0.062 0.098 0.135 0.125 0.214 0.862 2.395 3.511 10.34 1.749 11.974-0.538 0.483-1.243 0.737-1.965 0.71z" fill="#231F20"/>
<path d="m227.25 93.434c2.839 3.8012 0.292 9.655-0.722 13.647-1.42 5.6-2.971 11.167-4.652 16.7-1.065 3.51-9.52 1.419-10.876 0l-2.813 14.267s-4.715 0.114-11.306-5.144c-6.591-5.259-6.224-7.045-6.224-7.045l4.614-16.08s6.071 1.546 11.408-4.814c5.336-6.3613 7.972-17.55 7.972-17.55s9.823 2.2934 12.599 6.0187z" fill="#FFB9B9"/>
<path d="m208.16 138.64c-0.584 0-5.273-0.178-11.674-5.284s-6.553-7.159-6.452-7.666l4.627-16.13c0.044-0.157 0.149-0.291 0.291-0.372 0.143-0.08 0.311-0.102 0.469-0.059 0.228 0 5.78 1.343 10.825-4.625 5.044-5.9676 7.82-17.156 7.845-17.27 0.018-0.0814 0.052-0.1584 0.101-0.2264 0.048-0.068 0.109-0.1256 0.18-0.1693 0.071-0.0438 0.15-0.0728 0.233-0.0854 0.082-0.0125 0.166-0.0084 0.247 0.0123 0.406 0.0887 10.026 2.4201 12.903 6.2467 2.535 3.3959 1.128 8.1852 0 12.037-0.228 0.76-0.444 1.483-0.608 2.142-1.42 5.575-2.992 11.213-4.665 16.725-0.203 0.569-0.561 1.069-1.034 1.445-0.472 0.376-1.04 0.613-1.64 0.684-3.105 0.448-5.97 0.283-8.81-1.049l-2.179 13.099c-0.024 0.147-0.097 0.281-0.208 0.381-0.11 0.099-0.252 0.157-0.401 0.164h-0.05zm-16.884-12.671s0.279 1.799 6.008 6.335c5.07 4.03 8.987 4.815 10.356 4.967l1.939-13.824c0.015-0.119 0.064-0.231 0.14-0.324 0.077-0.092 0.178-0.161 0.293-0.198 0.114-0.038 0.236-0.042 0.353-0.012 0.116 0.03 0.222 0.092 0.304 0.18 0.773 0.836 5.767 2.369 8.873 1.659 0.963-0.228 1.546-0.646 1.736-1.267 1.673-5.499 3.232-11.112 4.652-16.675 0.177-0.671 0.393-1.406 0.621-2.179 1.052-3.573 2.37-8.0333 0.203-10.922-2.231-2.9524-9.43-5.0684-11.573-5.6259-0.646 2.5341-3.206 11.568-7.959 17.182-4.754 5.613-9.747 5.359-11.497 5.068l-4.461 15.649 0.012-0.013z" fill="#231F20"/>
<path d="m222.76 119.52s-1.85-0.633-6.464-6.044z" fill="#fff"/>
<path d="m222.76 120.16h-0.203c-0.202 0-2.142-0.836-6.743-6.222-0.107-0.13-0.159-0.297-0.145-0.465s0.094-0.324 0.221-0.434c0.063-0.054 0.136-0.096 0.215-0.121 0.079-0.026 0.162-0.036 0.245-0.028 0.083 7e-3 0.163 0.03 0.237 0.069 0.073 0.039 0.138 0.092 0.191 0.156 4.347 5.068 6.185 5.854 6.21 5.854 0.154 0.062 0.278 0.181 0.346 0.332s0.076 0.322 0.022 0.479c-0.05 0.115-0.134 0.213-0.24 0.281-0.106 0.067-0.23 0.102-0.356 0.099z" fill="#231F20"/>
<path d="m214.04 105.81c0.187-1.446-0.033-2.916-0.634-4.244-0.31-1.08-0.784-2.1063-1.407-3.0415-0.312-0.4675-0.724-0.86-1.206-1.1493-0.483-0.2892-1.023-0.4679-1.582-0.5232-0.505 0.0076-1.003 0.1249-1.458 0.3437s-0.857 0.5338-1.179 0.9234c-0.65 0.7556-1.122 1.6476-1.381 2.6099-0.617 2.089-0.671 4.303-0.156 6.419 0.514 2.116 1.578 4.058 3.084 5.631l-0.229-0.418" fill="#FFB9B9"/>
<path d="m208.12 113.35c-0.172-1e-3 -0.336-0.069-0.457-0.19-1.573-1.661-2.685-3.704-3.225-5.926-0.54-2.223-0.49-4.548 0.145-6.745 0.286-1.053 0.806-2.0276 1.521-2.8512 0.387-0.4467 0.866-0.8038 1.404-1.0467 0.539-0.2429 1.124-0.3657 1.714-0.3598 0.659 0.0547 1.296 0.2561 1.867 0.5894 0.57 0.3333 1.058 0.79 1.429 1.3366 0.651 0.9948 1.155 2.0787 1.495 3.2187 0.633 1.44 0.853 3.028 0.634 4.587-0.016 0.082-0.049 0.16-0.097 0.229s-0.109 0.127-0.181 0.171c-0.071 0.044-0.151 0.073-0.234 0.085s-0.168 6e-3 -0.248-0.017c-0.163-0.039-0.304-0.141-0.392-0.283s-0.115-0.314-0.077-0.477c0.149-1.328-0.061-2.671-0.609-3.89-0.274-1.017-0.702-1.9869-1.267-2.8761-0.265-0.4062-0.62-0.7457-1.038-0.9919s-0.887-0.3924-1.37-0.4272c-0.408 0.0064-0.809 0.0989-1.179 0.2714-0.369 0.1725-0.697 0.4212-0.964 0.7296-0.602 0.6795-1.036 1.4912-1.267 2.3692-0.534 1.853-0.608 3.809-0.215 5.697s1.241 3.651 2.471 5.137c0.085 0.02 0.165 0.057 0.235 0.11 0.069 0.052 0.128 0.118 0.171 0.194l0.215 0.405c0.078 0.134 0.104 0.292 0.074 0.443-0.03 0.152-0.115 0.288-0.239 0.381-0.094 0.067-0.202 0.11-0.316 0.127z" fill="#231F20"/>
<path d="m210.22 123.59s-4.411-2.648-5.831-6.475c0 0-1.787 8.629 4.918 12.899l0.913-6.424z" fill="#231F20"/>
<path d="m209.3 130.65c-0.117-3e-3 -0.231-0.038-0.329-0.102-7.01-4.46-5.235-13.469-5.21-13.558 0.027-0.135 0.098-0.257 0.201-0.349 0.103-0.091 0.232-0.146 0.37-0.158 0.137-0.01 0.273 0.026 0.388 0.101 0.115 0.076 0.201 0.188 0.245 0.318 1.268 3.56 5.527 6.132 5.565 6.158 0.108 0.06 0.194 0.152 0.249 0.263 0.054 0.111 0.073 0.235 0.055 0.358l-0.9 6.424c-0.014 0.105-0.055 0.205-0.12 0.289-0.064 0.085-0.15 0.151-0.248 0.192-0.082 0.042-0.173 0.064-0.266 0.064zm-4.487-11.316c0 2.535 0.457 6.779 4.006 9.567l0.709-4.992c-1.848-1.212-3.448-2.764-4.715-4.575z" fill="#231F20"/>
<path d="m224.2 100.52c0.453-1.0464 0.488-2.0392 0.077-2.2173s-1.112 0.526-1.566 1.5726c-0.454 1.0467-0.488 2.0397-0.077 2.2177s1.112-0.526 1.566-1.573z" fill="#231F20"/>
<path d="m225.53 99.655c-0.142-0.0018-0.281-0.0508-0.393-0.1394l-3.473-2.7749c-0.115-0.109-0.185-0.2573-0.197-0.4156-0.011-0.1583 0.038-0.3151 0.136-0.4393 0.099-0.1243 0.241-0.2069 0.398-0.2316 0.157-0.0248 0.317 0.0103 0.449 0.0982l3.473 2.7495c0.066 0.0508 0.122 0.1143 0.163 0.1868s0.067 0.1525 0.076 0.2352c0.01 0.0828 2e-3 0.1666-0.021 0.2465-0.024 0.0799-0.063 0.1542-0.116 0.2185-0.057 0.0787-0.132 0.1434-0.217 0.1895-0.086 0.0461-0.181 0.0723-0.278 0.0766z" fill="#231F20"/>
<path d="m251.9 216.76-42.297-4.042c-0.074-5e-3 -0.146-0.024-0.212-0.058s-0.125-0.08-0.172-0.137-0.083-0.123-0.104-0.194-0.027-0.146-0.019-0.219c7e-3 -0.074 0.028-0.145 0.062-0.21s0.08-0.123 0.137-0.17c0.057-0.048 0.122-0.083 0.192-0.105 0.071-0.021 0.145-0.029 0.218-0.022l42.296 4.042c0.148 0 0.29 0.059 0.395 0.163 0.104 0.105 0.163 0.247 0.163 0.394 0 0.148-0.059 0.29-0.163 0.395-0.105 0.104-0.247 0.163-0.395 0.163h-0.101z" fill="#231F20"/>
<path d="m421.09 140.18s21.129 8.16 19.443 17.106c-1.685 8.945-10.14 42.169-10.14 42.169h-6.958s11.154-37.405 10.495-42.169c-0.659-4.765-12.891-9.111-12.891-9.111l0.051-7.995z" fill="#65617D"/>
<path d="m430.44 200.08h-6.959c-0.098 1e-3 -0.196-0.021-0.284-0.065s-0.164-0.109-0.223-0.188c-0.056-0.08-0.094-0.172-0.112-0.268s-0.014-0.195 0.011-0.29c3.803-12.886 10.977-38.241 10.482-41.903-0.494-3.661-9.176-7.425-12.485-8.603-0.122-0.044-0.228-0.125-0.303-0.232-0.075-0.106-0.115-0.233-0.115-0.364v-7.995c0-0.103 0.025-0.204 0.074-0.295s0.119-0.168 0.205-0.224c0.083-0.061 0.18-0.1 0.282-0.114 0.102-0.013 0.205 0 0.301 0.037 0.887 0.343 21.611 8.465 19.836 17.816-1.685 8.869-10.013 41.877-10.14 42.219-0.03 0.13-0.102 0.246-0.206 0.331-0.103 0.085-0.231 0.133-0.364 0.138zm-6.109-1.267h5.615c1.026-4.105 8.391-33.413 9.962-41.649 1.382-7.349-14.297-14.42-18.188-16.054v6.614c2.433 0.9 12.244 4.815 12.89 9.465 0.647 4.65-8.606 35.985-10.279 41.624z" fill="#231F20"/>
<path d="m418.69 65.393v115.47h-31.687v-93.08l31.687-22.39zm0-1.2671c-0.273-0.0036-0.539 0.0808-0.76 0.2408l-31.688 22.39c-0.169 0.122-0.307 0.2816-0.404 0.4664-0.097 0.1847-0.15 0.3894-0.153 0.598v93.042c0 0.336 0.133 0.659 0.371 0.896 0.238 0.238 0.56 0.371 0.896 0.371h31.688c0.336 0 0.658-0.133 0.896-0.371 0.238-0.237 0.371-0.56 0.371-0.896v-115.47c3e-3 -0.2396-0.062-0.4751-0.188-0.6792s-0.306-0.3684-0.522-0.4738c-0.183-0.0988-0.387-0.151-0.595-0.1521l0.088 0.038z" fill="#65617D"/>
<path d="m423.48 65.393h-4.791v115.48h4.791v-115.48z" fill="#65617D"/>
<path d="m423.48 65.393v115.47h-4.791v-115.47h4.791zm0-1.2671h-4.791c-0.336 0-0.658 0.1335-0.896 0.3711-0.238 0.2377-0.371 0.56-0.371 0.896v115.47c0 0.336 0.133 0.659 0.371 0.896 0.238 0.238 0.56 0.371 0.896 0.371h4.791c0.337 0 0.659-0.133 0.897-0.371 0.237-0.237 0.371-0.56 0.371-0.896v-115.47c0-0.336-0.134-0.6583-0.371-0.896-0.238-0.2376-0.56-0.3711-0.897-0.3711z" fill="#231F20"/>
<path d="m436.26 197.18h-30.94c-0.756 0-1.369 0.613-1.369 1.369v0.38c0 0.756 0.613 1.368 1.369 1.368h30.94c0.756 0 1.369-0.612 1.369-1.368v-0.38c0-0.756-0.613-1.369-1.369-1.369z" fill="#65617D"/>
<path d="m436.26 200.93h-30.94c-0.531 0-1.04-0.211-1.416-0.586-0.376-0.376-0.587-0.885-0.587-1.416v-0.329c0-0.263 0.052-0.522 0.153-0.765 0.101-0.242 0.249-0.462 0.435-0.647 0.186-0.184 0.407-0.331 0.65-0.43s0.503-0.149 0.765-0.148h30.94c0.262-1e-3 0.522 0.049 0.765 0.148s0.464 0.246 0.65 0.43c0.186 0.185 0.334 0.405 0.435 0.647 0.101 0.243 0.152 0.502 0.152 0.765v0.392c-0.016 0.52-0.234 1.013-0.608 1.375s-0.874 0.564-1.394 0.564zm-30.94-3.117c-0.193 0-0.378 0.076-0.515 0.211-0.138 0.135-0.217 0.319-0.22 0.511v0.393c0 0.195 0.077 0.382 0.215 0.52s0.325 0.215 0.52 0.215h30.94c0.195 0 0.382-0.077 0.52-0.215s0.215-0.325 0.215-0.52v-0.329c-3e-3 -0.193-0.082-0.377-0.22-0.512-0.137-0.135-0.322-0.211-0.515-0.211l-30.94-0.063z" fill="#231F20"/>
<path d="m449.25 200.3h-75.15v14.381h75.15v-14.381z" fill="#E5E5E5"/>
<path d="m449.25 215.33h-75.15c-0.086 0-0.171-0.017-0.251-0.05-0.079-0.033-0.151-0.082-0.211-0.144-0.06-0.061-0.108-0.134-0.139-0.214-0.032-0.079-0.047-0.165-0.046-0.251v-14.369c-1e-3 -0.085 0.014-0.171 0.046-0.251 0.031-0.08 0.079-0.152 0.139-0.214 0.06-0.061 0.132-0.11 0.211-0.143 0.08-0.033 0.165-0.05 0.251-0.05h75.15c0.174 0 0.342 0.069 0.466 0.193 0.123 0.123 0.193 0.291 0.193 0.465v14.369c0 0.175-0.07 0.343-0.193 0.466-0.124 0.124-0.292 0.193-0.466 0.193zm-74.491-1.267h73.844v-13.114h-73.844v13.114z" fill="#231F20"/>
<path d="m374.1 200.3-15.337 7.184v9.769l15.337-2.585v-14.368z" fill="#E5E5E5"/>
<path d="m358.77 217.91c-0.155-3e-3 -0.303-0.062-0.418-0.165-0.076-0.058-0.137-0.133-0.178-0.219-0.042-0.085-0.064-0.18-0.063-0.275v-9.782c2e-3 -0.125 0.038-0.246 0.105-0.352 0.067-0.105 0.163-0.189 0.275-0.243l15.337-7.185c0.1-0.047 0.211-0.067 0.321-0.06 0.111 7e-3 0.218 0.042 0.311 0.101 0.094 0.059 0.17 0.141 0.224 0.238 0.053 0.097 0.082 0.206 0.082 0.317v14.369c2e-3 0.155-0.052 0.305-0.152 0.424s-0.24 0.197-0.393 0.222l-15.337 2.534-0.114 0.076zm0.659-10.01v8.578l14.031-2.357v-12.797l-14.031 6.576z" fill="#231F20"/>
<path d="m374.1 214.67v83.463s73.591 0.71 73.591 0v-83.463h-73.591z" fill="#E5E5E5"/>
<path d="m425.88 299.11c-10.939 0-27.302-0.088-51.777-0.329-0.172 0-0.336-0.068-0.458-0.189-0.121-0.122-0.189-0.286-0.189-0.457v-83.464c0-0.171 0.068-0.335 0.189-0.457 0.122-0.121 0.286-0.189 0.458-0.189h73.591c0.086-2e-3 0.171 0.014 0.251 0.046 0.08 0.031 0.153 0.079 0.214 0.139s0.11 0.132 0.143 0.211c0.034 0.079 0.051 0.164 0.051 0.25v83.464c-5e-3 0.176-0.077 0.344-0.203 0.468-0.165 0.165-0.507 0.507-22.27 0.507zm-51.118-1.672c27.302 0.253 67.431 0.494 72.247 0.101v-82.209h-72.247v82.108z" fill="#231F20"/>
<path d="m358.77 217.25v68.41l15.337 12.469v-83.464l-15.337 2.585z" fill="#E5E5E5"/>
<path d="m374.1 298.78c-0.147-2e-3 -0.289-0.051-0.406-0.14l-15.349-12.468c-0.076-0.061-0.137-0.138-0.179-0.226-0.041-0.088-0.063-0.184-0.062-0.281v-68.423c0-0.154 0.055-0.304 0.155-0.422s0.238-0.197 0.39-0.224l15.349-2.534c0.095-0.013 0.191-6e-3 0.282 0.02 0.092 0.026 0.177 0.071 0.251 0.132 0.07 0.062 0.127 0.138 0.166 0.223s0.06 0.177 0.062 0.271v83.463c0 0.122-0.035 0.242-0.1 0.345s-0.158 0.186-0.268 0.238c-0.093 0.032-0.194 0.041-0.291 0.026zm-14.678-13.419 14.031 11.404v-81.322l-14.031 2.37v67.548z" fill="#231F20"/>
<path d="m388.18 164.23c-0.148-2e-3 -0.29-0.056-0.402-0.15-0.113-0.095-0.191-0.225-0.22-0.369-0.029-0.165 8e-3 -0.334 0.102-0.472 0.095-0.138 0.241-0.232 0.405-0.263l28.557-5.461c0.083-0.016 0.169-0.015 0.252 2e-3s0.162 0.051 0.232 0.098c0.07 0.048 0.13 0.109 0.176 0.18s0.079 0.15 0.094 0.233c0.016 0.083 0.015 0.169-2e-3 0.252s-0.05 0.161-0.098 0.231-0.109 0.13-0.18 0.177c-0.07 0.046-0.15 0.078-0.233 0.094l-28.557 5.461-0.126-0.013z" fill="#00EAFF" fill-opacity=".8"/>
<path d="m401.8 161c-0.154-1e-3 -0.304-0.058-0.42-0.161-0.116-0.102-0.192-0.243-0.213-0.396-0.951-7.78-4.842-22.263-13.347-27.167-0.127-0.092-0.215-0.228-0.247-0.381-0.033-0.154-7e-3 -0.314 0.072-0.449 0.079-0.136 0.205-0.238 0.354-0.285 0.15-0.048 0.312-0.039 0.455 0.026 8.936 5.144 12.992 20.083 13.942 28.104 0.018 0.167-0.03 0.335-0.134 0.468s-0.256 0.219-0.423 0.241h-0.039z" fill="#00EAFF" fill-opacity=".8"/>
<path d="m408.63 137.4h-0.126c-0.082-0.017-0.16-0.049-0.229-0.096-0.069-0.046-0.128-0.106-0.174-0.175-0.045-0.07-0.077-0.148-0.093-0.229-0.016-0.082-0.015-0.166 1e-3 -0.248 2.637-12.341 8.277-14.546 8.518-14.635 0.156-0.057 0.329-0.051 0.481 0.018 0.152 0.068 0.27 0.194 0.33 0.35 0.031 0.078 0.045 0.161 0.043 0.245s-0.02 0.167-0.055 0.244c-0.034 0.076-0.083 0.145-0.144 0.203-0.061 0.057-0.133 0.102-0.212 0.131 0 0-5.247 2.142-7.719 13.71-0.034 0.139-0.114 0.262-0.226 0.349-0.113 0.087-0.252 0.134-0.395 0.133z" fill="#00EAFF" fill-opacity=".8"/>
<path d="m406.06 160.67c-0.168 0-0.329-0.067-0.448-0.186-0.119-0.118-0.185-0.28-0.185-0.448-0.01-4.562 0.273-9.12 0.849-13.646 0.019-0.166 0.103-0.318 0.233-0.422 0.131-0.105 0.298-0.153 0.464-0.136 0.167 0.022 0.319 0.109 0.423 0.242 0.104 0.132 0.153 0.3 0.135 0.468-0.565 4.476-0.845 8.983-0.837 13.494 0 0.168-0.067 0.33-0.186 0.448-0.118 0.119-0.28 0.186-0.448 0.186z" fill="#00EAFF" fill-opacity=".8"/>
<path d="m390.47 96.323c-0.096 0.0246-0.196 0.0246-0.291 0-0.103-0.0562-0.189-0.1386-0.249-0.2388s-0.092-0.2146-0.094-0.3314v-4.0167c1e-3 -0.0996 0.025-0.1977 0.071-0.2859 0.047-0.0882 0.114-0.164 0.195-0.2209l13.309-9.5286c0.1-0.0591 0.214-0.0902 0.33-0.0902s0.23 0.0311 0.329 0.0902c0.103 0.0562 0.189 0.1386 0.249 0.2388s0.092 0.2146 0.094 0.3314v4.0674c-1e-3 0.1014-0.025 0.2012-0.072 0.2915-0.046 0.0902-0.113 0.1683-0.195 0.228l-13.308 9.4018c-0.114 0.0561-0.242 0.0781-0.368 0.0634zm0.634-4.2575v2.4075l12.041-8.5148v-2.5342l-12.041 8.6415z" fill="#00EAFF" fill-opacity=".8"/>
<path d="m397.59 91.292c-0.167-0.0033-0.326-0.071-0.444-0.1892-0.118-0.1181-0.186-0.2773-0.189-0.4444v-3.9279c3e-3 -0.1671 0.071-0.3263 0.189-0.4444 0.118-0.1182 0.277-0.1859 0.444-0.1892 0.168 0 0.33 0.0668 0.449 0.1856 0.118 0.1188 0.185 0.2799 0.185 0.448v3.9279c0 0.1681-0.067 0.3292-0.185 0.448-0.119 0.1188-0.281 0.1856-0.449 0.1856z" fill="#00EAFF" fill-opacity=".8"/>
<path d="m412.68 81.257c-1.191 0-2.129-1.3558-2.129-3.0917 0-1.736 0.938-3.0791 2.129-3.0791 1.192 0 2.142 1.3558 2.142 3.0791 0 1.7232-0.938 3.0917-2.142 3.0917zm0-4.9037c-0.355 0-0.862 0.7096-0.862 1.812 0 1.1023 0.507 1.8246 0.862 1.8246s0.875-0.7096 0.875-1.8246c0-1.1151-0.52-1.812-0.875-1.812z" fill="#00EAFF" fill-opacity=".8"/>
<path d="m399.12 129.89c-0.121-2e-3 -0.239-0.037-0.342-0.101-0.089-0.057-0.163-0.136-0.214-0.229s-0.077-0.197-0.078-0.303v-8.87c-1e-3 -0.117 0.03-0.233 0.091-0.334 0.06-0.1 0.147-0.182 0.252-0.236 1.952-1.014 8.39-4.359 9.126-4.549 0.094-0.021 0.192-0.021 0.287 1e-3 0.094 0.022 0.182 0.065 0.258 0.126 0.075 0.058 0.136 0.133 0.178 0.219 0.041 0.085 0.063 0.179 0.062 0.275v8.983c1e-3 0.119-0.032 0.236-0.095 0.336-0.063 0.101-0.153 0.182-0.259 0.235l-8.987 4.32c-0.083 0.061-0.178 0.105-0.279 0.127zm0.634-9.06v7.413l7.719-3.7v-7.602c-1.61 0.734-5.209 2.572-7.719 3.889z" fill="#00EAFF" fill-opacity=".8"/>
<path d="m394.62 112.85c-0.116 2e-3 -0.23-0.028-0.329-0.089-0.092-0.058-0.168-0.139-0.221-0.234s-0.082-0.202-0.083-0.311v-8.806c2e-3 -0.115 0.035-0.227 0.095-0.325s0.145-0.178 0.247-0.233c1.952-1.026 8.391-4.3583 9.126-4.5484 0.094-0.0228 0.191-0.0244 0.285-0.0046 0.095 0.0197 0.183 0.0602 0.26 0.1187 0.076 0.0609 0.137 0.1381 0.178 0.2259 0.042 0.0877 0.063 0.1837 0.063 0.2809v8.9835c0 0.119-0.033 0.235-0.096 0.336s-0.152 0.182-0.259 0.234l-8.987 4.308c-0.085 0.047-0.182 0.069-0.279 0.064zm0.634-9.06v7.387l7.719-3.712v-7.6029c-1.609 0.7859-5.196 2.6229-7.719 3.9279z" fill="#00EAFF" fill-opacity=".8"/>
<path d="m391.21 163.53c-0.057 7e-3 -0.115 1e-3 -0.169-0.016-0.055-0.018-0.105-0.047-0.148-0.085-0.14-0.099-0.235-0.249-0.266-0.418-0.145-1.173-0.217-2.354-0.216-3.535-0.044-0.774 0.136-1.544 0.52-2.218 0.264-0.36 0.618-0.644 1.027-0.823-0.175-0.275-0.279-0.588-0.305-0.913-0.079-0.686 0.112-1.377 0.533-1.926 0.198-0.253 0.449-0.461 0.735-0.608 0.378-0.181 0.796-0.261 1.213-0.232 0.418 0.029 0.821 0.166 1.17 0.397 0.319 0.207 0.577 0.497 0.746 0.838 0.17 0.341 0.245 0.721 0.217 1.101-0.011 0.304-0.089 0.603-0.228 0.874 0.157 0.062 0.306 0.143 0.444 0.241 0.374 0.279 0.663 0.656 0.836 1.089 0.213 0.626 0.365 1.271 0.456 1.926 0.064 0.317 0.115 0.583 0.153 0.71s0.101 0.76 0.19 1.786c0.015 0.157-0.028 0.314-0.122 0.44-0.093 0.127-0.231 0.214-0.385 0.245-4.69 0.861-5.958 1.127-6.401 1.127zm2.763-9.554c-0.175 0-0.349 0.039-0.507 0.115-0.131 0.075-0.244 0.179-0.33 0.304-0.22 0.275-0.324 0.625-0.291 0.975 0.018 0.129 0.072 0.251 0.154 0.351 0.083 0.101 0.192 0.177 0.315 0.219 0.122 0.024 0.235 0.083 0.323 0.171 0.088 0.089 0.148 0.201 0.171 0.324 0.021 0.123 6e-3 0.249-0.043 0.364-0.05 0.115-0.132 0.213-0.236 0.282-0.24 0.152-0.495 0.279-0.76 0.38-0.3 0.087-0.569 0.258-0.773 0.494-0.241 0.474-0.35 1.003-0.317 1.533 0 0.748 0 1.812 0.127 2.699 1.052-0.19 3.295-0.621 4.994-0.963 0-0.481-0.077-0.925-0.102-1.026s-0.089-0.431-0.165-0.773c-0.087-0.556-0.21-1.106-0.367-1.647-0.089-0.23-0.238-0.431-0.431-0.583-0.291-0.16-0.619-0.243-0.951-0.241-0.135-0.012-0.262-0.066-0.365-0.155-0.102-0.089-0.174-0.207-0.205-0.339-0.032-0.133-0.019-0.273 0.036-0.399s0.149-0.23 0.268-0.298c0.138-0.08 0.255-0.192 0.341-0.326 0.086-0.135 0.139-0.288 0.153-0.447 9e-3 -0.16-0.024-0.32-0.095-0.465-0.071-0.144-0.178-0.267-0.31-0.358-0.188-0.124-0.409-0.19-0.634-0.191z" fill="#00EAFF" fill-opacity=".8"/>
<path d="m416.74 152.51c-0.124-3e-3 -0.246-0.041-0.349-0.111-0.104-0.069-0.185-0.167-0.234-0.282 0-0.076-2.598-6.462-6.337-5.943-1.491 0.226-2.9 0.828-4.094 1.749-1.04 0.709-2.016 1.381-3.22 0.519-0.206-0.142-0.375-0.331-0.494-0.551s-0.184-0.466-0.19-0.716c-3e-3 -0.355 0.062-0.707 0.19-1.039-0.129 0.032-0.264 0.032-0.393 0-0.2-0.084-0.375-0.216-0.512-0.384s-0.231-0.366-0.274-0.579c-0.317-1.394 0.849-3.801 3.131-6.335 3.219-3.599 12.295-5.069 12.675-5.069 0.166-0.022 0.334 0.021 0.469 0.121 0.134 0.099 0.225 0.247 0.253 0.412 0.022 0.165-0.021 0.333-0.12 0.468s-0.247 0.226-0.412 0.254c-0.089 0-9.012 1.444-11.94 4.713-2.928 3.27-3.004 4.993-2.801 5.233 0.511-0.252 0.974-0.59 1.369-1.001 0.395-0.448 0.819-0.871 1.267-1.267 0.121-0.104 0.276-0.16 0.436-0.155s0.311 0.07 0.425 0.182 0.181 0.263 0.188 0.423c8e-3 0.159-0.046 0.315-0.149 0.437-0.396 0.448-0.819 0.871-1.267 1.267-0.637 0.631-1.077 1.432-1.268 2.307 3e-3 0.053 0.018 0.104 0.045 0.151 0.026 0.046 0.063 0.085 0.107 0.115 0.431 0.304 0.71 0.19 1.775-0.545 1.364-1.038 2.968-1.714 4.664-1.964 4.69-0.659 7.542 6.424 7.605 6.728 0.031 0.077 0.046 0.16 0.045 0.243-1e-3 0.084-0.018 0.166-0.051 0.242-0.033 0.077-0.081 0.146-0.141 0.204s-0.13 0.104-0.208 0.135c-0.061 0.021-0.125 0.033-0.19 0.038z" fill="#00EAFF" fill-opacity=".8"/>
<path d="m406.06 141.58c-0.129-1e-3 -0.254-0.042-0.36-0.116-0.105-0.075-0.185-0.179-0.229-0.301-0.044-0.121-0.05-0.253-0.017-0.377 0.033-0.125 0.103-0.237 0.201-0.321l0.836-0.722c0.128-0.109 0.294-0.163 0.461-0.15 0.168 0.013 0.324 0.092 0.433 0.22 0.109 0.127 0.163 0.293 0.15 0.461-0.013 0.167-0.092 0.323-0.22 0.432l-0.836 0.722c-0.118 0.098-0.266 0.152-0.419 0.152z" fill="#00EAFF" fill-opacity=".8"/>
<path d="m397.49 157.97c-0.165-0.015-0.32-0.088-0.436-0.206-0.116-0.119-0.186-0.275-0.198-0.44 0.279-1.533 0.664-3.045 1.154-4.524 0.022-0.083 0.061-0.161 0.113-0.229 0.053-0.069 0.119-0.126 0.193-0.169 0.075-0.043 0.158-0.07 0.243-0.082 0.085-0.011 0.172-5e-3 0.256 0.018 0.083 0.022 0.161 0.061 0.229 0.113 0.068 0.053 0.126 0.119 0.169 0.193 0.043 0.075 0.07 0.157 0.081 0.243 0.011 0.085 6e-3 0.172-0.017 0.255-0.507 1.838-1.065 3.941-1.103 4.207 2e-3 0.08-0.012 0.159-0.041 0.234-0.029 0.074-0.072 0.142-0.128 0.2-0.055 0.058-0.121 0.104-0.194 0.136-0.074 0.032-0.152 0.049-0.232 0.051h-0.089z" fill="#00EAFF" fill-opacity=".8"/>
<path d="m370.93 219.65-9.266 1.444v62.379l9.266 6.336v-70.159z" fill="#231F20"/>
<path d="m370.93 290.44c-0.127 0-0.251-0.04-0.355-0.114l-9.265-6.335c-0.087-0.056-0.158-0.133-0.207-0.224s-0.074-0.193-0.072-0.296v-62.379c-2e-3 -0.15 0.051-0.296 0.149-0.41s0.234-0.189 0.383-0.21l9.278-1.445c0.09-0.013 0.181-7e-3 0.268 0.017s0.169 0.066 0.239 0.122c0.067 0.062 0.121 0.136 0.158 0.219s0.057 0.172 0.058 0.263v70.184c-1e-3 0.114-0.032 0.225-0.09 0.323s-0.141 0.179-0.24 0.235c-0.096 0.04-0.2 0.057-0.304 0.05zm-8.632-7.298 7.998 5.461v-68.207l-7.998 1.267v61.479z" fill="#231F20"/>
<path d="m370.93 253.77h-0.216l-8.872-3.231c-0.089-0.019-0.172-0.057-0.245-0.111s-0.134-0.123-0.177-0.202c-0.044-0.08-0.071-0.168-0.078-0.258s6e-3 -0.181 0.037-0.266c0.031-0.086 0.08-0.163 0.144-0.228 0.064-0.064 0.14-0.114 0.225-0.147 0.085-0.032 0.176-0.046 0.266-0.04 0.091 6e-3 0.179 0.031 0.259 0.073l8.872 3.231c0.078 0.027 0.15 0.07 0.211 0.124 0.061 0.055 0.111 0.122 0.147 0.196 0.035 0.074 0.055 0.155 0.059 0.237s-8e-3 0.164-0.036 0.242c-0.048 0.117-0.131 0.217-0.237 0.285-0.107 0.068-0.233 0.101-0.359 0.095z" fill="#E5E5E5"/>
<path d="m370.93 287.3c-0.121-4e-3 -0.239-0.039-0.342-0.101l-6.984-4.473c-0.088-0.062-0.16-0.143-0.211-0.238s-0.078-0.2-0.081-0.307l0.279-13.267c2e-3 -0.103 0.03-0.205 0.081-0.296 0.051-0.09 0.123-0.167 0.211-0.223 0.093-0.05 0.198-0.076 0.304-0.076s0.21 0.026 0.304 0.076l6.705 3.117c0.085 0.028 0.163 0.074 0.229 0.134 0.066 0.061 0.118 0.134 0.154 0.216 0.035 0.083 0.053 0.171 0.052 0.261-2e-3 0.089-0.022 0.177-0.06 0.258s-0.092 0.153-0.16 0.212c-0.068 0.058-0.147 0.102-0.233 0.127-0.085 0.026-0.176 0.033-0.264 0.021-0.089-0.011-0.174-0.042-0.25-0.089l-5.831-2.699-0.253 11.936 6.692 4.283c0.141 0.091 0.24 0.234 0.276 0.398s5e-3 0.335-0.086 0.476c-0.06 0.084-0.14 0.152-0.233 0.196s-0.196 0.064-0.299 0.058z" fill="#E5E5E5"/>
<path d="m364.23 269.56c-0.083 0.01-0.168 5e-3 -0.249-0.017s-0.157-0.059-0.223-0.111c-0.067-0.051-0.123-0.115-0.165-0.187-0.041-0.073-0.069-0.153-0.079-0.237-0.011-0.083-5e-3 -0.167 0.016-0.248 0.022-0.081 0.06-0.157 0.111-0.224 0.051-0.066 0.115-0.122 0.188-0.164s0.153-0.069 0.236-0.079l6.718-1.762c0.079-0.021 0.161-0.026 0.242-0.015s0.16 0.038 0.23 0.079c0.071 0.041 0.133 0.096 0.182 0.161 0.05 0.065 0.086 0.14 0.106 0.219 0.043 0.161 0.02 0.333-0.063 0.477-0.083 0.145-0.22 0.251-0.38 0.296l-6.718 1.774-0.152 0.038z" fill="#E5E5E5"/>
<path d="m361.67 283.5c-0.168 0.025-0.339-0.018-0.476-0.119-0.136-0.101-0.227-0.252-0.252-0.42-0.026-0.168 0.017-0.339 0.118-0.476 0.101-0.136 0.252-0.227 0.42-0.252l2.282-0.71c0.161-0.048 0.335-0.031 0.484 0.047s0.262 0.211 0.314 0.371c0.048 0.16 0.031 0.332-0.048 0.479-0.078 0.147-0.211 0.257-0.37 0.307l-2.281 0.709c-0.059 0.034-0.124 0.056-0.191 0.064z" fill="#E5E5E5"/>
<path d="m336.62 311.37c-5.552 0-9.228-3.523-9.988-7.058-0.111-0.465-0.166-0.941-0.165-1.419-1.984-0.78-3.882-1.76-5.666-2.927-6.616-4.321-12.016-11.315-16.477-21.401-10.964-24.607-10.951-51.698-10.939-77.888v-0.748c0-17.739-2.129-41.371-20.799-42.296-0.084-3e-3 -0.165-0.022-0.241-0.057s-0.144-0.085-0.2-0.146c-0.057-0.061-0.101-0.133-0.129-0.211-0.029-0.078-0.042-0.161-0.039-0.244 5e-3 -0.084 0.026-0.165 0.063-0.24 0.036-0.075 0.087-0.142 0.149-0.198 0.063-0.055 0.135-0.097 0.214-0.125 0.079-0.027 0.163-0.038 0.246-0.033 19.748 0.976 22.016 25.342 22.004 43.55v0.748c0 26.064 0 53.015 10.824 77.368 4.398 9.858 9.646 16.688 16.047 20.869 1.601 1.051 3.298 1.946 5.07 2.674 0.481-2.534 2.471-4.676 5.665-6.07 2.979-1.267 6.604-1.495 11.078-0.557 1.314 0.159 2.544 0.732 3.511 1.634 0.352 0.387 0.62 0.842 0.788 1.337s0.232 1.019 0.188 1.54c-0.101 1.408-0.747 2.721-1.799 3.662-1.838 1.341-4.064 2.044-6.338 2.002-4.052 0.178-8.1-0.42-11.927-1.762 0.025 0.23 0.064 0.459 0.114 0.685 0.659 3.003 4.005 6.107 8.986 6.056 16.833-0.317 29.85-17.131 32.271-32.526 0.025-0.168 0.116-0.319 0.253-0.42s0.308-0.144 0.476-0.118c0.168 0.025 0.319 0.116 0.42 0.252 0.101 0.137 0.144 0.308 0.119 0.476-2.535 15.902-16.009 33.274-33.488 33.591h-0.291zm-8.873-9.326c3.79 1.37 7.812 1.986 11.839 1.812 1.986 0.054 3.935-0.542 5.551-1.698 0.802-0.71 1.294-1.707 1.369-2.775 0.036-0.351-1e-3 -0.707-0.11-1.043s-0.288-0.645-0.524-0.908c-0.796-0.7-1.786-1.141-2.839-1.267-4.208-0.875-7.605-0.71-10.317 0.481-2.713 1.191-4.589 3.219-4.931 5.423l-0.038-0.025z" fill="#00EAFF"/>
</svg>
